{
.appVersion = "895";
copyright = "Copyright 2016 The Montserrat and Sector Project Authors";
customParameters = (
{
name = fsType;
value = (
);
},
{
name = license;
value = "This Font Software is licensed under the SIL Open Font License Version 1.1.";
},
{
name = licenseURL;
value = "http://scripts.sil.org/OFL";
}
);
date = "2016-04-14 23:39:46 +0000";
designer = "Montserrat by Julieta Ulanovsky; Sector Gurmukhi by Gunnar Vilhjalmsson";
designerURL = "Montserrat http://www.zkysky.com.ar; Sector Gurmukhi http://universalthirst.com";
familyName = Sector;
fontMaster = (
{
alignmentZones = (
"{850, 19}",
"{693, 20}",
"{105, -15}",
"{-164, -19}"
);
ascender = 858;
capHeight = 693;
descender = -195;
id = "37E353DF-6BB3-462E-BD25-B39B9A501818";
weight = Bold;
weightValue = 193;
xHeight = 693;
}
);
glyphs = (
{
glyphname = A;
layers = (
{
anchors = (
{
name = ogonek;
position = "{800, 10}";
},
{
name = top;
position = "{394, 701}";
}
);
layerId = "37E353DF-6BB3-462E-BD25-B39B9A501818";
paths = (
{
closed = 1;
nodes = (
"291 701 LINE",
"-7 0 LINE",
"206 0 LINE",
"392 493 LINE",
"573 0 LINE",
"793.995 0 LINE",
"505 701 LINE"
);
},
{
closed = 1;
nodes = (
"183 264 LINE",
"183 112 LINE SMOOTH",
"589 112 LINE",
"589 264 LINE"
);
}
);
width = 786;
}
);
leftKerningGroup = A;
rightKerningGroup = A;
unicode = 0041;
},
{
glyphname = Aogonek;
layers = (
{
layerId = "37E353DF-6BB3-462E-BD25-B39B9A501818";
paths = (
{
closed = 1;
nodes = (
"291 701 LINE",
"-7 0 LINE",
"207 0 LINE",
"249 112 LINE",
"531 112 LINE",
"573 0 LINE",
"638 0 LINE",
"613 -39 OFFCURVE",
"594 -78 OFFCURVE",
"594 -118 CURVE SMOOTH",
"594 -184 OFFCURVE",
"645 -203 OFFCURVE",
"686 -203 CURVE SMOOTH",
"732 -203 OFFCURVE",
"774 -179 OFFCURVE",
"801 -132 CURVE",
"750 -73 LINE",
"738 -92 OFFCURVE",
"725 -104 OFFCURVE",
"711 -104 CURVE SMOOTH",
"701 -104 OFFCURVE",
"693 -97 OFFCURVE",
"693 -85 CURVE SMOOTH",
"693 -67 OFFCURVE",
"709 -36 OFFCURVE",
"734 0 CURVE",
"794 0 LINE",
"505 701 LINE"
);
},
{
closed = 1;
nodes = (
"476 264 LINE",
"305 264 LINE",
"392 493 LINE"
);
}
);
width = 786;
}
);
leftKerningGroup = A;
rightKerningGroup = A;
unicode = 0104;
},
{
glyphname = Aring;
layers = (
{
components = (
{
name = A;
}
);
layerId = "37E353DF-6BB3-462E-BD25-B39B9A501818";
paths = (
{
closed = 1;
nodes = (
"324 895 OFFCURVE",
"266 837 OFFCURVE",
"266 764 CURVE SMOOTH",
"266 691 OFFCURVE",
"324 633 OFFCURVE",
"398 633 CURVE SMOOTH",
"471 633 OFFCURVE",
"529 691 OFFCURVE",
"529 764 CURVE SMOOTH",
"529 837 OFFCURVE",
"471 895 OFFCURVE",
"398 895 CURVE SMOOTH"
);
},
{
closed = 1;
nodes = (
"424 811 OFFCURVE",
"444 791 OFFCURVE",
"444 764 CURVE SMOOTH",
"444 737 OFFCURVE",
"424 717 OFFCURVE",
"397 717 CURVE SMOOTH",
"370 717 OFFCURVE",
"349 737 OFFCURVE",
"349 764 CURVE SMOOTH",
"349 791 OFFCURVE",
"370 811 OFFCURVE",
"397 811 CURVE SMOOTH"
);
}
);
width = 786;
}
);
leftKerningGroup = A;
leftMetricsKey = A;
rightKerningGroup = A;
rightMetricsKey = A;
unicode = 00C5;
},
{
glyphname = AE;
layers = (
{
anchors = (
{
name = bottom;
position = "{791, 0}";
},
{
name = ogonek;
position = "{1079, 10}";
},
{
name = top;
position = "{651, 701}";
}
);
layerId = "37E353DF-6BB3-462E-BD25-B39B9A501818";
paths = (
{
closed = 1;
nodes = (
"386 701 LINE",
"-7 0 LINE",
"208 0 LINE",
"485 542 LINE",
"778 542 LINE",
"772 701 LINE"
);
},
{
closed = 1;
nodes = (
"218 283 LINE",
"213 133 LINE",
"608 133 LINE",
"612 283 LINE"
);
},
{
closed = 1;
nodes = (
"503 701 LINE",
"503 0 LINE",
"1086 0 LINE",
"1086 160 LINE",
"711 160 LINE",
"711 271 LINE",
"1042 271 LINE",
"1042 431 LINE",
"711 431 LINE",
"711 541 LINE",
"1076 541 LINE",
"1076 701 LINE"
);
}
);
width = 1127;
}
);
leftKerningGroup = A;
leftMetricsKey = A;
rightKerningGroup = E;
rightMetricsKey = E;
unicode = 00C6;
},
{
glyphname = B;
layers = (
{
layerId = "37E353DF-6BB3-462E-BD25-B39B9A501818";
paths = (
{
closed = 1;
nodes = (
"59 701 LINE",
"59 0 LINE",
"418 0 LINE SMOOTH",
"587 0 OFFCURVE",
"695 76 OFFCURVE",
"695 196 CURVE SMOOTH",
"695 285 OFFCURVE",
"639 355 OFFCURVE",
"553 373 CURVE",
"626 394 OFFCURVE",
"672 453 OFFCURVE",
"672 524 CURVE SMOOTH",
"672 632 OFFCURVE",
"567 701 OFFCURVE",
"403 701 CURVE SMOOTH"
);
},
{
closed = 1;
nodes = (
"445 284 OFFCURVE",
"478 260 OFFCURVE",
"478 222 CURVE SMOOTH",
"478 181 OFFCURVE",
"445 155 OFFCURVE",
"392 155 CURVE SMOOTH",
"266 155 LINE",
"266 284 LINE",
"392 284 LINE SMOOTH"
);
},
{
closed = 1;
nodes = (
"432 545 OFFCURVE",
"459 523 OFFCURVE",
"459 487 CURVE SMOOTH",
"459 450 OFFCURVE",
"432 426 OFFCURVE",
"392 426 CURVE SMOOTH",
"266 426 LINE",
"266 545 LINE",
"392 545 LINE SMOOTH"
);
}
);
width = 720;
}
);
leftKerningGroup = H;
rightKerningGroup = B;
unicode = 0042;
},
{
glyphname = C;
layers = (
{
anchors = (
{
name = bottom;
position = "{371, 0}";
},
{
name = top;
position = "{389, 701}";
}
);
layerId = "37E353DF-6BB3-462E-BD25-B39B9A501818";
paths = (
{
closed = 1;
nodes = (
"179 707 OFFCURVE",
"19 556 OFFCURVE",
"19 352 CURVE SMOOTH",
"19 145 OFFCURVE",
"176 -9 OFFCURVE",
"389 -9 CURVE SMOOTH",
"495 -9 OFFCURVE",
"610 44 OFFCURVE",
"686 126 CURVE",
"566 254 LINE",
"518 205 OFFCURVE",
"453 173 OFFCURVE",
"399 173 CURVE SMOOTH",
"304 173 OFFCURVE",
"232 251 OFFCURVE",
"232 354 CURVE SMOOTH",
"232 457 OFFCURVE",
"304 534 OFFCURVE",
"399 534 CURVE SMOOTH",
"457 534 OFFCURVE",
"522 497 OFFCURVE",
"566 441 CURVE",
"686 583 LINE",
"615 659 OFFCURVE",
"502 707 OFFCURVE",
"396 707 CURVE SMOOTH"
);
}
);
width = 690;
}
);
leftKerningGroup = O;
rightKerningGroup = C;
unicode = 0043;
},
{
glyphname = D;
layers = (
{
anchors = (
{
name = center;
position = "{375, 351}";
},
{
name = top;
position = "{355, 701}";
}
);
layerId = "37E353DF-6BB3-462E-BD25-B39B9A501818";
paths = (
{
closed = 1;
nodes = (
"59 701 LINE",
"59 0 LINE",
"359 0 LINE SMOOTH",
"591 0 OFFCURVE",
"744 140 OFFCURVE",
"744 351 CURVE SMOOTH",
"744 562 OFFCURVE",
"593 701 OFFCURVE",
"367 701 CURVE SMOOTH"
);
},
{
closed = 1;
nodes = (
"462 537 OFFCURVE",
"531 462 OFFCURVE",
"531 349 CURVE SMOOTH",
"531 237 OFFCURVE",
"467 163 OFFCURVE",
"372 163 CURVE SMOOTH",
"267 163 LINE",
"267 537 LINE",
"362 537 LINE SMOOTH"
);
}
);
width = 762;
}
);
leftKerningGroup = H;
rightKerningGroup = O;
unicode = 0044;
},
{
glyphname = Eth;
layers = (
{
components = (
{
name = D;
transform = "{1, 0, 0, 1, 38, 0}";
}
);
layerId = "37E353DF-6BB3-462E-BD25-B39B9A501818";
paths = (
{
closed = 1;
nodes = (
"0 405 LINE",
"0 297 LINE",
"444 297 LINE",
"444 405 LINE"
);
}
);
width = 800;
}
);
leftKerningGroup = H;
rightKerningGroup = O;
rightMetricsKey = D;
unicode = 00D0;
},
{
glyphname = E;
layers = (
{
anchors = (
{
name = bottom;
position = "{347, 0}";
},
{
name = ogonek;
position = "{635, 10}";
},
{
name = top;
position = "{347, 701}";
}
);
layerId = "37E353DF-6BB3-462E-BD25-B39B9A501818";
paths = (
{
closed = 1;
nodes = (
"59 701 LINE",
"59 0 LINE",
"642 0 LINE",
"642 160 LINE",
"267 160 LINE",
"267 271 LINE",
"598 271 LINE",
"598 431 LINE",
"267 431 LINE",
"267 541 LINE",
"632 541 LINE",
"632 701 LINE"
);
}
);
width = 683;
}
);
leftKerningGroup = H;
rightKerningGroup = E;
unicode = 0045;
},
{
glyphname = Eogonek;
layers = (
{
layerId = "37E353DF-6BB3-462E-BD25-B39B9A501818";
paths = (
{
closed = 1;
nodes = (
"59 701 LINE",
"59 0 LINE",
"475 0 LINE",
"449 -39 OFFCURVE",
"430 -78 OFFCURVE",
"430 -118 CURVE SMOOTH",
"430 -184 OFFCURVE",
"481 -203 OFFCURVE",
"522 -203 CURVE SMOOTH",
"569 -203 OFFCURVE",
"610 -179 OFFCURVE",
"637 -132 CURVE",
"587 -73 LINE",
"575 -92 OFFCURVE",
"561 -104 OFFCURVE",
"547 -104 CURVE SMOOTH",
"537 -104 OFFCURVE",
"530 -97 OFFCURVE",
"530 -85 CURVE SMOOTH",
"530 -67 OFFCURVE",
"545 -37 OFFCURVE",
"570 0 CURVE",
"644 0 LINE",
"644 158 LINE",
"267 158 LINE",
"267 273 LINE",
"600 273 LINE",
"600 431 LINE",
"267 431 LINE",
"267 542 LINE",
"634 542 LINE",
"634 701 LINE"
);
}
);
width = 685;
}
);
leftKerningGroup = H;
rightKerningGroup = E;
unicode = 0118;
},
{
glyphname = F;
layers = (
{
layerId = "37E353DF-6BB3-462E-BD25-B39B9A501818";
paths = (
{
closed = 1;
nodes = (
"59 701 LINE",
"59 0 LINE",
"267 0 LINE",
"267 241 LINE",
"580 241 LINE",
"580 401 LINE",
"267 401 LINE",
"267 541 LINE",
"603 541 LINE",
"603 701 LINE"
);
}
);
width = 619;
}
);
leftKerningGroup = H;
rightKerningGroup = F;
unicode = 0046;
},
{
glyphname = G;
layers = (
{
anchors = (
{
name = bottom;
position = "{394, 0}";
},
{
name = top;
position = "{394, 701}";
}
);
layerId = "37E353DF-6BB3-462E-BD25-B39B9A501818";
paths = (
{
closed = 1;
nodes = (
"184 707 OFFCURVE",
"19 555 OFFCURVE",
"19 350 CURVE SMOOTH",
"19 144 OFFCURVE",
"179 -9 OFFCURVE",
"396 -9 CURVE SMOOTH",
"496 -9 OFFCURVE",
"620 29 OFFCURVE",
"696 81 CURVE",
"578 227 LINE",
"526 190 OFFCURVE",
"457 165 OFFCURVE",
"411 165 CURVE SMOOTH",
"309 165 OFFCURVE",
"232 243 OFFCURVE",
"232 350 CURVE SMOOTH",
"232 455 OFFCURVE",
"308 534 OFFCURVE",
"409 534 CURVE SMOOTH",
"470 534 OFFCURVE",
"540 504 OFFCURVE",
"588 458 CURVE",
"706 601 LINE",
"632 666 OFFCURVE",
"517 707 OFFCURVE",
"410 707 CURVE SMOOTH"
);
},
{
closed = 1;
nodes = (
"517 363 LINE",
"517 81 LINE",
"696 81 LINE",
"696 363 LINE"
);
}
);
width = 740;
}
);
leftKerningGroup = O;
rightKerningGroup = G;
unicode = 0047;
},
{
glyphname = H;
layers = (
{
anchors = (
{
name = center;
position = "{392, 351}";
},
{
name = top;
position = "{401, 701}";
}
);
layerId = "37E353DF-6BB3-462E-BD25-B39B9A501818";
paths = (
{
closed = 1;
nodes = (
"516 701 LINE",
"516 422 LINE",
"267 422 LINE",
"267 701 LINE",
"59 701 LINE",
"59 0 LINE",
"267 0 LINE",
"267 261 LINE",
"516 261 LINE",
"516 0 LINE",
"724 0 LINE",
"724 701 LINE"
);
}
);
width = 783;
}
);
leftKerningGroup = H;
rightKerningGroup = H;
unicode = 0048;
},
{
glyphname = Hbar;
layers = (
{
components = (
{
name = H;
transform = "{1, 0, 0, 1, 46, 0}";
}
);
layerId = "37E353DF-6BB3-462E-BD25-B39B9A501818";
paths = (
{
closed = 1;
nodes = (
"23 621 LINE",
"23 510 LINE",
"853 510 LINE",
"853 621 LINE"
);
}
);
width = 875;
}
);
leftKerningGroup = H;
rightKerningGroup = H;
unicode = 0126;
},
{
glyphname = I;
layers = (
{
anchors = (
{
name = ogonek;
position = "{289, 10}";
},
{
name = top;
position = "{163, 701}";
}
);
layerId = "37E353DF-6BB3-462E-BD25-B39B9A501818";
paths = (
{
closed = 1;
nodes = (
"59 701 LINE",
"59 0 LINE",
"267 0 LINE",
"267 701 LINE"
);
}
);
width = 326;
}
);
leftKerningGroup = H;
rightKerningGroup = H;
unicode = 0049;
},
{
glyphname = Iogonek;
layers = (
{
layerId = "37E353DF-6BB3-462E-BD25-B39B9A501818";
paths = (
{
closed = 1;
nodes = (
"238 -73 LINE",
"226 -92 OFFCURVE",
"213 -104 OFFCURVE",
"199 -104 CURVE SMOOTH",
"189 -104 OFFCURVE",
"181 -97 OFFCURVE",
"181 -85 CURVE SMOOTH",
"181 -67 OFFCURVE",
"197 -36 OFFCURVE",
"222 0 CURVE",
"267 0 LINE",
"267 701 LINE",
"59 701 LINE",
"59 0 LINE",
"126 0 LINE",
"101 -39 OFFCURVE",
"82 -78 OFFCURVE",
"82 -118 CURVE SMOOTH",
"82 -184 OFFCURVE",
"133 -203 OFFCURVE",
"174 -203 CURVE SMOOTH",
"220 -203 OFFCURVE",
"262 -179 OFFCURVE",
"289 -132 CURVE"
);
}
);
width = 326;
}
);
leftKerningGroup = H;
rightKerningGroup = H;
unicode = 012E;
},
{
glyphname = J;
layers = (
{
anchors = (
{
name = top;
position = "{280, 701}";
}
);
layerId = "37E353DF-6BB3-462E-BD25-B39B9A501818";
paths = (
{
closed = 1;
nodes = (
"59 701 LINE",
"59 535 LINE",
"298 535 LINE",
"298 237 LINE SMOOTH",
"298 190 OFFCURVE",
"273 166 OFFCURVE",
"235 166 CURVE SMOOTH",
"197 166 OFFCURVE",
"141 191 OFFCURVE",
"88 245 CURVE",
"-6 108 LINE",
"61 34 OFFCURVE",
"146 -9 OFFCURVE",
"252 -9 CURVE SMOOTH",
"408 -9 OFFCURVE",
"507 79 OFFCURVE",
"507 232 CURVE SMOOTH",
"507 701 LINE"
);
}
);
width = 554;
}
);
leftKerningGroup = J;
rightKerningGroup = U;
unicode = 004A;
},
{
glyphname = K;
layers = (
{
anchors = (
{
name = bottom;
position = "{369, 0}";
},
{
name = top;
position = "{369, 701}";
}
);
layerId = "37E353DF-6BB3-462E-BD25-B39B9A501818";
paths = (
{
closed = 1;
nodes = (
"502 701 LINE",
"267 431 LINE",
"267 701 LINE",
"59 701 LINE",
"59 0 LINE",
"267 0 LINE",
"267 168 LINE",
"742 701 LINE"
);
},
{
closed = 1;
nodes = (
"334 275 LINE",
"509 0 LINE",
"757.995 0 LINE",
"473 438 LINE"
);
}
);
width = 761;
}
);
leftKerningGroup = H;
rightKerningGroup = X;
unicode = 004B;
},
{
glyphname = L;
layers = (
{
anchors = (
{
name = bottom;
position = "{292, 0}";
},
{
name = top;
position = "{158, 701}";
}
);
layerId = "37E353DF-6BB3-462E-BD25-B39B9A501818";
paths = (
{
closed = 1;
nodes = (
"59 701 LINE",
"59 0 LINE",
"561 0 LINE",
"561 174 LINE",
"267 174 LINE",
"267 701 LINE"
);
}
);
width = 574;
}
);
leftKerningGroup = H;
rightKerningGroup = L;
unicode = 004C;
},
{
glyphname = Lslash;
layers = (
{
components = (
{
name = L;
transform = "{1, 0, 0, 1, 21, 0}";
}
);
layerId = "37E353DF-6BB3-462E-BD25-B39B9A501818";
paths = (
{
closed = 1;
nodes = (
"-22 414 LINE",
"12 293 LINE",
"459 422 LINE",
"424 544 LINE"
);
}
);
width = 595;
}
);
leftKerningGroup = H;
rightKerningGroup = L;
rightMetricsKey = L;
unicode = 0141;
},
{
glyphname = M;
layers = (
{
layerId = "37E353DF-6BB3-462E-BD25-B39B9A501818";
paths = (
{
closed = 1;
nodes = (
"620 701 LINE",
"451 313 LINE",
"282 701 LINE",
"59 701 LINE",
"59 0 LINE",
"242 0 LINE",
"242 415 LINE",
"383 69 LINE",
"519 69 LINE",
"661 415 LINE",
"661 0 LINE",
"843 0 LINE",
"843 701 LINE"
);
}
);
width = 902;
}
);
leftKerningGroup = H;
rightKerningGroup = H;
unicode = 004D;
},
{
glyphname = N;
layers = (
{
anchors = (
{
name = bottom;
position = "{392, 0}";
},
{
name = top;
position = "{392, 701}";
}
);
layerId = "37E353DF-6BB3-462E-BD25-B39B9A501818";
paths = (
{
closed = 1;
nodes = (
"534 701 LINE",
"534 309 LINE",
"237 701 LINE",
"59 701 LINE",
"59 0 LINE",
"250 0 LINE",
"250 390 LINE",
"547 0 LINE",
"725 0 LINE",
"725 701 LINE"
);
}
);
width = 783;
}
);
leftKerningGroup = H;
rightKerningGroup = H;
unicode = 004E;
},
{
glyphname = Eng;
layers = (
{
anchors = (
{
name = bottom;
position = "{392, 0}";
},
{
name = top;
position = "{392, 701}";
}
);
layerId = "37E353DF-6BB3-462E-BD25-B39B9A501818";
paths = (
{
closed = 1;
nodes = (
"536 -20 OFFCURVE",
"514 -45 OFFCURVE",
"469 -45 CURVE SMOOTH",
"442 -45 OFFCURVE",
"406 -35 OFFCURVE",
"366 -16 CURVE",
"295 -172 LINE",
"345 -203 OFFCURVE",
"402 -220 OFFCURVE",
"470 -220 CURVE SMOOTH",
"618 -220 OFFCURVE",
"717 -139 OFFCURVE",
"724 0 CURVE",
"536 30 LINE"
);
},
{
closed = 1;
nodes = (
"534 701 LINE",
"534 309 LINE",
"237 701 LINE",
"59 701 LINE",
"59 0 LINE",
"250 0 LINE",
"250 390 LINE",
"547 0 LINE",
"725 0 LINE",
"725 701 LINE"
);
}
);
width = 783;
}
);
leftKerningGroup = H;
rightKerningGroup = H;
unicode = 014A;
},
{
glyphname = O;
layers = (
{
anchors = (
{
name = top;
position = "{392, 701}";
}
);
layerId = "37E353DF-6BB3-462E-BD25-B39B9A501818";
paths = (
{
closed = 1;
nodes = (
"181 707 OFFCURVE",
"19 557 OFFCURVE",
"19 351 CURVE SMOOTH",
"19 144 OFFCURVE",
"181 -9 OFFCURVE",
"401 -9 CURVE SMOOTH",
"621 -9 OFFCURVE",
"783 145 OFFCURVE",
"783 351 CURVE SMOOTH",
"783 556 OFFCURVE",
"621 707 OFFCURVE",
"401 707 CURVE SMOOTH"
);
},
{
closed = 1;
nodes = (
"495 533 OFFCURVE",
"569 456 OFFCURVE",
"569 350 CURVE SMOOTH",
"569 244 OFFCURVE",
"495 165 OFFCURVE",
"403 165 CURVE SMOOTH",
"311 165 OFFCURVE",
"232 244 OFFCURVE",
"232 350 CURVE SMOOTH",
"232 456 OFFCURVE",
"310 533 OFFCURVE",
"403 533 CURVE SMOOTH"
);
}
);
width = 802;
}
);
leftKerningGroup = O;
rightKerningGroup = O;
unicode = 004F;
},
{
glyphname = Oslash;
layers = (
{
anchors = (
{
name = top;
position = "{385, 701}";
}
);
components = (
{
name = O;
}
);
layerId = "37E353DF-6BB3-462E-BD25-B39B9A501818";
paths = (
{
closed = 1;
nodes = (
"502 806 LINE",
"176 -109 LINE",
"291 -109 LINE",
"617 806 LINE"
);
}
);
width = 802;
}
);
leftKerningGroup = O;
leftMetricsKey = O;
rightKerningGroup = O;
rightMetricsKey = O;
unicode = 00D8;
},
{
glyphname = OE;
layers = (
{
anchors = (
{
name = bottom;
position = "{785, 0}";
},
{
name = ogonek;
position = "{1073, 10}";
},
{
name = top;
position = "{556, 701}";
}
);
layerId = "37E353DF-6BB3-462E-BD25-B39B9A501818";
paths = (
{
closed = 1;
nodes = (
"400 701 LINE",
"180 701 OFFCURVE",
"19 550 OFFCURVE",
"19 349 CURVE SMOOTH",
"19 147 OFFCURVE",
"182 0 OFFCURVE",
"400 0 CURVE",
"559 0 LINE",
"561 167 LINE",
"400 166 LINE",
"304 166 OFFCURVE",
"232 243 OFFCURVE",
"232 348 CURVE SMOOTH",
"232 454 OFFCURVE",
"304 532 OFFCURVE",
"400 532 CURVE",
"542 532 LINE",
"542 701 LINE"
);
},
{
closed = 1;
nodes = (
"497 701 LINE",
"497 0 LINE",
"1080 0 LINE",
"1080 160 LINE",
"705 160 LINE",
"705 271 LINE",
"1036 271 LINE",
"1036 431 LINE",
"705 431 LINE",
"705 541 LINE",
"1071 541 LINE",
"1071 701 LINE"
);
}
);
width = 1121;
}
);
leftKerningGroup = O;
leftMetricsKey = O;
rightKerningGroup = E;
rightMetricsKey = E;
unicode = 0152;
},
{
glyphname = P;
layers = (
{
layerId = "37E353DF-6BB3-462E-BD25-B39B9A501818";
paths = (
{
closed = 1;
nodes = (
"59 701 LINE",
"59 0 LINE",
"267 0 LINE",
"267 189 LINE",
"378 189 LINE SMOOTH",
"558 189 OFFCURVE",
"662 285 OFFCURVE",
"662 452 CURVE SMOOTH",
"662 611 OFFCURVE",
"558 701 OFFCURVE",
"378 701 CURVE SMOOTH"
);
},
{
closed = 1;
nodes = (
"429 541 OFFCURVE",
"465 507 OFFCURVE",
"465 446 CURVE SMOOTH",
"465 383 OFFCURVE",
"429 349 OFFCURVE",
"367 349 CURVE SMOOTH",
"267 349 LINE",
"267 541 LINE",
"367 541 LINE SMOOTH"
);
}
);
width = 683;
}
);
leftKerningGroup = H;
rightKerningGroup = P;
unicode = 0050;
},
{
glyphname = Thorn;
layers = (
{
layerId = "37E353DF-6BB3-462E-BD25-B39B9A501818";
paths = (
{
closed = 1;
nodes = (
"227 612 LINE",
"256 453 LINE",
"368 453 LINE SMOOTH",
"425 453 OFFCURVE",
"460 418 OFFCURVE",
"460 361 CURVE SMOOTH",
"460 301 OFFCURVE",
"425 265 OFFCURVE",
"368 265 CURVE SMOOTH",
"256 265 LINE",
"256 107 LINE",
"377 107 LINE SMOOTH",
"559 107 OFFCURVE",
"673 207 OFFCURVE",
"673 367 CURVE SMOOTH",
"673 518 OFFCURVE",
"559 612 OFFCURVE",
"377 612 CURVE SMOOTH"
);
},
{
closed = 1;
nodes = (
"59 701 LINE",
"59 0 LINE",
"267 0 LINE",
"267 701 LINE"
);
}
);
width = 694;
}
);
leftKerningGroup = H;
leftMetricsKey = H;
rightKerningGroup = Thorn;
rightMetricsKey = P;
unicode = 00DE;
},
{
glyphname = Q;
layers = (
{
components = (
{
name = O;
}
);
layerId = "37E353DF-6BB3-462E-BD25-B39B9A501818";
paths = (
{
closed = 1;
nodes = (
"376 -2 LINE",
"415 -105 OFFCURVE",
"502 -172 OFFCURVE",
"606 -172 CURVE SMOOTH",
"677 -172 OFFCURVE",
"761 -141 OFFCURVE",
"815 -94 CURVE",
"744 31 LINE",
"703 0 OFFCURVE",
"659 -19 OFFCURVE",
"629 -19 CURVE SMOOTH",
"592 -19 OFFCURVE",
"560 10 OFFCURVE",
"540 51 CURVE"
);
}
);
width = 803;
}
);
leftKerningGroup = O;
rightKerningGroup = O;
unicode = 0051;
},
{
glyphname = R;
layers = (
{
anchors = (
{
name = bottom;
position = "{359, 0}";
},
{
name = top;
position = "{369, 701}";
}
);
layerId = "37E353DF-6BB3-462E-BD25-B39B9A501818";
paths = (
{
closed = 1;
nodes = (
"59 701 LINE",
"59 0 LINE",
"267 0 LINE",
"267 189 LINE",
"386 189 LINE SMOOTH",
"574 189 OFFCURVE",
"682 285 OFFCURVE",
"682 452 CURVE SMOOTH",
"682 611 OFFCURVE",
"574 701 OFFCURVE",
"386 701 CURVE SMOOTH"
);
},
{
closed = 1;
nodes = (
"340 264 LINE",
"470 0 LINE",
"705 0 LINE",
"542 264 LINE"
);
},
{
closed = 1;
nodes = (
"449 541 OFFCURVE",
"484 507 OFFCURVE",
"484 446 CURVE SMOOTH",
"484 383 OFFCURVE",
"449 349 OFFCURVE",
"387 349 CURVE SMOOTH",
"267 349 LINE",
"267 541 LINE",
"387 541 LINE SMOOTH"
);
}
);
width = 725;
}
);
leftKerningGroup = H;
rightKerningGroup = R;
unicode = 0052;
},
{
glyphname = S;
layers = (
{
anchors = (
{
name = bottom;
position = "{339, 0}";
},
{
name = top;
position = "{351, 701}";
}
);
layerId = "37E353DF-6BB3-462E-BD25-B39B9A501818";
paths = (
{
closed = 1;
nodes = (
"172 710 OFFCURVE",
"57 624 OFFCURVE",
"57 489 CURVE SMOOTH",
"57 242 OFFCURVE",
"423 309 OFFCURVE",
"423 203 CURVE SMOOTH",
"423 171 OFFCURVE",
"395 156 OFFCURVE",
"351 156 CURVE SMOOTH",
"280 156 OFFCURVE",
"163 202 OFFCURVE",
"91 263 CURVE",
"12 105 LINE",
"101 36 OFFCURVE",
"230 -6 OFFCURVE",
"349 -6 CURVE SMOOTH",
"507 -6 OFFCURVE",
"638 65 OFFCURVE",
"638 214 CURVE SMOOTH",
"638 467 OFFCURVE",
"272 406 OFFCURVE",
"272 509 CURVE SMOOTH",
"272 535 OFFCURVE",
"295 547 OFFCURVE",
"330 547 CURVE SMOOTH",
"389 547 OFFCURVE",
"491 510 OFFCURVE",
"563 469 CURVE",
"640 629 LINE",
"564 678 OFFCURVE",
"454 710 OFFCURVE",
"348 710 CURVE SMOOTH"
);
}
);
width = 655;
}
);
leftKerningGroup = S;
rightKerningGroup = S;
unicode = 0053;
},
{
glyphname = T;
layers = (
{
anchors = (
{
name = bottom;
position = "{302, 0}";
},
{
name = center;
position = "{302, 351}";
},
{
name = top;
position = "{329, 701}";
}
);
layerId = "37E353DF-6BB3-462E-BD25-B39B9A501818";
paths = (
{
closed = 1;
nodes = (
"6 701 LINE",
"6 535 LINE",
"210 535 LINE",
"210 0 LINE",
"418 0 LINE",
"418 535 LINE",
"622 535 LINE",
"622 701 LINE"
);
}
);
width = 628;
}
);
leftKerningGroup = T;
rightKerningGroup = T;
unicode = 0054;
},
{
glyphname = U;
layers = (
{
anchors = (
{
name = ogonek;
position = "{574, 10}";
},
{
name = top;
position = "{378, 701}";
}
);
layerId = "37E353DF-6BB3-462E-BD25-B39B9A501818";
paths = (
{
closed = 1;
nodes = (
"499 701 LINE",
"499 296 LINE SMOOTH",
"499 214 OFFCURVE",
"450 165 OFFCURVE",
"381 165 CURVE SMOOTH",
"311 165 OFFCURVE",
"256 215 OFFCURVE",
"256 296 CURVE SMOOTH",
"256 701 LINE",
"48 701 LINE",
"48 296 LINE SMOOTH",
"48 110 OFFCURVE",
"179 -9 OFFCURVE",
"380 -9 CURVE SMOOTH",
"580 -9 OFFCURVE",
"708 110 OFFCURVE",
"708 296 CURVE SMOOTH",
"708 701 LINE"
);
}
);
width = 755;
}
);
leftKerningGroup = U;
rightKerningGroup = U;
unicode = 0055;
},
{
glyphname = Uogonek;
layers = (
{
layerId = "37E353DF-6BB3-462E-BD25-B39B9A501818";
paths = (
{
closed = 1;
nodes = (
"499 701 LINE",
"499 296 LINE SMOOTH",
"499 214 OFFCURVE",
"450 165 OFFCURVE",
"381 165 CURVE SMOOTH",
"311 165 OFFCURVE",
"256 215 OFFCURVE",
"256 296 CURVE SMOOTH",
"256 701 LINE",
"48 701 LINE",
"48 296 LINE SMOOTH",
"48 110 OFFCURVE",
"179 -9 OFFCURVE",
"380 -9 CURVE SMOOTH",
"580 -9 OFFCURVE",
"708 110 OFFCURVE",
"708 296 CURVE SMOOTH",
"708 701 LINE"
);
},
{
closed = 1;
nodes = (
"427 22 LINE",
"395 -22 OFFCURVE",
"367 -70 OFFCURVE",
"367 -118 CURVE SMOOTH",
"367 -184 OFFCURVE",
"418 -203 OFFCURVE",
"459 -203 CURVE SMOOTH",
"506 -203 OFFCURVE",
"547 -179 OFFCURVE",
"574 -132 CURVE",
"524 -73 LINE",
"512 -92 OFFCURVE",
"498 -104 OFFCURVE",
"484 -104 CURVE SMOOTH",
"474 -104 OFFCURVE",
"467 -97 OFFCURVE",
"467 -85 CURVE SMOOTH",
"467 -64 OFFCURVE",
"490 -24 OFFCURVE",
"523 22 CURVE"
);
}
);
width = 756;
}
);
leftKerningGroup = U;
rightKerningGroup = U;
unicode = 0172;
},
{
glyphname = V;
layers = (
{
layerId = "37E353DF-6BB3-462E-BD25-B39B9A501818";
paths = (
{
closed = 1;
nodes = (
"538 701 LINE",
"379 216 LINE",
"219 701 LINE",
"-4 701 LINE",
"265 0 LINE",
"480 0 LINE",
"751 701 LINE"
);
}
);
width = 748;
}
);
leftKerningGroup = V;
rightKerningGroup = V;
unicode = 0056;
},
{
glyphname = W;
layers = (
{
anchors = (
{
name = top;
position = "{553, 701}";
}
);
layerId = "37E353DF-6BB3-462E-BD25-B39B9A501818";
paths = (
{
closed = 1;
nodes = (
"896 701 LINE",
"778 216 LINE",
"659 701 LINE",
"456 701 LINE",
"338 216 LINE",
"219 701 LINE",
"-4 701 LINE",
"225 0 LINE",
"439 0 LINE",
"553 447 LINE",
"665 0 LINE",
"879 0 LINE",
"1109 701 LINE"
);
}
);
width = 1103;
}
);
leftKerningGroup = V;
rightKerningGroup = V;
unicode = 0057;
},
{
glyphname = X;
layers = (
{
layerId = "37E353DF-6BB3-462E-BD25-B39B9A501818";
paths = (
{
closed = 1;
nodes = (
"490 701 LINE",
"374 518 LINE",
"257 701 LINE",
"15 701 LINE",
"247 357 LINE",
"0 0 LINE",
"243 0 LINE",
"374 200 LINE",
"507 0 LINE",
"756 0 LINE",
"506 366 LINE",
"735 701 LINE"
);
}
);
width = 756;
}
);
leftKerningGroup = X;
rightKerningGroup = X;
unicode = 0058;
},
{
glyphname = Y;
layers = (
{
anchors = (
{
name = top;
position = "{351, 701}";
}
);
layerId = "37E353DF-6BB3-462E-BD25-B39B9A501818";
paths = (
{
closed = 1;
nodes = (
"502 701 LINE",
"353 415 LINE",
"200 701 LINE",
"-7 701 LINE",
"340 47 LINE",
"365 47 LINE",
"710 701 LINE"
);
},
{
closed = 1;
nodes = (
"249 312 LINE",
"249 0 LINE",
"457 0 LINE",
"457 312 LINE"
);
}
);
width = 702;
}
);
leftKerningGroup = V;
rightKerningGroup = V;
unicode = 0059;
},
{
glyphname = Z;
layers = (
{
anchors = (
{
name = top;
position = "{358, 701}";
}
);
layerId = "37E353DF-6BB3-462E-BD25-B39B9A501818";
paths = (
{
closed = 1;
nodes = (
"36 701 LINE",
"36 539 LINE",
"372 539 LINE",
"24 131 LINE",
"24 0 LINE",
"656 0 LINE",
"656 162 LINE",
"302 162 LINE",
"650 569 LINE",
"650 701 LINE"
);
}
);
width = 679;
}
);
leftKerningGroup = Z;
rightKerningGroup = Z;
unicode = 005A;
},
{
glyphname = A.ss01;
layers = (
{
anchors = (
{
name = ogonek;
position = "{724, 10}";
},
{
name = top;
position = "{381, 701}";
}
);
layerId = "37E353DF-6BB3-462E-BD25-B39B9A501818";
paths = (
{
closed = 1;
nodes = (
"177 709 OFFCURVE",
"48 589 OFFCURVE",
"48 403 CURVE SMOOTH",
"48 0 LINE",
"256 0 LINE",
"256 158 LINE",
"505 158 LINE",
"505 0 LINE",
"713 0 LINE",
"713 403 LINE SMOOTH",
"713 589 OFFCURVE",
"583 709 OFFCURVE",
"378 709 CURVE SMOOTH"
);
},
{
closed = 1;
nodes = (
"456 535 OFFCURVE",
"505 483 OFFCURVE",
"505 403 CURVE SMOOTH",
"505 310 LINE",
"256 310 LINE",
"256 403 LINE SMOOTH",
"256 483 OFFCURVE",
"304 535 OFFCURVE",
"380 535 CURVE SMOOTH"
);
}
);
width = 760;
}
);
leftKerningGroup = A.ss01;
leftMetricsKey = U;
rightKerningGroup = A.ss01;
rightMetricsKey = U;
},
{
glyphname = Aogonek.ss01;
layers = (
{
layerId = "37E353DF-6BB3-462E-BD25-B39B9A501818";
paths = (
{
closed = 1;
nodes = (
"177 709 OFFCURVE",
"48 589 OFFCURVE",
"48 403 CURVE SMOOTH",
"48 0 LINE",
"256 0 LINE",
"256 158 LINE",
"505 158 LINE",
"505 0 LINE",
"562 0 LINE",
"536 -39 OFFCURVE",
"517 -78 OFFCURVE",
"517 -118 CURVE SMOOTH",
"517 -184 OFFCURVE",
"568 -203 OFFCURVE",
"610 -203 CURVE SMOOTH",
"656 -203 OFFCURVE",
"697 -179 OFFCURVE",
"724 -132 CURVE",
"674 -73 LINE",
"662 -92 OFFCURVE",
"648 -104 OFFCURVE",
"634 -104 CURVE SMOOTH",
"624 -104 OFFCURVE",
"617 -97 OFFCURVE",
"617 -85 CURVE SMOOTH",
"617 -67 OFFCURVE",
"633 -36 OFFCURVE",
"657 0 CURVE",
"713 0 LINE",
"713 403 LINE SMOOTH",
"713 589 OFFCURVE",
"583 709 OFFCURVE",
"378 709 CURVE SMOOTH"
);
},
{
closed = 1;
nodes = (
"456 535 OFFCURVE",
"505 483 OFFCURVE",
"505 403 CURVE SMOOTH",
"505 310 LINE",
"256 310 LINE",
"256 403 LINE SMOOTH",
"256 483 OFFCURVE",
"304 535 OFFCURVE",
"380 535 CURVE SMOOTH"
);
}
);
width = 762;
}
);
leftKerningGroup = Aogonek.ss01;
rightKerningGroup = Aogonek.ss01;
},
{
glyphname = E.ss01;
layers = (
{
anchors = (
{
name = bottom;
position = "{313, 0}";
},
{
name = ogonek;
position = "{561, 10}";
},
{
name = top;
position = "{313, 701}";
}
);
layerId = "37E353DF-6BB3-462E-BD25-B39B9A501818";
paths = (
{
closed = 1;
nodes = (
"178 710 OFFCURVE",
"68 636 OFFCURVE",
"68 521 CURVE SMOOTH",
"68 456 OFFCURVE",
"104 395 OFFCURVE",
"159 369 CURVE",
"80 342 OFFCURVE",
"29 271 OFFCURVE",
"29 192 CURVE SMOOTH",
"29 70 OFFCURVE",
"151 -9 OFFCURVE",
"323 -9 CURVE SMOOTH",
"431 -9 OFFCURVE",
"546 23 OFFCURVE",
"612 65 CURVE",
"534 215 LINE",
"500 192 OFFCURVE",
"418 159 OFFCURVE",
"350 159 CURVE SMOOTH",
"291 159 OFFCURVE",
"244 184 OFFCURVE",
"244 224 CURVE SMOOTH",
"244 257 OFFCURVE",
"277 280 OFFCURVE",
"324 280 CURVE SMOOTH",
"498 280 LINE",
"498 433 LINE",
"324 433 LINE SMOOTH",
"288 433 OFFCURVE",
"264 456 OFFCURVE",
"264 484 CURVE SMOOTH",
"264 522 OFFCURVE",
"308 542 OFFCURVE",
"367 542 CURVE SMOOTH",
"415 542 OFFCURVE",
"471 528 OFFCURVE",
"523 505 CURVE",
"588 657 LINE",
"533 688 OFFCURVE",
"431 710 OFFCURVE",
"342 710 CURVE SMOOTH"
);
}
);
width = 624;
}
);
leftKerningGroup = E.ss01;
leftMetricsKey = eight;
rightKerningGroup = E.ss01;
},
{
glyphname = Eogonek.ss01;
layers = (
{
layerId = "37E353DF-6BB3-462E-BD25-B39B9A501818";
paths = (
{
closed = 1;
nodes = (
"178 710 OFFCURVE",
"68 636 OFFCURVE",
"68 521 CURVE SMOOTH",
"68 456 OFFCURVE",
"104 395 OFFCURVE",
"159 369 CURVE",
"80 342 OFFCURVE",
"29 271 OFFCURVE",
"29 192 CURVE SMOOTH",
"29 70 OFFCURVE",
"151 -9 OFFCURVE",
"323 -9 CURVE SMOOTH",
"431 -9 OFFCURVE",
"546 23 OFFCURVE",
"612 65 CURVE",
"534 215 LINE",
"500 192 OFFCURVE",
"418 159 OFFCURVE",
"350 159 CURVE SMOOTH",
"291 159 OFFCURVE",
"244 184 OFFCURVE",
"244 224 CURVE SMOOTH",
"244 257 OFFCURVE",
"277 280 OFFCURVE",
"324 280 CURVE SMOOTH",
"498 280 LINE",
"498 433 LINE",
"324 433 LINE SMOOTH",
"288 433 OFFCURVE",
"264 456 OFFCURVE",
"264 484 CURVE SMOOTH",
"264 522 OFFCURVE",
"308 542 OFFCURVE",
"367 542 CURVE SMOOTH",
"415 542 OFFCURVE",
"471 528 OFFCURVE",
"523 505 CURVE",
"588 657 LINE",
"533 688 OFFCURVE",
"431 710 OFFCURVE",
"342 710 CURVE SMOOTH"
);
},
{
closed = 1;
nodes = (
"414 22 LINE",
"382 -22 OFFCURVE",
"354 -70 OFFCURVE",
"354 -118 CURVE SMOOTH",
"354 -184 OFFCURVE",
"405 -203 OFFCURVE",
"446 -203 CURVE SMOOTH",
"493 -203 OFFCURVE",
"534 -179 OFFCURVE",
"561 -132 CURVE",
"511 -73 LINE",
"499 -92 OFFCURVE",
"485 -104 OFFCURVE",
"471 -104 CURVE SMOOTH",
"461 -104 OFFCURVE",
"454 -97 OFFCURVE",
"454 -85 CURVE SMOOTH",
"454 -62 OFFCURVE",
"478 -21 OFFCURVE",
"514 27 CURVE"
);
}
);
width = 624;
}
);
leftKerningGroup = Eogonek.ss01;
rightKerningGroup = Eogonek.ss01;
},
{
glyphname = F.ss01;
layers = (
{
layerId = "37E353DF-6BB3-462E-BD25-B39B9A501818";
paths = (
{
closed = 1;
nodes = (
"257 0 LINE",
"257 455 LINE SMOOTH",
"257 504 OFFCURVE",
"289 536 OFFCURVE",
"338 536 CURVE SMOOTH",
"393 536 OFFCURVE",
"471 517 OFFCURVE",
"530 492 CURVE",
"577 663 LINE",
"516 691 OFFCURVE",
"414 710 OFFCURVE",
"319 710 CURVE SMOOTH",
"154 710 OFFCURVE",
"48 611 OFFCURVE",
"48 459 CURVE SMOOTH",
"48 0 LINE"
);
},
{
closed = 1;
nodes = (
"90 399 LINE",
"90 239 LINE SMOOTH",
"513 239 LINE",
"513 399 LINE"
);
}
);
width = 570;
}
);
leftKerningGroup = F.ss01;
leftMetricsKey = U;
rightKerningGroup = F.ss01;
},
{
glyphname = G.ss01;
layers = (
{
anchors = (
{
name = bottom;
position = "{373, 0}";
},
{
name = top;
position = "{373, 701}";
}
);
layerId = "37E353DF-6BB3-462E-BD25-B39B9A501818";
paths = (
{
closed = 1;
nodes = (
"184 707 OFFCURVE",
"19 555 OFFCURVE",
"19 350 CURVE SMOOTH",
"19 144 OFFCURVE",
"169 -9 OFFCURVE",
"374 -9 CURVE SMOOTH",
"480 -9 OFFCURVE",
"591 59 OFFCURVE",
"644 153 CURVE",
"546 264 LINE",
"522 206 OFFCURVE",
"461 165 OFFCURVE",
"397 165 CURVE SMOOTH",
"303 165 OFFCURVE",
"232 243 OFFCURVE",
"232 350 CURVE SMOOTH",
"232 455 OFFCURVE",
"308 534 OFFCURVE",
"409 534 CURVE SMOOTH",
"470 534 OFFCURVE",
"540 504 OFFCURVE",
"588 458 CURVE",
"706 601 LINE",
"631 666 OFFCURVE",
"514 707 OFFCURVE",
"406 707 CURVE SMOOTH"
);
},
{
closed = 1;
nodes = (
"517 366 LINE",
"517 119 LINE",
"544 96 LINE",
"544 0 LINE",
"696 0 LINE",
"696 366 LINE"
);
}
);
width = 741;
}
);
leftKerningGroup = O;
leftMetricsKey = O;
rightKerningGroup = G;
},
{
glyphname = I.ss01;
layers = (
{
anchors = (
{
name = ogonek;
position = "{464, 10}";
},
{
name = top;
position = "{258, 701}";
}
);
layerId = "37E353DF-6BB3-462E-BD25-B39B9A501818";
paths = (
{
closed = 1;
nodes = (
"42 541 LINE",
"473 541 LINE",
"473 701 LINE",
"42 701 LINE"
);
},
{
closed = 1;
nodes = (
"42 0 LINE",
"473 0 LINE",
"473 160 LINE",
"42 160 LINE"
);
},
{
closed = 1;
nodes = (
"154 701 LINE",
"154 0 LINE",
"362 0 LINE",
"362 701 LINE"
);
}
);
width = 516;
}
);
leftKerningGroup = I.ss01;
rightKerningGroup = I.ss01;
},
{
glyphname = J.ss01;
layers = (
{
anchors = (
{
name = top;
position = "{279, 701}";
}
);
layerId = "37E353DF-6BB3-462E-BD25-B39B9A501818";
paths = (
{
closed = 1;
nodes = (
"59 701 LINE",
"59 535 LINE",
"299 535 LINE",
"299 137 LINE SMOOTH",
"299 90 OFFCURVE",
"273 66 OFFCURVE",
"235 66 CURVE SMOOTH",
"197 66 OFFCURVE",
"141 91 OFFCURVE",
"88 145 CURVE",
"-6 8 LINE",
"61 -66 OFFCURVE",
"146 -109 OFFCURVE",
"252 -109 CURVE SMOOTH",
"408 -109 OFFCURVE",
"507 -21 OFFCURVE",
"507 132 CURVE SMOOTH",
"507 701 LINE"
);
}
);
width = 554;
}
);
leftKerningGroup = J.ss01;
leftMetricsKey = J;
rightKerningGroup = J.ss01;
rightMetricsKey = J;
},
{
glyphname = M.ss01;
layers = (
{
anchors = (
{
name = ogonek;
position = "{289, 10}";
},
{
name = top;
position = "{163, 701}";
}
);
layerId = "37E353DF-6BB3-462E-BD25-B39B9A501818";
paths = (
{
closed = 1;
nodes = (
"314 700 OFFCURVE",
"216 577 OFFCURVE",
"216 390 CURVE",
"266 379 LINE",
"266 458 OFFCURVE",
"313 513 OFFCURVE",
"381 514 CURVE SMOOTH",
"445 514 OFFCURVE",
"482 466 OFFCURVE",
"482 394 CURVE SMOOTH",
"482 0 LINE",
"693 0 LINE",
"693 443 LINE SMOOTH",
"693 599 OFFCURVE",
"602 701 OFFCURVE",
"467 701 CURVE SMOOTH"
);
},
{
closed = 1;
nodes = (
"741 700 OFFCURVE",
"643 577 OFFCURVE",
"643 390 CURVE",
"693 379 LINE",
"693 458 OFFCURVE",
"740 513 OFFCURVE",
"808 514 CURVE SMOOTH",
"872 514 OFFCURVE",
"909 466 OFFCURVE",
"909 394 CURVE SMOOTH",
"909 0 LINE",
"1120 0 LINE",
"1120 443 LINE SMOOTH",
"1120 599 OFFCURVE",
"1029 701 OFFCURVE",
"894 701 CURVE SMOOTH"
);
},
{
closed = 1;
nodes = (
"59 701 LINE",
"59 0 LINE",
"267 0 LINE",
"267 701 LINE"
);
}
);
width = 1167;
}
);
leftKerningGroup = M.ss01;
leftMetricsKey = H;
rightKerningGroup = M.ss01;
rightMetricsKey = U;
},
{
glyphname = N.ss01;
layers = (
{
anchors = (
{
name = bottom;
position = "{382, 0}";
},
{
name = ogonek;
position = "{289, 10}";
},
{
name = top;
position = "{398, 701}";
}
);
layerId = "37E353DF-6BB3-462E-BD25-B39B9A501818";
paths = (
{
closed = 1;
nodes = (
"320 700 OFFCURVE",
"216 577 OFFCURVE",
"216 390 CURVE",
"267 379 LINE",
"267 459 OFFCURVE",
"318 513 OFFCURVE",
"396 514 CURVE SMOOTH",
"461 514 OFFCURVE",
"504 466 OFFCURVE",
"504 394 CURVE SMOOTH",
"504 0 LINE",
"715 0 LINE",
"715 443 LINE SMOOTH",
"715 599 OFFCURVE",
"621 701 OFFCURVE",
"478 701 CURVE SMOOTH"
);
},
{
closed = 1;
nodes = (
"59 701 LINE",
"59 0 LINE",
"267 0 LINE",
"267 701 LINE"
);
}
);
width = 762;
}
);
leftKerningGroup = N.ss01;
leftMetricsKey = H;
rightKerningGroup = N.ss01;
rightMetricsKey = U;
},
{
glyphname = Eng.ss01;
lastChange = "2016-05-14 08:45:31 +0000";
layers = (
{
anchors = (
{
name = bottom;
position = "{382, 0}";
},
{
name = ogonek;
position = "{289, 10}";
},
{
name = top;
position = "{398, 701}";
}
);
layerId = "37E353DF-6BB3-462E-BD25-B39B9A501818";
paths = (
{
closed = 1;
nodes = (
"504 -25 OFFCURVE",
"484 -45 OFFCURVE",
"448 -45 CURVE SMOOTH",
"423 -45 OFFCURVE",
"390 -35 OFFCURVE",
"354 -16 CURVE",
"286 -172 LINE",
"336 -203 OFFCURVE",
"393 -220 OFFCURVE",
"461 -220 CURVE SMOOTH",
"609 -220 OFFCURVE",
"708 -139 OFFCURVE",
"715 0 CURVE",
"504 14 LINE"
);
},
{
closed = 1;
nodes = (
"320 700 OFFCURVE",
"216 577 OFFCURVE",
"216 390 CURVE",
"267 379 LINE",
"267 459 OFFCURVE",
"318 513 OFFCURVE",
"396 514 CURVE SMOOTH",
"461 514 OFFCURVE",
"504 466 OFFCURVE",
"504 394 CURVE SMOOTH",
"504 0 LINE",
"715 0 LINE",
"715 443 LINE SMOOTH",
"715 599 OFFCURVE",
"621 701 OFFCURVE",
"478 701 CURVE SMOOTH"
);
},
{
closed = 1;
nodes = (
"59 701 LINE",
"59 0 LINE",
"267 0 LINE",
"267 701 LINE"
);
}
);
width = 763;
}
);
leftKerningGroup = H;
rightKerningGroup = H;
},
{
glyphname = Q.ss01;
layers = (
{
components = (
{
name = O;
}
);
layerId = "37E353DF-6BB3-462E-BD25-B39B9A501818";
paths = (
{
closed = 1;
nodes = (
"331 -118 LINE",
"463 -118 LINE",
"463 304 LINE",
"331 304 LINE"
);
}
);
width = 802;
}
);
leftKerningGroup = O;
leftMetricsKey = O;
rightKerningGroup = O;
rightMetricsKey = O;
},
{
glyphname = T.ss01;
layers = (
{
anchors = (
{
name = bottom;
position = "{331, 0}";
},
{
name = center;
position = "{350, 351}";
},
{
name = top;
position = "{350, 701}";
}
);
layerId = "37E353DF-6BB3-462E-BD25-B39B9A501818";
paths = (
{
closed = 1;
nodes = (
"225 710 OFFCURVE",
"110 681 OFFCURVE",
"14 628 CURVE",
"68 472 LINE",
"147 512 OFFCURVE",
"243 537 OFFCURVE",
"345 537 CURVE SMOOTH",
"446 537 OFFCURVE",
"541 513 OFFCURVE",
"623 472 CURVE",
"677 627 LINE",
"580 681 OFFCURVE",
"464 710 OFFCURVE",
"345 710 CURVE SMOOTH"
);
},
{
closed = 1;
nodes = (
"241 611 LINE",
"241 0 LINE",
"449 0 LINE",
"449 611 LINE"
);
}
);
width = 700;
}
);
leftKerningGroup = T;
rightKerningGroup = T;
},
{
glyphname = W.ss01;
layers = (
{
anchors = (
{
name = top;
position = "{580, 701}";
}
);
layerId = "37E353DF-6BB3-462E-BD25-B39B9A501818";
paths = (
{
closed = 1;
nodes = (
"904 701 LINE",
"904 281 LINE SMOOTH",
"904 213 OFFCURVE",
"861 165 OFFCURVE",
"797 165 CURVE SMOOTH",
"733 165 OFFCURVE",
"684 213 OFFCURVE",
"684 281 CURVE SMOOTH",
"684 701 LINE",
"476 701 LINE",
"476 281 LINE SMOOTH",
"475 213 OFFCURVE",
"430 165 OFFCURVE",
"367 165 CURVE SMOOTH",
"303 165 OFFCURVE",
"256 213 OFFCURVE",
"256 281 CURVE SMOOTH",
"256 701 LINE",
"48 701 LINE",
"48 281 LINE SMOOTH",
"48 112 OFFCURVE",
"168 -9 OFFCURVE",
"333 -9 CURVE SMOOTH",
"440 -9 OFFCURVE",
"534 42 OFFCURVE",
"581 113 CURVE",
"628 42 OFFCURVE",
"724 -9 OFFCURVE",
"830 -9 CURVE SMOOTH",
"993 -9 OFFCURVE",
"1112 112 OFFCURVE",
"1112 281 CURVE SMOOTH",
"1112 701 LINE"
);
}
);
width = 1159;
}
);
leftKerningGroup = W.ss01;
leftMetricsKey = U;
rightKerningGroup = W.ss01;
rightMetricsKey = U;
},
{
glyphname = Y.ss01;
layers = (
{
anchors = (
{
name = top;
position = "{372, 701}";
}
);
layerId = "37E353DF-6BB3-462E-BD25-B39B9A501818";
paths = (
{
closed = 1;
nodes = (
"443 153 OFFCURVE",
"539 270 OFFCURVE",
"539 450 CURVE",
"489 454 LINE",
"489 380 OFFCURVE",
"441 331 OFFCURVE",
"369 331 CURVE SMOOTH",
"300 331 OFFCURVE",
"256 375 OFFCURVE",
"256 442 CURVE SMOOTH",
"256 701 LINE",
"48 701 LINE",
"48 422 LINE SMOOTH",
"48 260 OFFCURVE",
"146 153 OFFCURVE",
"292 153 CURVE SMOOTH"
);
},
{
closed = 1;
nodes = (
"489 701 LINE",
"489 196 LINE SMOOTH",
"489 117 OFFCURVE",
"427 65 OFFCURVE",
"335 65 CURVE",
"271 65 OFFCURVE",
"192 90 OFFCURVE",
"137 128 CURVE",
"57 -11 LINE",
"130 -70 OFFCURVE",
"249 -109 OFFCURVE",
"362 -109 CURVE SMOOTH",
"563 -109 OFFCURVE",
"697 10 OFFCURVE",
"697 191 CURVE SMOOTH",
"697 701 LINE"
);
}
);
width = 744;
}
);
leftKerningGroup = Y.ss01;
leftMetricsKey = U;
rightKerningGroup = Y.ss01;
rightMetricsKey = J;
},
{
glyphname = Z.ss01;
layers = (
{
anchors = (
{
name = top;
position = "{340, 701}";
}
);
layerId = "37E353DF-6BB3-462E-BD25-B39B9A501818";
paths = (
{
closed = 1;
nodes = (
"101 426 LINE",
"101 297 LINE",
"379 297 LINE",
"379 426 LINE"
);
},
{
closed = 1;
nodes = (
"303 412 LINE",
"303 283 LINE",
"567 283 LINE",
"567 412 LINE"
);
},
{
closed = 1;
nodes = (
"36 701 LINE",
"36 539 LINE",
"372 539 LINE",
"24 131 LINE",
"24 0 LINE",
"656 0 LINE",
"656 162 LINE",
"302 162 LINE",
"650 569 LINE",
"650 701 LINE"
);
}
);
width = 679;
}
);
leftKerningGroup = Z.ss01;
leftMetricsKey = Z;
rightKerningGroup = Z.ss01;
rightMetricsKey = Z;
},
{
glyphname = a;
layers = (
{
anchors = (
{
name = ogonek;
position = "{584, 10}";
},
{
name = top;
position = "{304, 544}";
}
);
layerId = "37E353DF-6BB3-462E-BD25-B39B9A501818";
paths = (
{
closed = 1;
nodes = (
"231 552 OFFCURVE",
"144 532 OFFCURVE",
"55 496 CURVE",
"104 362 LINE",
"164 388 OFFCURVE",
"225 401 OFFCURVE",
"268 401 CURVE SMOOTH",
"330 401 OFFCURVE",
"362 374 OFFCURVE",
"362 329 CURVE",
"362 0 LINE",
"561 0 LINE",
"561 353 LINE SMOOTH",
"560 479 OFFCURVE",
"470 552 OFFCURVE",
"316 552 CURVE SMOOTH"
);
},
{
closed = 1;
nodes = (
"230 327 LINE SMOOTH",
"93 325 OFFCURVE",
"20 267 OFFCURVE",
"20 162 CURVE SMOOTH",
"20 60 OFFCURVE",
"88 -9 OFFCURVE",
"204 -9 CURVE SMOOTH",
"297 -9 OFFCURVE",
"360 33 OFFCURVE",
"388 107 CURVE",
"362 179 LINE",
"348 145 OFFCURVE",
"311 123 OFFCURVE",
"271 123 CURVE SMOOTH",
"232 123 OFFCURVE",
"209 143 OFFCURVE",
"209 177 CURVE SMOOTH",
"209 211 OFFCURVE",
"230 228 OFFCURVE",
"270 228 CURVE SMOOTH",
"380 228 LINE",
"380 327 LINE"
);
}
);
width = 607;
}
);
leftKerningGroup = a;
rightKerningGroup = n;
unicode = 0061;
},
{
glyphname = aogonek;
layers = (
{
layerId = "37E353DF-6BB3-462E-BD25-B39B9A501818";
paths = (
{
closed = 1;
nodes = (
"233 552 OFFCURVE",
"145 532 OFFCURVE",
"55 496 CURVE",
"104 362 LINE",
"165 388 OFFCURVE",
"227 401 OFFCURVE",
"271 401 CURVE SMOOTH",
"332 401 OFFCURVE",
"364 375 OFFCURVE",
"366 331 CURVE",
"366 327 LINE",
"231 327 LINE SMOOTH",
"94 325 OFFCURVE",
"20 267 OFFCURVE",
"20 162 CURVE SMOOTH",
"20 60 OFFCURVE",
"89 -10 OFFCURVE",
"205 -10 CURVE SMOOTH",
"278 -10 OFFCURVE",
"332 15 OFFCURVE",
"366 61 CURVE",
"366 0 LINE",
"425 0 LINE",
"399 -38 OFFCURVE",
"380 -78 OFFCURVE",
"380 -118 CURVE SMOOTH",
"380 -184 OFFCURVE",
"431 -203 OFFCURVE",
"472 -203 CURVE SMOOTH",
"519 -203 OFFCURVE",
"560 -179 OFFCURVE",
"587 -132 CURVE",
"537 -73 LINE",
"525 -92 OFFCURVE",
"511 -104 OFFCURVE",
"497 -104 CURVE SMOOTH",
"487 -104 OFFCURVE",
"480 -97 OFFCURVE",
"480 -85 CURVE SMOOTH",
"480 -67 OFFCURVE",
"496 -36 OFFCURVE",
"521 0 CURVE",
"565 0 LINE",
"565 353 LINE SMOOTH",
"564 479 OFFCURVE",
"473 552 OFFCURVE",
"318 552 CURVE SMOOTH"
);
},
{
closed = 1;
nodes = (
"367 178 LINE",
"351 145 OFFCURVE",
"313 123 OFFCURVE",
"273 123 CURVE SMOOTH",
"233 123 OFFCURVE",
"210 143 OFFCURVE",
"210 177 CURVE SMOOTH",
"210 211 OFFCURVE",
"231 228 OFFCURVE",
"273 228 CURVE SMOOTH",
"367 228 LINE"
);
}
);
width = 612;
}
);
leftKerningGroup = a;
rightKerningGroup = n;
unicode = 0105;
},
{
glyphname = ae;
layers = (
{
anchors = (
{
name = top;
position = "{482, 544}";
}
);
layerId = "37E353DF-6BB3-462E-BD25-B39B9A501818";
paths = (
{
closed = 0;
nodes = (
"555 124 LINE"
);
},
{
closed = 1;
nodes = (
"237 552 OFFCURVE",
"145 532 OFFCURVE",
"55 497 CURVE",
"101 362 LINE",
"162 387 OFFCURVE",
"225 401 OFFCURVE",
"270 401 CURVE SMOOTH",
"332 401 OFFCURVE",
"365 374 OFFCURVE",
"365 329 CURVE",
"365 153 LINE",
"564 106 LINE",
"563 353 LINE SMOOTH",
"563 479 OFFCURVE",
"472 552 OFFCURVE",
"317 552 CURVE SMOOTH"
);
},
{
closed = 1;
nodes = (
"231 324 LINE SMOOTH",
"94 322 OFFCURVE",
"20 266 OFFCURVE",
"20 161 CURVE SMOOTH",
"20 59 OFFCURVE",
"95 -10 OFFCURVE",
"221 -10 CURVE SMOOTH",
"339 -10 OFFCURVE",
"419 42 OFFCURVE",
"455 131 CURVE",
"367 178 LINE",
"345 139 OFFCURVE",
"309 120 OFFCURVE",
"272 120 CURVE SMOOTH",
"233 120 OFFCURVE",
"209 142 OFFCURVE",
"209 177 CURVE SMOOTH",
"209 211 OFFCURVE",
"232 229 OFFCURVE",
"272 229 CURVE SMOOTH",
"383 229 LINE",
"383 324 LINE"
);
},
{
closed = 1;
nodes = (
"537 227 LINE",
"942 227 LINE",
"952 423 OFFCURVE",
"842 551 OFFCURVE",
"656 551 CURVE SMOOTH",
"493 551 OFFCURVE",
"395 440 OFFCURVE",
"395 270 CURVE SMOOTH",
"395 103 OFFCURVE",
"489 -7 OFFCURVE",
"661 -7 CURVE SMOOTH",
"765 -7 OFFCURVE",
"847 28 OFFCURVE",
"904 91 CURVE",
"799 194 LINE",
"764 161 OFFCURVE",
"722 142 OFFCURVE",
"679 142 CURVE SMOOTH",
"609 142 OFFCURVE",
"564 193 OFFCURVE",
"564 281 CURVE SMOOTH",
"564 357 OFFCURVE",
"598 415 OFFCURVE",
"657 415 CURVE SMOOTH",
"707 415 OFFCURVE",
"741 376 OFFCURVE",
"740 322 CURVE",
"537 322 LINE"
);
}
);
width = 963;
}
);
leftKerningGroup = a;
leftMetricsKey = a;
rightKerningGroup = e;
rightMetricsKey = e;
unicode = 00E6;
},
{
glyphname = b;
layers = (
{
layerId = "37E353DF-6BB3-462E-BD25-B39B9A501818";
paths = (
{
closed = 1;
nodes = (
"66 742 LINE",
"66 0 LINE",
"268 0 LINE",
"268 742 LINE"
);
},
{
closed = 1;
nodes = (
"287 551 OFFCURVE",
"205 441 OFFCURVE",
"205 270 CURVE",
"205 101 OFFCURVE",
"289 -7 OFFCURVE",
"422 -7 CURVE SMOOTH",
"571 -7 OFFCURVE",
"668 102 OFFCURVE",
"668 269 CURVE SMOOTH",
"668 439 OFFCURVE",
"568 551 OFFCURVE",
"417 551 CURVE SMOOTH"
);
},
{
closed = 1;
nodes = (
"425 395 OFFCURVE",
"465 346 OFFCURVE",
"465 274 CURVE SMOOTH",
"465 202 OFFCURVE",
"425 153 OFFCURVE",
"366 153 CURVE SMOOTH",
"307 153 OFFCURVE",
"268 202 OFFCURVE",
"268 274 CURVE SMOOTH",
"268 346 OFFCURVE",
"307 395 OFFCURVE",
"366 395 CURVE SMOOTH"
);
}
);
width = 688;
}
);
leftKerningGroup = h;
rightKerningGroup = o;
unicode = 0062;
},
{
glyphname = c;
layers = (
{
anchors = (
{
name = bottom;
position = "{290, 0}";
},
{
name = top;
position = "{296, 544}";
}
);
layerId = "37E353DF-6BB3-462E-BD25-B39B9A501818";
paths = (
{
closed = 1;
nodes = (
"132 551 OFFCURVE",
"19 439 OFFCURVE",
"19 270 CURVE SMOOTH",
"19 103 OFFCURVE",
"131 -7 OFFCURVE",
"302 -7 CURVE SMOOTH",
"422 -7 OFFCURVE",
"514 44 OFFCURVE",
"556 134 CURVE",
"398 213 LINE",
"381 172 OFFCURVE",
"352 153 OFFCURVE",
"313 153 CURVE SMOOTH",
"258 153 OFFCURVE",
"223 200 OFFCURVE",
"223 271 CURVE SMOOTH",
"223 340 OFFCURVE",
"258 387 OFFCURVE",
"313 387 CURVE SMOOTH",
"351 387 OFFCURVE",
"381 367 OFFCURVE",
"400 333 CURVE",
"554 409 LINE",
"509 499 OFFCURVE",
"418 551 OFFCURVE",
"304 551 CURVE SMOOTH"
);
}
);
width = 562;
}
);
leftKerningGroup = o;
rightKerningGroup = c;
unicode = 0063;
},
{
glyphname = d;
layers = (
{
anchors = (
{
name = center;
position = "{-16, 0}";
}
);
layerId = "37E353DF-6BB3-462E-BD25-B39B9A501818";
paths = (
{
closed = 0;
nodes = (
"431 264 LINE"
);
},
{
closed = 1;
nodes = (
"116 551 OFFCURVE",
"19 442 OFFCURVE",
"19 275 CURVE SMOOTH",
"19 104 OFFCURVE",
"119 -7 OFFCURVE",
"271 -7 CURVE SMOOTH",
"401 -7 OFFCURVE",
"483 103 OFFCURVE",
"482 274 CURVE",
"483 443 OFFCURVE",
"398 551 OFFCURVE",
"266 551 CURVE SMOOTH"
);
},
{
closed = 1;
nodes = (
"381 391 OFFCURVE",
"420 342 OFFCURVE",
"420 270 CURVE SMOOTH",
"420 197 OFFCURVE",
"381 148 OFFCURVE",
"322 148 CURVE SMOOTH",
"262 148 OFFCURVE",
"223 197 OFFCURVE",
"223 270 CURVE SMOOTH",
"223 342 OFFCURVE",
"263 391 OFFCURVE",
"322 391 CURVE SMOOTH"
);
},
{
closed = 1;
nodes = (
"420 742 LINE",
"420 0 LINE",
"622 0 LINE",
"622 742 LINE"
);
}
);
width = 688;
}
);
leftKerningGroup = o;
rightKerningGroup = l;
unicode = 0064;
},
{
glyphname = eth;
layers = (
{
layerId = "37E353DF-6BB3-462E-BD25-B39B9A501818";
paths = (
{
closed = 1;
nodes = (
"92 670 LINE",
"238 606 OFFCURVE",
"357 499 OFFCURVE",
"394 398 CURVE",
"362 428 OFFCURVE",
"302 447 OFFCURVE",
"242 447 CURVE SMOOTH",
"104 447 OFFCURVE",
"15 360 OFFCURVE",
"15 226 CURVE SMOOTH",
"15 83 OFFCURVE",
"121 -9 OFFCURVE",
"284 -9 CURVE SMOOTH",
"471 -9 OFFCURVE",
"593 110 OFFCURVE",
"593 294 CURVE SMOOTH",
"593 492 OFFCURVE",
"449 670 OFFCURVE",
"228 751 CURVE"
);
},
{
closed = 1;
nodes = (
"343 313 OFFCURVE",
"376 282 OFFCURVE",
"376 235 CURVE SMOOTH",
"376 187 OFFCURVE",
"343 157 OFFCURVE",
"292 157 CURVE SMOOTH",
"241 157 OFFCURVE",
"208 188 OFFCURVE",
"208 236 CURVE SMOOTH",
"208 283 OFFCURVE",
"240 313 OFFCURVE",
"291 313 CURVE SMOOTH"
);
},
{
closed = 1;
nodes = (
"105 561 LINE",
"136 470 LINE",
"573 619 LINE",
"543 711 LINE"
);
}
);
width = 612;
}
);
leftKerningGroup = o;
rightKerningGroup = O;
rightMetricsKey = O;
unicode = 00F0;
},
{
glyphname = dcroat;
layers = (
{
components = (
{
name = d;
}
);
layerId = "37E353DF-6BB3-462E-BD25-B39B9A501818";
paths = (
{
closed = 1;
nodes = (
"342 686 LINE",
"342 583 LINE",
"686 583 LINE",
"686 686 LINE"
);
}
);
width = 697;
}
);
leftKerningGroup = o;
rightKerningGroup = l;
unicode = 0111;
},
{
glyphname = e;
layers = (
{
anchors = (
{
name = bottom;
position = "{306, 0}";
},
{
name = ogonek;
position = "{547, 10}";
},
{
name = top;
position = "{302, 544}";
}
);
layerId = "37E353DF-6BB3-462E-BD25-B39B9A501818";
paths = (
{
closed = 1;
nodes = (
"188 223 LINE",
"588 223 LINE",
"601 423 OFFCURVE",
"496 551 OFFCURVE",
"306 551 CURVE SMOOTH",
"134 551 OFFCURVE",
"19 440 OFFCURVE",
"19 270 CURVE SMOOTH",
"19 103 OFFCURVE",
"129 -7 OFFCURVE",
"311 -7 CURVE SMOOTH",
"415 -7 OFFCURVE",
"497 28 OFFCURVE",
"554 91 CURVE",
"448 194 LINE",
"413 161 OFFCURVE",
"371 142 OFFCURVE",
"329 142 CURVE SMOOTH",
"260 142 OFFCURVE",
"215 193 OFFCURVE",
"215 281 CURVE SMOOTH",
"215 357 OFFCURVE",
"248 414 OFFCURVE",
"308 414 CURVE SMOOTH",
"357 414 OFFCURVE",
"391 376 OFFCURVE",
"390 322 CURVE",
"188 322 LINE"
);
}
);
width = 609;
}
);
leftKerningGroup = o;
rightKerningGroup = o;
unicode = 0065;
},
{
glyphname = eogonek;
layers = (
{
layerId = "37E353DF-6BB3-462E-BD25-B39B9A501818";
paths = (
{
closed = 1;
nodes = (
"131 550 OFFCURVE",
"19 438 OFFCURVE",
"19 270 CURVE SMOOTH",
"19 103 OFFCURVE",
"130 -7 OFFCURVE",
"311 -7 CURVE SMOOTH",
"339 -7 OFFCURVE",
"367 -1 OFFCURVE",
"393 10 CURVE",
"363 -31 OFFCURVE",
"342 -75 OFFCURVE",
"342 -117 CURVE SMOOTH",
"342 -184 OFFCURVE",
"393 -203 OFFCURVE",
"434 -203 CURVE SMOOTH",
"481 -203 OFFCURVE",
"521 -179 OFFCURVE",
"548 -132 CURVE",
"498 -73 LINE",
"486 -92 OFFCURVE",
"473 -104 OFFCURVE",
"459 -104 CURVE SMOOTH",
"449 -104 OFFCURVE",
"442 -97 OFFCURVE",
"442 -84 CURVE SMOOTH",
"442 -38 OFFCURVE",
"514 46 OFFCURVE",
"554 91 CURVE",
"448 194 LINE",
"413 161 OFFCURVE",
"371 142 OFFCURVE",
"329 142 CURVE SMOOTH",
"276 142 OFFCURVE",
"239 171 OFFCURVE",
"223 223 CURVE",
"589 223 LINE",
"601 424 OFFCURVE",
"494 552 OFFCURVE",
"306 551 CURVE SMOOTH"
);
},
{
closed = 1;
nodes = (
"358 414 OFFCURVE",
"392 376 OFFCURVE",
"390 322 CURVE",
"219 322 LINE",
"228 376 OFFCURVE",
"261 414 OFFCURVE",
"309 414 CURVE SMOOTH"
);
}
);
width = 609;
}
);
leftKerningGroup = o;
rightKerningGroup = e;
unicode = 0119;
},
{
glyphname = f;
layers = (
{
layerId = "37E353DF-6BB3-462E-BD25-B39B9A501818";
paths = (
{
closed = 1;
nodes = (
"187 752 OFFCURVE",
"98 682 OFFCURVE",
"98 566 CURVE SMOOTH",
"98 0 LINE",
"299 0 LINE",
"299 542 LINE",
"299 575 OFFCURVE",
"322 594 OFFCURVE",
"355 594 CURVE",
"373 594 OFFCURVE",
"396 586 OFFCURVE",
"414 573 CURVE",
"482 712 LINE",
"439 737 OFFCURVE",
"374 751 OFFCURVE",
"316 751 CURVE"
);
},
{
closed = 1;
nodes = (
"24 516 LINE",
"24 387 LINE",
"412 387 LINE",
"412 516 LINE"
);
}
);
width = 409;
}
);
leftKerningGroup = f;
rightKerningGroup = f;
unicode = 0066;
},
{
glyphname = g;
layers = (
{
anchors = (
{
name = top;
position = "{326, 544}";
}
);
layerId = "37E353DF-6BB3-462E-BD25-B39B9A501818";
paths = (
{
closed = 1;
nodes = (
"392 544 LINE",
"392 41 LINE SMOOTH",
"392 -12 OFFCURVE",
"350 -46 OFFCURVE",
"276 -46 CURVE SMOOTH",
"221 -46 OFFCURVE",
"158 -28 OFFCURVE",
"109 4 CURVE",
"43 -132 LINE",
"102 -171 OFFCURVE",
"193 -203 OFFCURVE",
"293 -203 CURVE SMOOTH",
"471 -203 OFFCURVE",
"593 -106 OFFCURVE",
"593 47 CURVE SMOOTH",
"593 544 LINE"
);
},
{
closed = 1;
nodes = (
"112 551 OFFCURVE",
"19 449 OFFCURVE",
"19 294 CURVE SMOOTH",
"19 135 OFFCURVE",
"115 31 OFFCURVE",
"247 31 CURVE SMOOTH",
"377 31 OFFCURVE",
"451 133 OFFCURVE",
"450 293 CURVE",
"451 450 OFFCURVE",
"374 551 OFFCURVE",
"243 551 CURVE SMOOTH"
);
},
{
closed = 1;
nodes = (
"356 402 OFFCURVE",
"393 357 OFFCURVE",
"393 288 CURVE SMOOTH",
"393 221 OFFCURVE",
"356 176 OFFCURVE",
"301 176 CURVE SMOOTH",
"245 176 OFFCURVE",
"208 221 OFFCURVE",
"208 288 CURVE SMOOTH",
"208 356 OFFCURVE",
"245 402 OFFCURVE",
"301 402 CURVE SMOOTH"
);
}
);
width = 651;
}
);
leftKerningGroup = o;
rightKerningGroup = j;
unicode = 0067;
},
{
glyphname = h;
layers = (
{
anchors = (
{
name = bottom;
position = "{667, 0}";
},
{
name = center;
position = "{338, 272}";
},
{
name = top;
position = "{162, 742}";
},
{
name = topright;
position = "{304, 544}";
}
);
layerId = "37E353DF-6BB3-462E-BD25-B39B9A501818";
paths = (
{
closed = 1;
nodes = (
"637 0 LINE",
"637 345 LINE SMOOTH",
"637 471 OFFCURVE",
"558 552 OFFCURVE",
"441 552 CURVE SMOOTH",
"304 552 OFFCURVE",
"222 448 OFFCURVE",
"222 269 CURVE",
"268 269 LINE",
"268 331 OFFCURVE",
"302 374 OFFCURVE",
"357 375 CURVE SMOOTH",
"405 375 OFFCURVE",
"435 341 OFFCURVE",
"435 287 CURVE SMOOTH",
"435 0 LINE"
);
},
{
closed = 1;
nodes = (
"268 0 LINE",
"268 742 LINE",
"66 742 LINE",
"66 0 LINE"
);
}
);
width = 683;
}
);
leftKerningGroup = h;
rightKerningGroup = n;
unicode = 0068;
},
{
glyphname = hbar;
layers = (
{
components = (
{
name = h;
}
);
layerId = "37E353DF-6BB3-462E-BD25-B39B9A501818";
paths = (
{
closed = 1;
nodes = (
"-12 677 LINE",
"-12 569 LINE",
"374 569 LINE",
"374 677 LINE"
);
}
);
width = 706;
}
);
leftKerningGroup = h;
rightKerningGroup = n;
unicode = 0127;
},
{
glyphname = i;
layers = (
{
anchors = (
{
name = _top;
position = "{163, 544}";
},
{
name = ogonek;
position = "{282, 10}";
},
{
name = top;
position = "{163, 544}";
}
);
layerId = "37E353DF-6BB3-462E-BD25-B39B9A501818";
paths = (
{
closed = 1;
nodes = (
"61 544 LINE",
"61 0 LINE",
"263 0 LINE",
"263 544 LINE"
);
},
{
closed = 1;
nodes = (
"102 803 OFFCURVE",
"59 760 OFFCURVE",
"59 699 CURVE SMOOTH",
"59 638 OFFCURVE",
"102 595 OFFCURVE",
"163 595 CURVE SMOOTH",
"224 595 OFFCURVE",
"267 638 OFFCURVE",
"267 699 CURVE SMOOTH",
"267 760 OFFCURVE",
"224 803 OFFCURVE",
"163 803 CURVE SMOOTH"
);
}
);
width = 324;
}
);
leftKerningGroup = dotlessi;
rightKerningGroup = dotlessi;
unicode = 0069;
},
{
glyphname = idotless;
layers = (
{
anchors = (
{
name = ogonek;
position = "{282, 10}";
},
{
name = top;
position = "{163, 544}";
}
);
layerId = "37E353DF-6BB3-462E-BD25-B39B9A501818";
paths = (
{
closed = 1;
nodes = (
"61 544 LINE",
"61 0 LINE",
"263 0 LINE",
"263 544 LINE"
);
}
);
width = 324;
}
);
leftKerningGroup = i;
rightKerningGroup = i;
unicode = 0131;
},
{
glyphname = iogonek;
layers = (
{
layerId = "37E353DF-6BB3-462E-BD25-B39B9A501818";
paths = (
{
closed = 1;
nodes = (
"50 544 LINE",
"50 0 LINE",
"107 0 LINE",
"81 -39 OFFCURVE",
"62 -78 OFFCURVE",
"62 -118 CURVE SMOOTH",
"62 -184 OFFCURVE",
"113 -203 OFFCURVE",
"155 -203 CURVE SMOOTH",
"201 -203 OFFCURVE",
"243 -179 OFFCURVE",
"270 -132 CURVE",
"219 -73 LINE",
"207 -92 OFFCURVE",
"194 -104 OFFCURVE",
"180 -104 CURVE SMOOTH",
"170 -104 OFFCURVE",
"162 -97 OFFCURVE",
"162 -85 CURVE SMOOTH",
"162 -67 OFFCURVE",
"178 -36 OFFCURVE",
"203 0 CURVE",
"252 0 LINE",
"252 544 LINE"
);
},
{
closed = 1;
nodes = (
"90 803 OFFCURVE",
"47 760 OFFCURVE",
"47 699 CURVE SMOOTH",
"47 638 OFFCURVE",
"90 595 OFFCURVE",
"151 595 CURVE SMOOTH",
"212 595 OFFCURVE",
"255 638 OFFCURVE",
"255 699 CURVE SMOOTH",
"255 760 OFFCURVE",
"212 803 OFFCURVE",
"151 803 CURVE SMOOTH"
);
}
);
width = 302;
}
);
leftKerningGroup = i;
rightKerningGroup = i;
unicode = 012F;
},
{
glyphname = j;
layers = (
{
layerId = "37E353DF-6BB3-462E-BD25-B39B9A501818";
paths = (
{
closed = 1;
nodes = (
"65 544 LINE",
"65 7 LINE",
"65 -28 OFFCURVE",
"46 -45 OFFCURVE",
"17 -45 CURVE",
"-2 -45 OFFCURVE",
"-21 -39 OFFCURVE",
"-41 -28 CURVE",
"-88 -168 LINE",
"-48 -190 OFFCURVE",
"3 -202 OFFCURVE",
"59 -202 CURVE",
"181 -203 OFFCURVE",
"267 -134 OFFCURVE",
"267 -17 CURVE",
"267 544 LINE"
);
},
{
closed = 1;
nodes = (
"101 803 OFFCURVE",
"54 760 OFFCURVE",
"54 699 CURVE SMOOTH",
"54 638 OFFCURVE",
"101 595 OFFCURVE",
"166 595 CURVE SMOOTH",
"232 595 OFFCURVE",
"278 638 OFFCURVE",
"278 699 CURVE SMOOTH",
"278 760 OFFCURVE",
"232 803 OFFCURVE",
"166 803 CURVE SMOOTH"
);
}
);
width = 335;
}
);
leftKerningGroup = j;
rightKerningGroup = j;
unicode = 006A;
},
{
glyphname = jdotless;
layers = (
{
anchors = (
{
name = top;
position = "{158, 544}";
}
);
layerId = "37E353DF-6BB3-462E-BD25-B39B9A501818";
paths = (
{
closed = 1;
nodes = (
"65 544 LINE",
"65 12 LINE",
"65 -27 OFFCURVE",
"47 -46 OFFCURVE",
"15 -45 CURVE",
"-5 -45 OFFCURVE",
"-24 -40 OFFCURVE",
"-44 -29 CURVE",
"-90 -168 LINE",
"-48 -190 OFFCURVE",
"4 -202 OFFCURVE",
"61 -202 CURVE",
"187 -203 OFFCURVE",
"267 -133 OFFCURVE",
"267 -18 CURVE",
"267 544 LINE"
);
}
);
width = 324;
}
);
leftKerningGroup = j;
rightKerningGroup = j;
rightMetricsKey = i;
unicode = 0237;
},
{
glyphname = k;
layers = (
{
anchors = (
{
name = bottom;
position = "{139, 0}";
},
{
name = top;
position = "{168, 742}";
},
{
name = topright;
position = "{305, 544}";
}
);
layerId = "37E353DF-6BB3-462E-BD25-B39B9A501818";
paths = (
{
closed = 0;
nodes = (
"230 111 LINE"
);
},
{
closed = 1;
nodes = (
"66 742 LINE",
"66 0 LINE",
"268 0 LINE",
"268 742 LINE"
);
},
{
closed = 1;
nodes = (
"417 544 LINE",
"258 370 LINE",
"258 135 LINE",
"646 544 LINE"
);
},
{
closed = 1;
nodes = (
"285 234 LINE",
"407 0 LINE",
"647 0 LINE",
"434 356 LINE"
);
}
);
width = 648;
}
);
leftKerningGroup = h;
rightKerningGroup = x;
unicode = 006B;
},
{
glyphname = kgreenlandic;
layers = (
{
anchors = (
{
name = bottom;
position = "{317, 0}";
},
{
name = ogonek;
position = "{282, 10}";
},
{
name = top;
position = "{163, 544}";
}
);
layerId = "37E353DF-6BB3-462E-BD25-B39B9A501818";
paths = (
{
closed = 0;
nodes = (
"230 111 LINE"
);
},
{
closed = 1;
nodes = (
"61 544 LINE",
"61 0 LINE",
"263 0 LINE",
"263 544 LINE"
);
},
{
closed = 1;
nodes = (
"411 544 LINE",
"252 370 LINE",
"252 135 LINE",
"640 544 LINE"
);
},
{
closed = 1;
nodes = (
"279 234 LINE",
"401 0 LINE",
"641 0 LINE",
"428 356 LINE"
);
}
);
width = 642;
}
);
leftKerningGroup = h;
leftMetricsKey = n;
rightKerningGroup = k;
rightMetricsKey = k;
unicode = 0138;
},
{
glyphname = l;
layers = (
{
anchors = (
{
name = bottom;
position = "{168, 0}";
},
{
name = top;
position = "{168, 742}";
},
{
name = topright;
position = "{305, 544}";
}
);
layerId = "37E353DF-6BB3-462E-BD25-B39B9A501818";
paths = (
{
closed = 1;
nodes = (
"66 742 LINE",
"66 0 LINE",
"268 0 LINE",
"268 742 LINE"
);
}
);
width = 335;
}
);
leftKerningGroup = h;
rightKerningGroup = l;
unicode = 006C;
},
{
glyphname = ldot;
layers = (
{
components = (
{
name = l;
}
);
layerId = "37E353DF-6BB3-462E-BD25-B39B9A501818";
paths = (
{
closed = 1;
nodes = (
"325 407 OFFCURVE",
"286 369 OFFCURVE",
"286 313 CURVE SMOOTH",
"286 258 OFFCURVE",
"325 220 OFFCURVE",
"380 220 CURVE SMOOTH",
"435 220 OFFCURVE",
"474 258 OFFCURVE",
"474 313 CURVE SMOOTH",
"474 369 OFFCURVE",
"435 407 OFFCURVE",
"380 407 CURVE SMOOTH"
);
}
);
width = 430;
}
);
leftKerningGroup = h;
leftMetricsKey = l;
rightKerningGroup = l;
unicode = 0140;
},
{
glyphname = lslash;
layers = (
{
components = (
{
name = l;
transform = "{1, 0, 0, 1, 27, 0}";
}
);
layerId = "37E353DF-6BB3-462E-BD25-B39B9A501818";
paths = (
{
closed = 1;
nodes = (
"-35 426 LINE",
"-1 305 LINE",
"406 422 LINE",
"371 544 LINE"
);
}
);
width = 370;
}
);
leftKerningGroup = lslash;
rightKerningGroup = lslash;
unicode = 0142;
},
{
glyphname = m;
layers = (
{
layerId = "37E353DF-6BB3-462E-BD25-B39B9A501818";
paths = (
{
closed = 1;
nodes = (
"61 544 LINE",
"61 0 LINE",
"263 0 LINE",
"263 544 LINE"
);
},
{
closed = 1;
nodes = (
"298 552 OFFCURVE",
"217 448 OFFCURVE",
"217 269 CURVE",
"263 269 LINE",
"263 331 OFFCURVE",
"296 374 OFFCURVE",
"349 375 CURVE SMOOTH",
"394 375 OFFCURVE",
"424 341 OFFCURVE",
"424 287 CURVE SMOOTH",
"424 0 LINE",
"626 0 LINE",
"626 345 LINE SMOOTH",
"626 471 OFFCURVE",
"547 552 OFFCURVE",
"433 552 CURVE SMOOTH"
);
},
{
closed = 1;
nodes = (
"660 552 OFFCURVE",
"579 448 OFFCURVE",
"579 269 CURVE",
"625 269 LINE",
"625 331 OFFCURVE",
"658 374 OFFCURVE",
"711 375 CURVE SMOOTH",
"756 375 OFFCURVE",
"786 341 OFFCURVE",
"786 287 CURVE SMOOTH",
"786 0 LINE",
"988 0 LINE",
"988 345 LINE SMOOTH",
"988 471 OFFCURVE",
"909 552 OFFCURVE",
"795 552 CURVE SMOOTH"
);
}
);
width = 1034;
}
);
leftKerningGroup = n;
rightKerningGroup = n;
unicode = 006D;
},
{
glyphname = n;
lastChange = "2016-05-14 08:45:31 +0000";
layers = (
{
anchors = (
{
name = bottom;
position = "{345, 0}";
},
{
name = top;
position = "{357, 544}";
}
);
layerId = "37E353DF-6BB3-462E-BD25-B39B9A501818";
paths = (
{
closed = 1;
nodes = (
"61 544 LINE",
"61 0 LINE",
"263 0 LINE",
"263 544 LINE"
);
},
{
closed = 1;
nodes = (
"299 552 OFFCURVE",
"217 448 OFFCURVE",
"217 269 CURVE",
"263 269 LINE",
"263 331 OFFCURVE",
"297 374 OFFCURVE",
"352 375 CURVE SMOOTH",
"400 375 OFFCURVE",
"430 341 OFFCURVE",
"430 287 CURVE SMOOTH",
"430 0 LINE",
"632 0 LINE",
"632 345 LINE SMOOTH",
"632 471 OFFCURVE",
"553 552 OFFCURVE",
"436 552 CURVE SMOOTH"
);
}
);
width = 678;
}
);
leftKerningGroup = n;
rightKerningGroup = n;
unicode = 006E;
},
{
glyphname = eng;
layers = (
{
anchors = (
{
name = bottom;
position = "{345, 0}";
},
{
name = top;
position = "{357, 544}";
}
);
layerId = "37E353DF-6BB3-462E-BD25-B39B9A501818";
paths = (
{
closed = 1;
nodes = (
"299 552 OFFCURVE",
"217 448 OFFCURVE",
"217 269 CURVE",
"263 269 LINE",
"263 331 OFFCURVE",
"297 374 OFFCURVE",
"352 375 CURVE SMOOTH",
"400 375 OFFCURVE",
"430 341 OFFCURVE",
"430 287 CURVE SMOOTH",
"430 7 LINE SMOOTH",
"430 -28 OFFCURVE",
"412 -45 OFFCURVE",
"382 -45 CURVE",
"363 -45 OFFCURVE",
"344 -39 OFFCURVE",
"324 -28 CURVE",
"277 -168 LINE",
"317 -190 OFFCURVE",
"369 -202 OFFCURVE",
"424 -202 CURVE SMOOTH",
"547 -203 OFFCURVE",
"632 -134 OFFCURVE",
"632 -21 CURVE SMOOTH",
"632 345 LINE SMOOTH",
"632 471 OFFCURVE",
"553 552 OFFCURVE",
"436 552 CURVE SMOOTH"
);
},
{
closed = 1;
nodes = (
"61 544 LINE",
"61 0 LINE",
"263 0 LINE",
"263 544 LINE"
);
}
);
width = 678;
}
);
leftKerningGroup = i;
rightKerningGroup = i;
unicode = 014B;
},
{
glyphname = o;
layers = (
{
anchors = (
{
name = top;
position = "{322, 544}";
}
);
layerId = "37E353DF-6BB3-462E-BD25-B39B9A501818";
paths = (
{
closed = 1;
nodes = (
"138 551 OFFCURVE",
"19 441 OFFCURVE",
"19 272 CURVE SMOOTH",
"19 104 OFFCURVE",
"138 -7 OFFCURVE",
"321 -7 CURVE SMOOTH",
"504 -7 OFFCURVE",
"624 104 OFFCURVE",
"624 272 CURVE SMOOTH",
"624 441 OFFCURVE",
"504 551 OFFCURVE",
"321 551 CURVE SMOOTH"
);
},
{
closed = 1;
nodes = (
"381 391 OFFCURVE",
"421 342 OFFCURVE",
"421 270 CURVE SMOOTH",
"421 197 OFFCURVE",
"381 149 OFFCURVE",
"322 149 CURVE SMOOTH",
"262 149 OFFCURVE",
"223 197 OFFCURVE",
"223 270 CURVE SMOOTH",
"223 342 OFFCURVE",
"262 391 OFFCURVE",
"322 391 CURVE SMOOTH"
);
}
);
width = 643;
}
);
leftKerningGroup = o;
rightKerningGroup = o;
unicode = 006F;
},
{
glyphname = oslash;
layers = (
{
anchors = (
{
name = top;
position = "{322, 544}";
}
);
layerId = "37E353DF-6BB3-462E-BD25-B39B9A501818";
paths = (
{
closed = 1;
nodes = (
"414 674 LINE",
"148 -140 LINE",
"228 -140 LINE",
"494 674 LINE"
);
},
{
closed = 1;
nodes = (
"138 551 OFFCURVE",
"19 441 OFFCURVE",
"19 272 CURVE SMOOTH",
"19 104 OFFCURVE",
"138 -7 OFFCURVE",
"321 -7 CURVE SMOOTH",
"504 -7 OFFCURVE",
"624 104 OFFCURVE",
"624 272 CURVE SMOOTH",
"624 441 OFFCURVE",
"504 551 OFFCURVE",
"321 551 CURVE SMOOTH"
);
},
{
closed = 1;
nodes = (
"390 407 OFFCURVE",
"434 353 OFFCURVE",
"434 270 CURVE SMOOTH",
"434 186 OFFCURVE",
"390 132 OFFCURVE",
"322 132 CURVE SMOOTH",
"255 132 OFFCURVE",
"210 186 OFFCURVE",
"210 270 CURVE SMOOTH",
"210 353 OFFCURVE",
"255 407 OFFCURVE",
"322 407 CURVE SMOOTH"
);
}
);
width = 643;
}
);
leftKerningGroup = o;
leftMetricsKey = o;
rightKerningGroup = o;
rightMetricsKey = o;
unicode = 00F8;
},
{
glyphname = oe;
layers = (
{
anchors = (
{
name = top;
position = "{509, 544}";
}
);
layerId = "37E353DF-6BB3-462E-BD25-B39B9A501818";
paths = (
{
closed = 0;
nodes = (
"324 234 LINE"
);
},
{
closed = 1;
nodes = (
"138 551 OFFCURVE",
"19 441 OFFCURVE",
"19 272 CURVE SMOOTH",
"19 104 OFFCURVE",
"138 -7 OFFCURVE",
"321 -7 CURVE SMOOTH",
"489 -7 OFFCURVE",
"580 104 OFFCURVE",
"580 272 CURVE SMOOTH",
"580 441 OFFCURVE",
"489 551 OFFCURVE",
"321 551 CURVE SMOOTH"
);
},
{
closed = 1;
nodes = (
"381 391 OFFCURVE",
"421 342 OFFCURVE",
"421 270 CURVE SMOOTH",
"421 197 OFFCURVE",
"381 149 OFFCURVE",
"322 149 CURVE SMOOTH",
"262 149 OFFCURVE",
"223 197 OFFCURVE",
"223 270 CURVE SMOOTH",
"223 342 OFFCURVE",
"262 391 OFFCURVE",
"322 391 CURVE SMOOTH"
);
},
{
closed = 1;
nodes = (
"581 227 LINE",
"988 227 LINE",
"999 423 OFFCURVE",
"887 551 OFFCURVE",
"701 551 CURVE SMOOTH",
"543 551 OFFCURVE",
"456 440 OFFCURVE",
"456 270 CURVE SMOOTH",
"456 103 OFFCURVE",
"539 -7 OFFCURVE",
"706 -7 CURVE SMOOTH",
"810 -7 OFFCURVE",
"892 28 OFFCURVE",
"950 91 CURVE",
"845 194 LINE",
"809 161 OFFCURVE",
"767 142 OFFCURVE",
"724 142 CURVE SMOOTH",
"654 142 OFFCURVE",
"607 193 OFFCURVE",
"607 281 CURVE SMOOTH",
"607 357 OFFCURVE",
"642 415 OFFCURVE",
"703 415 CURVE SMOOTH",
"752 415 OFFCURVE",
"788 376 OFFCURVE",
"786 322 CURVE",
"581 322 LINE"
);
}
);
width = 1009;
}
);
leftKerningGroup = o;
leftMetricsKey = o;
rightKerningGroup = e;
rightMetricsKey = e;
unicode = 0153;
},
{
glyphname = p;
layers = (
{
layerId = "37E353DF-6BB3-462E-BD25-B39B9A501818";
paths = (
{
closed = 1;
nodes = (
"66 544 LINE",
"66 -194 LINE",
"268 -194 LINE",
"268 544 LINE"
);
},
{
closed = 0;
nodes = (
"341 22 LINE"
);
},
{
closed = 1;
nodes = (
"287 551 OFFCURVE",
"205 441 OFFCURVE",
"205 270 CURVE",
"205 101 OFFCURVE",
"289 -7 OFFCURVE",
"422 -7 CURVE SMOOTH",
"571 -7 OFFCURVE",
"668 102 OFFCURVE",
"668 269 CURVE SMOOTH",
"668 439 OFFCURVE",
"568 551 OFFCURVE",
"417 551 CURVE SMOOTH"
);
},
{
closed = 1;
nodes = (
"425 395 OFFCURVE",
"465 346 OFFCURVE",
"465 274 CURVE SMOOTH",
"465 202 OFFCURVE",
"425 153 OFFCURVE",
"366 153 CURVE SMOOTH",
"307 153 OFFCURVE",
"268 202 OFFCURVE",
"268 274 CURVE SMOOTH",
"268 346 OFFCURVE",
"307 395 OFFCURVE",
"366 395 CURVE SMOOTH"
);
}
);
width = 688;
}
);
leftKerningGroup = p;
rightKerningGroup = o;
unicode = 0070;
},
{
glyphname = thorn;
layers = (
{
anchors = (
{
name = bottom;
position = "{168, 0}";
},
{
name = top;
position = "{168, 742}";
},
{
name = topright;
position = "{305, 544}";
}
);
layerId = "37E353DF-6BB3-462E-BD25-B39B9A501818";
paths = (
{
closed = 0;
nodes = (
"343 286 LINE"
);
},
{
closed = 1;
nodes = (
"66 544 LINE",
"66 -194 LINE",
"268 -194 LINE",
"268 544 LINE"
);
},
{
closed = 0;
nodes = (
"341 22 LINE"
);
},
{
closed = 1;
nodes = (
"287 551 OFFCURVE",
"205 441 OFFCURVE",
"205 270 CURVE",
"205 101 OFFCURVE",
"289 -7 OFFCURVE",
"422 -7 CURVE SMOOTH",
"571 -7 OFFCURVE",
"668 102 OFFCURVE",
"668 269 CURVE SMOOTH",
"668 439 OFFCURVE",
"568 551 OFFCURVE",
"417 551 CURVE SMOOTH"
);
},
{
closed = 1;
nodes = (
"425 395 OFFCURVE",
"465 346 OFFCURVE",
"465 274 CURVE SMOOTH",
"465 202 OFFCURVE",
"425 153 OFFCURVE",
"366 153 CURVE SMOOTH",
"307 153 OFFCURVE",
"268 202 OFFCURVE",
"268 274 CURVE SMOOTH",
"268 346 OFFCURVE",
"307 395 OFFCURVE",
"366 395 CURVE SMOOTH"
);
},
{
closed = 1;
nodes = (
"66 742 LINE",
"66 0 LINE",
"268 0 LINE",
"268 742 LINE"
);
}
);
width = 687;
}
);
leftKerningGroup = h;
leftMetricsKey = l;
rightKerningGroup = o;
rightMetricsKey = o;
unicode = 00FE;
},
{
glyphname = q;
layers = (
{
layerId = "37E353DF-6BB3-462E-BD25-B39B9A501818";
paths = (
{
closed = 1;
nodes = (
"420 544 LINE",
"420 -194 LINE",
"622 -194 LINE",
"622 544 LINE"
);
},
{
closed = 0;
nodes = (
"443 239 LINE"
);
},
{
closed = 1;
nodes = (
"116 551 OFFCURVE",
"19 442 OFFCURVE",
"19 275 CURVE SMOOTH",
"19 104 OFFCURVE",
"119 -7 OFFCURVE",
"271 -7 CURVE SMOOTH",
"401 -7 OFFCURVE",
"483 103 OFFCURVE",
"482 274 CURVE",
"483 443 OFFCURVE",
"398 551 OFFCURVE",
"266 551 CURVE SMOOTH"
);
},
{
closed = 1;
nodes = (
"381 391 OFFCURVE",
"420 342 OFFCURVE",
"420 270 CURVE SMOOTH",
"420 197 OFFCURVE",
"381 148 OFFCURVE",
"322 148 CURVE SMOOTH",
"262 148 OFFCURVE",
"223 197 OFFCURVE",
"223 270 CURVE SMOOTH",
"223 342 OFFCURVE",
"263 391 OFFCURVE",
"322 391 CURVE SMOOTH"
);
}
);
width = 688;
}
);
leftKerningGroup = o;
rightKerningGroup = q;
unicode = 0071;
},
{
glyphname = r;
layers = (
{
anchors = (
{
name = bottom;
position = "{157, 0}";
},
{
name = top;
position = "{236, 544}";
}
);
layerId = "37E353DF-6BB3-462E-BD25-B39B9A501818";
paths = (
{
closed = 1;
nodes = (
"61 544 LINE",
"61 0 LINE",
"263 0 LINE",
"263 544 LINE"
);
},
{
closed = 1;
nodes = (
"301 552 OFFCURVE",
"217 444 OFFCURVE",
"217 269 CURVE",
"263 260 LINE",
"263 339 OFFCURVE",
"330 383 OFFCURVE",
"434 370 CURVE",
"434 552 LINE"
);
}
);
width = 444;
}
);
leftKerningGroup = n;
rightKerningGroup = r;
unicode = 0072;
},
{
glyphname = s;
layers = (
{
anchors = (
{
name = bottom;
position = "{266, 0}";
},
{
name = top;
position = "{279, 544}";
}
);
layerId = "37E353DF-6BB3-462E-BD25-B39B9A501818";
paths = (
{
closed = 1;
nodes = (
"135 553 OFFCURVE",
"40 485 OFFCURVE",
"40 371 CURVE SMOOTH",
"40 185 OFFCURVE",
"318 215 OFFCURVE",
"318 153 CURVE SMOOTH",
"318 136 OFFCURVE",
"300 128 OFFCURVE",
"273 128 CURVE SMOOTH",
"213 128 OFFCURVE",
"144 151 OFFCURVE",
"76 195 CURVE",
"14 68 LINE",
"85 17 OFFCURVE",
"174 -9 OFFCURVE",
"270 -9 CURVE SMOOTH",
"412 -9 OFFCURVE",
"509 59 OFFCURVE",
"509 171 CURVE SMOOTH",
"509 357 OFFCURVE",
"225 330 OFFCURVE",
"225 391 CURVE SMOOTH",
"225 408 OFFCURVE",
"241 417 OFFCURVE",
"266 417 CURVE SMOOTH",
"309 417 OFFCURVE",
"370 398 OFFCURVE",
"444 360 CURVE",
"512 487 LINE",
"437 530 OFFCURVE",
"355 553 OFFCURVE",
"272 553 CURVE SMOOTH"
);
}
);
width = 535;
}
);
leftKerningGroup = s;
rightKerningGroup = s;
unicode = 0073;
},
{
glyphname = germandbls;
lastChange = "2016-05-14 08:45:31 +0000";
layers = (
{
layerId = "37E353DF-6BB3-462E-BD25-B39B9A501818";
paths = (
{
closed = 1;
nodes = (
"157 751 OFFCURVE",
"48 651 OFFCURVE",
"48 494 CURVE SMOOTH",
"48 0 LINE",
"250 0 LINE",
"250 509 LINE SMOOTH",
"250 570 OFFCURVE",
"277 601 OFFCURVE",
"329 601 CURVE SMOOTH",
"377 601 OFFCURVE",
"402 573 OFFCURVE",
"402 518 CURVE SMOOTH",
"402 463 OFFCURVE",
"372 435 OFFCURVE",
"312 435 CURVE",
"312 293 LINE",
"333 293 LINE SMOOTH",
"407 293 OFFCURVE",
"445 269 OFFCURVE",
"445 219 CURVE SMOOTH",
"445 169 OFFCURVE",
"410 142 OFFCURVE",
"339 142 CURVE SMOOTH",
"308 142 LINE",
"308 0 LINE",
"356 0 LINE SMOOTH",
"529 0 OFFCURVE",
"641 86 OFFCURVE",
"641 216 CURVE SMOOTH",
"641 296 OFFCURVE",
"589 360 OFFCURVE",
"512 384 CURVE",
"564 419 OFFCURVE",
"598 483 OFFCURVE",
"598 548 CURVE SMOOTH",
"598 671 OFFCURVE",
"491 751 OFFCURVE",
"327 751 CURVE SMOOTH"
);
}
);
width = 666;
}
);
leftKerningGroup = f;
leftMetricsKey = U;
rightKerningGroup = B;
rightMetricsKey = B;
unicode = 00DF;
},
{
glyphname = t;
layers = (
{
anchors = (
{
name = bottom;
position = "{266, 0}";
},
{
name = center;
position = "{224, 272}";
}
);
layerId = "37E353DF-6BB3-462E-BD25-B39B9A501818";
paths = (
{
closed = 1;
nodes = (
"88 667 LINE",
"88 170 LINE",
"88 57 OFFCURVE",
"166 -10 OFFCURVE",
"282 -9 CURVE",
"337 -9 OFFCURVE",
"396 4 OFFCURVE",
"433 26 CURVE",
"397 165 LINE",
"374 156 OFFCURVE",
"351 149 OFFCURVE",
"336 149 CURVE",
"307 149 OFFCURVE",
"289 166 OFFCURVE",
"289 201 CURVE",
"289 667 LINE"
);
},
{
closed = 1;
nodes = (
"13 516 LINE",
"13 387 LINE",
"423 387 LINE",
"423 516 LINE"
);
}
);
width = 449;
}
);
leftKerningGroup = u;
rightKerningGroup = t;
unicode = 0074;
},
{
glyphname = tbar;
layers = (
{
anchors = (
{
name = bottom;
position = "{266, 0}";
},
{
name = center;
position = "{224, 272}";
}
);
layerId = "37E353DF-6BB3-462E-BD25-B39B9A501818";
paths = (
{
closed = 1;
nodes = (
"88 667 LINE",
"88 170 LINE",
"88 57 OFFCURVE",
"166 -10 OFFCURVE",
"282 -9 CURVE",
"337 -9 OFFCURVE",
"396 4 OFFCURVE",
"433 26 CURVE",
"397 165 LINE",
"374 156 OFFCURVE",
"351 149 OFFCURVE",
"336 149 CURVE",
"307 149 OFFCURVE",
"289 166 OFFCURVE",
"289 201 CURVE",
"289 667 LINE"
);
},
{
closed = 1;
nodes = (
"13 516 LINE",
"13 406 LINE",
"423 406 LINE",
"423 516 LINE"
);
},
{
closed = 1;
nodes = (
"13 345 LINE",
"13 236 LINE",
"423 236 LINE",
"423 345 LINE"
);
}
);
width = 449;
}
);
leftKerningGroup = t;
rightKerningGroup = t;
unicode = 0167;
},
{
glyphname = u;
layers = (
{
anchors = (
{
name = ogonek;
position = "{619, 10}";
},
{
name = top;
position = "{329, 544}";
}
);
layerId = "37E353DF-6BB3-462E-BD25-B39B9A501818";
paths = (
{
closed = 1;
nodes = (
"607 0 LINE",
"607 544 LINE",
"405 544 LINE",
"405 0 LINE"
);
},
{
closed = 1;
nodes = (
"371 -9 OFFCURVE",
"451 96 OFFCURVE",
"451 275 CURVE",
"405 275 LINE",
"405 213 OFFCURVE",
"373 170 OFFCURVE",
"321 169 CURVE SMOOTH",
"277 169 OFFCURVE",
"248 203 OFFCURVE",
"248 256 CURVE SMOOTH",
"248 544 LINE",
"46 544 LINE",
"46 199 LINE SMOOTH",
"46 72 OFFCURVE",
"124 -9 OFFCURVE",
"238 -9 CURVE SMOOTH"
);
}
);
width = 668;
}
);
leftKerningGroup = u;
rightKerningGroup = i;
unicode = 0075;
},
{
glyphname = uogonek;
layers = (
{
layerId = "37E353DF-6BB3-462E-BD25-B39B9A501818";
paths = (
{
closed = 1;
nodes = (
"413 544 LINE",
"413 270 LINE SMOOTH",
"411 210 OFFCURVE",
"378 170 OFFCURVE",
"325 169 CURVE SMOOTH",
"278 169 OFFCURVE",
"248 203 OFFCURVE",
"248 256 CURVE SMOOTH",
"248 544 LINE",
"46 544 LINE",
"46 199 LINE SMOOTH",
"46 72 OFFCURVE",
"125 -9 OFFCURVE",
"242 -9 CURVE SMOOTH",
"317 -9 OFFCURVE",
"375 23 OFFCURVE",
"413 83 CURVE",
"413 0 LINE",
"468 0 LINE",
"442 -39 OFFCURVE",
"423 -78 OFFCURVE",
"423 -118 CURVE SMOOTH",
"423 -184 OFFCURVE",
"474 -203 OFFCURVE",
"515 -203 CURVE SMOOTH",
"562 -203 OFFCURVE",
"603 -179 OFFCURVE",
"630 -132 CURVE",
"580 -73 LINE",
"568 -92 OFFCURVE",
"554 -104 OFFCURVE",
"540 -104 CURVE SMOOTH",
"530 -104 OFFCURVE",
"523 -97 OFFCURVE",
"523 -85 CURVE SMOOTH",
"523 -67 OFFCURVE",
"538 -36 OFFCURVE",
"563 0 CURVE",
"614 0 LINE",
"614 544 LINE"
);
}
);
width = 665;
}
);
leftKerningGroup = u;
leftMetricsKey = u;
rightKerningGroup = u;
unicode = 0173;
},
{
glyphname = v;
layers = (
{
layerId = "37E353DF-6BB3-462E-BD25-B39B9A501818";
paths = (
{
closed = 1;
nodes = (
"401 544 LINE",
"300 184 LINE",
"200 544 LINE",
"-7 544 LINE",
"194 0 LINE",
"400 0 LINE",
"603 544 LINE"
);
}
);
width = 594;
}
);
leftKerningGroup = v;
rightKerningGroup = v;
unicode = 0076;
},
{
glyphname = w;
layers = (
{
anchors = (
{
name = top;
position = "{480, 544}";
}
);
layerId = "37E353DF-6BB3-462E-BD25-B39B9A501818";
paths = (
{
closed = 1;
nodes = (
"773 544 LINE",
"676 197 LINE",
"579 544 LINE",
"390 544 LINE",
"295 197 LINE",
"198 544 LINE",
"-7 544 LINE",
"190 0 LINE",
"389 0 LINE",
"481 312 LINE",
"571 0 LINE",
"770 0 LINE",
"969 544 LINE"
);
}
);
width = 959;
}
);
leftKerningGroup = v;
rightKerningGroup = v;
unicode = 0077;
},
{
glyphname = x;
layers = (
{
layerId = "37E353DF-6BB3-462E-BD25-B39B9A501818";
paths = (
{
closed = 1;
nodes = (
"10 544 LINE",
"181 278 LINE",
"-1 0 LINE",
"221 0 LINE",
"317 154 LINE",
"401 0 LINE",
"633 0 LINE",
"451 279 LINE",
"621 544 LINE",
"401 544 LINE",
"317 403 LINE",
"242 544 LINE"
);
}
);
width = 633;
}
);
leftKerningGroup = x;
rightKerningGroup = x;
unicode = 0078;
},
{
glyphname = y;
layers = (
{
anchors = (
{
name = top;
position = "{303, 544}";
}
);
layerId = "37E353DF-6BB3-462E-BD25-B39B9A501818";
paths = (
{
closed = 1;
nodes = (
"412 544 LINE",
"311 211 LINE",
"192 544 LINE",
"-16 544 LINE",
"210 15 LINE",
"200 -4 LINE SMOOTH",
"187 -28 OFFCURVE",
"168 -39 OFFCURVE",
"140 -39 CURVE SMOOTH",
"114 -39 OFFCURVE",
"92 -30 OFFCURVE",
"68 -8 CURVE",
"-16 -143 LINE",
"38 -184 OFFCURVE",
"92 -203 OFFCURVE",
"159 -203 CURVE SMOOTH",
"268 -203 OFFCURVE",
"341 -153 OFFCURVE",
"385 -46 CURVE SMOOTH",
"613 544 LINE"
);
}
);
width = 605;
}
);
leftKerningGroup = v;
rightKerningGroup = v;
unicode = 0079;
},
{
glyphname = z;
layers = (
{
anchors = (
{
name = top;
position = "{281, 544}";
}
);
layerId = "37E353DF-6BB3-462E-BD25-B39B9A501818";
paths = (
{
closed = 1;
nodes = (
"39 544 LINE",
"39 392 LINE",
"273 392 LINE",
"29 119 LINE",
"29 0 LINE",
"537 0 LINE",
"537 151 LINE",
"283 151 LINE",
"527 424 LINE",
"527 544 LINE"
);
}
);
width = 561;
}
);
leftKerningGroup = z;
rightKerningGroup = z;
unicode = 007A;
},
{
glyphname = a.ss01;
layers = (
{
anchors = (
{
name = ogonek;
position = "{639, 10}";
},
{
name = top;
position = "{336, 544}";
}
);
layerId = "37E353DF-6BB3-462E-BD25-B39B9A501818";
paths = (
{
closed = 1;
nodes = (
"420 544 LINE",
"420 0 LINE",
"622 0 LINE",
"622 544 LINE"
);
},
{
closed = 1;
nodes = (
"116 551 OFFCURVE",
"19 442 OFFCURVE",
"19 275 CURVE SMOOTH",
"19 104 OFFCURVE",
"119 -7 OFFCURVE",
"271 -7 CURVE SMOOTH",
"401 -7 OFFCURVE",
"483 103 OFFCURVE",
"482 274 CURVE",
"483 443 OFFCURVE",
"398 551 OFFCURVE",
"265 551 CURVE SMOOTH"
);
},
{
closed = 1;
nodes = (
"381 391 OFFCURVE",
"420 342 OFFCURVE",
"420 270 CURVE SMOOTH",
"420 197 OFFCURVE",
"381 148 OFFCURVE",
"322 148 CURVE SMOOTH",
"262 148 OFFCURVE",
"223 197 OFFCURVE",
"223 270 CURVE SMOOTH",
"223 342 OFFCURVE",
"263 391 OFFCURVE",
"322 391 CURVE SMOOTH"
);
}
);
width = 683;
}
);
leftKerningGroup = o;
leftMetricsKey = o;
rightKerningGroup = dotlessi;
rightMetricsKey = dotlessi;
},
{
glyphname = ae.ss01;
layers = (
{
anchors = (
{
name = top;
position = "{476, 544}";
}
);
layerId = "37E353DF-6BB3-462E-BD25-B39B9A501818";
paths = (
{
closed = 0;
nodes = (
"557 124 LINE"
);
},
{
closed = 1;
nodes = (
"231 327 LINE SMOOTH",
"94 325 OFFCURVE",
"20 266 OFFCURVE",
"20 163 CURVE SMOOTH",
"20 60 OFFCURVE",
"94 -10 OFFCURVE",
"224 -10 CURVE SMOOTH",
"340 -10 OFFCURVE",
"421 42 OFFCURVE",
"458 131 CURVE",
"367 180 LINE",
"351 145 OFFCURVE",
"314 123 OFFCURVE",
"272 123 CURVE SMOOTH",
"233 123 OFFCURVE",
"209 143 OFFCURVE",
"209 177 CURVE SMOOTH",
"209 211 OFFCURVE",
"231 228 OFFCURVE",
"272 228 CURVE SMOOTH",
"384 228 LINE",
"384 327 LINE"
);
},
{
closed = 1;
nodes = (
"104 362 LINE",
"165 388 OFFCURVE",
"227 401 OFFCURVE",
"271 401 CURVE SMOOTH",
"334 401 OFFCURVE",
"366 374 OFFCURVE",
"366 329 CURVE",
"366 143 LINE",
"565 101 LINE",
"565 353 LINE SMOOTH",
"564 479 OFFCURVE",
"473 552 OFFCURVE",
"318 552 CURVE SMOOTH",
"233 552 OFFCURVE",
"145 532 OFFCURVE",
"55 496 CURVE"
);
},
{
closed = 1;
nodes = (
"767 165 OFFCURVE",
"723 142 OFFCURVE",
"680 142 CURVE SMOOTH",
"612 142 OFFCURVE",
"568 195 OFFCURVE",
"568 284 CURVE SMOOTH",
"568 364 OFFCURVE",
"603 414 OFFCURVE",
"662 414 CURVE SMOOTH",
"701 414 OFFCURVE",
"734 393 OFFCURVE",
"743 343 CURVE",
"535 297 LINE",
"535 193 LINE",
"935 280 LINE",
"933 445 OFFCURVE",
"832 551 OFFCURVE",
"665 551 CURVE SMOOTH",
"493 550 OFFCURVE",
"395 438 OFFCURVE",
"395 273 CURVE SMOOTH",
"395 103 OFFCURVE",
"499 -7 OFFCURVE",
"668 -7 CURVE SMOOTH",
"763 -7 OFFCURVE",
"854 28 OFFCURVE",
"919 104 CURVE",
"807 204 LINE"
);
}
);
width = 955;
}
);
leftKerningGroup = ae.ss01;
leftMetricsKey = a;
rightKerningGroup = ae.ss01;
rightMetricsKey = e;
},
{
glyphname = e.ss01;
layers = (
{
anchors = (
{
name = bottom;
position = "{308, 0}";
},
{
name = ogonek;
position = "{553, 10}";
},
{
name = top;
position = "{308, 544}";
}
);
layerId = "37E353DF-6BB3-462E-BD25-B39B9A501818";
paths = (
{
closed = 1;
nodes = (
"189 197 LINE",
"588 284 LINE",
"586 449 OFFCURVE",
"476 551 OFFCURVE",
"307 551 CURVE SMOOTH",
"131 550 OFFCURVE",
"19 438 OFFCURVE",
"19 269 CURVE SMOOTH",
"19 103 OFFCURVE",
"138 -7 OFFCURVE",
"317 -7 CURVE SMOOTH",
"423 -7 OFFCURVE",
"509 30 OFFCURVE",
"573 104 CURVE",
"460 205 LINE",
"421 165 OFFCURVE",
"376 142 OFFCURVE",
"333 142 CURVE SMOOTH",
"265 142 OFFCURVE",
"222 196 OFFCURVE",
"222 281 CURVE SMOOTH",
"222 365 OFFCURVE",
"257 414 OFFCURVE",
"315 414 CURVE SMOOTH",
"353 414 OFFCURVE",
"380 391 OFFCURVE",
"389 347 CURVE",
"188 302 LINE"
);
}
);
width = 614;
}
);
leftKerningGroup = o;
leftMetricsKey = o;
rightKerningGroup = e;
},
{
glyphname = eogonek.ss01;
layers = (
{
layerId = "37E353DF-6BB3-462E-BD25-B39B9A501818";
paths = (
{
closed = 1;
nodes = (
"265 142 OFFCURVE",
"222 196 OFFCURVE",
"222 281 CURVE SMOOTH",
"222 365 OFFCURVE",
"257 414 OFFCURVE",
"315 414 CURVE SMOOTH",
"353 414 OFFCURVE",
"380 391 OFFCURVE",
"389 347 CURVE",
"188 302 LINE",
"189 197 LINE",
"588 284 LINE",
"586 449 OFFCURVE",
"476 551 OFFCURVE",
"307 551 CURVE SMOOTH",
"131 550 OFFCURVE",
"19 438 OFFCURVE",
"19 269 CURVE SMOOTH",
"19 103 OFFCURVE",
"138 -7 OFFCURVE",
"317 -7 CURVE",
"345 -7 OFFCURVE",
"373 0 OFFCURVE",
"399 10 CURVE",
"368 -32 OFFCURVE",
"348 -75 OFFCURVE",
"348 -118 CURVE SMOOTH",
"348 -184 OFFCURVE",
"399 -203 OFFCURVE",
"440 -203 CURVE SMOOTH",
"487 -203 OFFCURVE",
"527 -179 OFFCURVE",
"554 -132 CURVE",
"503 -73 LINE",
"492 -92 OFFCURVE",
"479 -104 OFFCURVE",
"465 -104 CURVE SMOOTH",
"455 -104 OFFCURVE",
"448 -97 OFFCURVE",
"448 -85 CURVE SMOOTH",
"448 -37 OFFCURVE",
"520 46 OFFCURVE",
"559 91 CURVE",
"454 194 LINE",
"419 161 OFFCURVE",
"375 142 OFFCURVE",
"333 142 CURVE"
);
}
);
width = 614;
}
);
leftKerningGroup = o;
rightKerningGroup = e;
},
{
glyphname = f.ss01;
layers = (
{
layerId = "37E353DF-6BB3-462E-BD25-B39B9A501818";
paths = (
{
closed = 1;
nodes = (
"140 752 OFFCURVE",
"51 682 OFFCURVE",
"51 566 CURVE",
"51 0 LINE",
"252 0 LINE",
"252 542 LINE",
"252 575 OFFCURVE",
"275 594 OFFCURVE",
"308 594 CURVE",
"326 594 OFFCURVE",
"349 586 OFFCURVE",
"367 573 CURVE",
"435 712 LINE",
"392 737 OFFCURVE",
"327 751 OFFCURVE",
"269 751 CURVE"
);
},
{
closed = 1;
nodes = (
"73 516 LINE",
"73 387 LINE",
"365 387 LINE",
"365 516 LINE"
);
}
);
width = 365;
}
);
leftKerningGroup = f.ss01;
rightKerningGroup = f.ss01;
},
{
glyphname = g.ss01;
layers = (
{
anchors = (
{
name = top;
position = "{319, 544}";
}
);
layerId = "37E353DF-6BB3-462E-BD25-B39B9A501818";
paths = (
{
closed = 1;
nodes = (
"391 544 LINE",
"391 41 LINE SMOOTH",
"391 -12 OFFCURVE",
"347 -46 OFFCURVE",
"280 -46 CURVE SMOOTH",
"219 -46 OFFCURVE",
"161 -18 OFFCURVE",
"119 25 CURVE",
"31 -83 LINE",
"87 -159 OFFCURVE",
"190 -202 OFFCURVE",
"289 -203 CURVE SMOOTH",
"473 -203 OFFCURVE",
"592 -106 OFFCURVE",
"592 47 CURVE SMOOTH",
"592 544 LINE"
);
},
{
closed = 1;
nodes = (
"109 550 OFFCURVE",
"19 448 OFFCURVE",
"19 294 CURVE SMOOTH",
"19 135 OFFCURVE",
"112 31 OFFCURVE",
"253 31 CURVE SMOOTH",
"374 31 OFFCURVE",
"450 133 OFFCURVE",
"450 293 CURVE",
"450 450 OFFCURVE",
"372 550 OFFCURVE",
"248 550 CURVE SMOOTH"
);
},
{
closed = 1;
nodes = (
"356 401 OFFCURVE",
"392 357 OFFCURVE",
"392 288 CURVE SMOOTH",
"392 221 OFFCURVE",
"356 176 OFFCURVE",
"301 176 CURVE SMOOTH",
"245 176 OFFCURVE",
"208 221 OFFCURVE",
"208 288 CURVE SMOOTH",
"208 356 OFFCURVE",
"245 401 OFFCURVE",
"301 401 CURVE SMOOTH"
);
}
);
width = 649;
}
);
leftKerningGroup = o;
leftMetricsKey = o;
rightKerningGroup = j;
rightMetricsKey = j;
},
{
glyphname = l.ss01;
layers = (
{
anchors = (
{
name = bottom;
position = "{181, 0}";
},
{
name = top;
position = "{181, 544}";
},
{
name = topright;
position = "{341, 544}";
}
);
layerId = "37E353DF-6BB3-462E-BD25-B39B9A501818";
paths = (
{
closed = 1;
nodes = (
"51 210 LINE SMOOTH",
"51 59 OFFCURVE",
"149 -10 OFFCURVE",
"259 -10 CURVE SMOOTH",
"293 -10 OFFCURVE",
"330 -2 OFFCURVE",
"364 11 CURVE",
"350 177 LINE",
"332 169 OFFCURVE",
"315 164 OFFCURVE",
"299 164 CURVE SMOOTH",
"273 164 OFFCURVE",
"253 179 OFFCURVE",
"253 216 CURVE SMOOTH",
"253 742 LINE",
"51 742 LINE"
);
}
);
width = 360;
}
);
leftKerningGroup = l.ss01;
rightKerningGroup = l.ss01;
},
{
glyphname = oe.ss01;
layers = (
{
anchors = (
{
name = bottom;
position = "{951, 0}";
},
{
name = ogonek;
position = "{1196, 10}";
},
{
name = top;
position = "{951, 544}";
}
);
layerId = "37E353DF-6BB3-462E-BD25-B39B9A501818";
paths = (
{
closed = 1;
nodes = (
"138 551 OFFCURVE",
"19 441 OFFCURVE",
"19 272 CURVE SMOOTH",
"19 104 OFFCURVE",
"138 -7 OFFCURVE",
"321 -7 CURVE SMOOTH",
"489 -7 OFFCURVE",
"580 104 OFFCURVE",
"580 272 CURVE SMOOTH",
"580 441 OFFCURVE",
"489 551 OFFCURVE",
"321 551 CURVE SMOOTH"
);
},
{
closed = 1;
nodes = (
"381 391 OFFCURVE",
"421 342 OFFCURVE",
"421 270 CURVE SMOOTH",
"421 197 OFFCURVE",
"381 149 OFFCURVE",
"322 149 CURVE SMOOTH",
"262 149 OFFCURVE",
"223 197 OFFCURVE",
"223 270 CURVE SMOOTH",
"223 342 OFFCURVE",
"262 391 OFFCURVE",
"322 391 CURVE SMOOTH"
);
},
{
closed = 1;
nodes = (
"549 550 OFFCURVE",
"457 438 OFFCURVE",
"457 269 CURVE SMOOTH",
"457 103 OFFCURVE",
"555 -7 OFFCURVE",
"720 -7 CURVE SMOOTH",
"825 -7 OFFCURVE",
"911 30 OFFCURVE",
"975 104 CURVE",
"862 205 LINE",
"823 165 OFFCURVE",
"778 142 OFFCURVE",
"735 142 CURVE SMOOTH",
"668 142 OFFCURVE",
"624 196 OFFCURVE",
"624 281 CURVE SMOOTH",
"624 365 OFFCURVE",
"659 414 OFFCURVE",
"717 414 CURVE SMOOTH",
"755 414 OFFCURVE",
"783 391 OFFCURVE",
"791 347 CURVE",
"590 302 LINE",
"591 197 LINE",
"991 284 LINE",
"989 449 OFFCURVE",
"878 551 OFFCURVE",
"710 551 CURVE SMOOTH"
);
}
);
width = 1017;
}
);
leftKerningGroup = o;
leftMetricsKey = "=o";
rightKerningGroup = o;
rightMetricsKey = e.ss01;
},
{
glyphname = t.ss01;
layers = (
{
anchors = (
{
name = bottom;
position = "{209, 0}";
},
{
name = center;
position = "{187, 272}";
}
);
layerId = "37E353DF-6BB3-462E-BD25-B39B9A501818";
paths = (
{
closed = 1;
nodes = (
"51 667 LINE",
"51 174 LINE",
"51 60 OFFCURVE",
"129 -10 OFFCURVE",
"246 -9 CURVE",
"300 -9 OFFCURVE",
"359 4 OFFCURVE",
"396 26 CURVE",
"360 165 LINE",
"337 156 OFFCURVE",
"314 149 OFFCURVE",
"299 149 CURVE",
"270 149 OFFCURVE",
"252 169 OFFCURVE",
"252 205 CURVE",
"252 667 LINE"
);
},
{
closed = 1;
nodes = (
"76 516 LINE",
"76 387 LINE",
"386 387 LINE",
"386 516 LINE"
);
}
);
width = 412;
}
);
leftKerningGroup = u;
rightKerningGroup = t;
rightMetricsKey = t;
},
{
glyphname = tbar.ss01;
layers = (
{
anchors = (
{
name = bottom;
position = "{209, 0}";
},
{
name = center;
position = "{187, 272}";
}
);
layerId = "37E353DF-6BB3-462E-BD25-B39B9A501818";
paths = (
{
closed = 1;
nodes = (
"51 667 LINE",
"51 174 LINE",
"51 60 OFFCURVE",
"129 -10 OFFCURVE",
"246 -9 CURVE",
"300 -9 OFFCURVE",
"359 4 OFFCURVE",
"396 26 CURVE",
"360 165 LINE",
"337 156 OFFCURVE",
"314 149 OFFCURVE",
"299 149 CURVE",
"270 149 OFFCURVE",
"252 169 OFFCURVE",
"252 205 CURVE",
"252 667 LINE"
);
},
{
closed = 1;
nodes = (
"74 516 LINE",
"74 406 LINE",
"384 406 LINE",
"384 516 LINE"
);
},
{
closed = 1;
nodes = (
"74 345 LINE",
"74 236 LINE",
"384 236 LINE",
"384 345 LINE"
);
}
);
width = 412;
}
);
leftKerningGroup = tbar.ss01;
rightKerningGroup = tbar.ss01;
},
{
glyphname = w.ss01;
layers = (
{
anchors = (
{
name = top;
position = "{492, 544}";
}
);
layerId = "37E353DF-6BB3-462E-BD25-B39B9A501818";
paths = (
{
closed = 1;
nodes = (
"740 544 LINE",
"740 248 LINE SMOOTH",
"740 198 OFFCURVE",
"711 166 OFFCURVE",
"669 166 CURVE SMOOTH",
"623 166 OFFCURVE",
"592 198 OFFCURVE",
"592 248 CURVE SMOOTH",
"592 544 LINE",
"392 544 LINE",
"392 248 LINE SMOOTH",
"392 198 OFFCURVE",
"364 166 OFFCURVE",
"320 166 CURVE SMOOTH",
"276 166 OFFCURVE",
"246 198 OFFCURVE",
"246 248 CURVE SMOOTH",
"246 544 LINE",
"46 544 LINE",
"46 239 LINE SMOOTH",
"46 90 OFFCURVE",
"143 -9 OFFCURVE",
"288 -9 CURVE SMOOTH",
"367 -9 OFFCURVE",
"451 33 OFFCURVE",
"493 96 CURVE",
"537 33 OFFCURVE",
"622 -9 OFFCURVE",
"701 -9 CURVE SMOOTH",
"843 -9 OFFCURVE",
"939 90 OFFCURVE",
"939 239 CURVE SMOOTH",
"939 544 LINE"
);
}
);
width = 984;
}
);
leftKerningGroup = u;
rightKerningGroup = w.ss01;
},
{
glyphname = y.ss01;
layers = (
{
anchors = (
{
name = top;
position = "{331, 544}";
}
);
layerId = "37E353DF-6BB3-462E-BD25-B39B9A501818";
paths = (
{
closed = 1;
nodes = (
"378 45 OFFCURVE",
"462 153 OFFCURVE",
"462 330 CURVE",
"415 330 LINE",
"415 265 OFFCURVE",
"381 223 OFFCURVE",
"326 223 CURVE SMOOTH",
"279 223 OFFCURVE",
"248 256 OFFCURVE",
"248 310 CURVE SMOOTH",
"248 544 LINE",
"46 544 LINE",
"46 252 LINE SMOOTH",
"46 126 OFFCURVE",
"121 45 OFFCURVE",
"238 45 CURVE SMOOTH"
);
},
{
closed = 1;
nodes = (
"414 544 LINE",
"414 59 LINE",
"414 -3 OFFCURVE",
"366 -45 OFFCURVE",
"298 -45 CURVE SMOOTH",
"246 -45 OFFCURVE",
"172 -24 OFFCURVE",
"120 5 CURVE",
"72 -134 LINE",
"136 -173 OFFCURVE",
"240 -202 OFFCURVE",
"322 -202 CURVE",
"493 -203 OFFCURVE",
"615 -96 OFFCURVE",
"615 55 CURVE",
"615 544 LINE"
);
}
);
width = 673;
}
);
leftKerningGroup = u;
leftMetricsKey = u;
rightKerningGroup = j;
rightMetricsKey = g;
},
{
glyphname = z.ss01;
layers = (
{
anchors = (
{
name = top;
position = "{281, 544}";
}
);
layerId = "37E353DF-6BB3-462E-BD25-B39B9A501818";
paths = (
{
closed = 1;
nodes = (
"267 320 LINE",
"267 216 LINE",
"498 216 LINE",
"498 320 LINE"
);
},
{
closed = 1;
nodes = (
"62 331 LINE",
"62 227 LINE",
"287 227 LINE",
"287 331 LINE"
);
},
{
closed = 1;
nodes = (
"39 544 LINE",
"39 392 LINE",
"273 392 LINE",
"29 119 LINE",
"29 0 LINE",
"537 0 LINE",
"537 151 LINE",
"283 151 LINE",
"527 424 LINE",
"527 544 LINE"
);
}
);
width = 561;
}
);
leftKerningGroup = z;
leftMetricsKey = z;
rightKerningGroup = z;
rightMetricsKey = z;
},
{
glyphname = fi;
layers = (
{
components = (
{
name = i;
transform = "{1, 0, 0, 1, 409, 0}";
}
);
layerId = "37E353DF-6BB3-462E-BD25-B39B9A501818";
paths = (
{
closed = 1;
nodes = (
"188 752 OFFCURVE",
"98 683 OFFCURVE",
"98 566 CURVE",
"98 0 LINE",
"299 0 LINE",
"299 542 LINE",
"299 576 OFFCURVE",
"321 594 OFFCURVE",
"355 593 CURVE",
"374 593 OFFCURVE",
"398 586 OFFCURVE",
"418 573 CURVE",
"424 733 LINE",
"396 744 OFFCURVE",
"354 751 OFFCURVE",
"316 751 CURVE"
);
},
{
closed = 1;
nodes = (
"24 524 LINE",
"24 394 LINE",
"412 394 LINE",
"412 524 LINE"
);
}
);
width = 733;
}
);
leftKerningGroup = f;
leftMetricsKey = f;
rightKerningGroup = dotlessi;
rightMetricsKey = i;
unicode = FB01;
},
{
glyphname = fl;
layers = (
{
components = (
{
name = l;
transform = "{1, 0, 0, 1, 411, 0}";
}
);
layerId = "37E353DF-6BB3-462E-BD25-B39B9A501818";
paths = (
{
closed = 1;
nodes = (
"184 753 OFFCURVE",
"98 680 OFFCURVE",
"98 569 CURVE",
"98 0 LINE",
"299 0 LINE",
"299 538 LINE",
"299 574 OFFCURVE",
"323 596 OFFCURVE",
"359 595 CURVE",
"377 595 OFFCURVE",
"400 588 OFFCURVE",
"418 575 CURVE",
"424 735 LINE",
"397 745 OFFCURVE",
"354 752 OFFCURVE",
"316 752 CURVE"
);
},
{
closed = 1;
nodes = (
"24 524 LINE",
"24 395 LINE",
"412 395 LINE",
"412 524 LINE"
);
}
);
width = 746;
}
);
leftKerningGroup = f;
leftMetricsKey = f;
rightKerningGroup = l;
rightMetricsKey = l;
unicode = FB02;
},
{
glyphname = fi.ss01;
layers = (
{
components = (
{
name = i;
transform = "{1, 0, 0, 1, 364, 0}";
}
);
layerId = "37E353DF-6BB3-462E-BD25-B39B9A501818";
paths = (
{
closed = 1;
nodes = (
"141 752 OFFCURVE",
"51 683 OFFCURVE",
"51 566 CURVE",
"51 0 LINE",
"252 0 LINE",
"252 542 LINE",
"252 576 OFFCURVE",
"274 594 OFFCURVE",
"308 593 CURVE",
"327 593 OFFCURVE",
"351 586 OFFCURVE",
"371 573 CURVE",
"377 733 LINE",
"349 744 OFFCURVE",
"307 751 OFFCURVE",
"269 751 CURVE"
);
},
{
closed = 1;
nodes = (
"77 516 LINE",
"77 387 LINE",
"365 387 LINE",
"365 516 LINE"
);
}
);
width = 688;
}
);
leftKerningGroup = f;
leftMetricsKey = f.ss01;
rightKerningGroup = dotlessi;
rightMetricsKey = i;
},
{
glyphname = fl.ss01;
layers = (
{
anchors = (
{
name = caret_1;
position = "{386, 0}";
}
);
layerId = "37E353DF-6BB3-462E-BD25-B39B9A501818";
paths = (
{
closed = 1;
nodes = (
"762 77 LINE",
"744 69 OFFCURVE",
"727 64 OFFCURVE",
"711 64 CURVE SMOOTH",
"685 64 OFFCURVE",
"665 79 OFFCURVE",
"665 116 CURVE SMOOTH",
"665 532 LINE SMOOTH",
"665 667 OFFCURVE",
"558 751 OFFCURVE",
"387 751 CURVE SMOOTH",
"209 751 OFFCURVE",
"98 678 OFFCURVE",
"98 560 CURVE SMOOTH",
"98 484 LINE",
"24 484 LINE",
"24 355 LINE",
"98 355 LINE",
"98 0 LINE",
"299 0 LINE",
"299 355 LINE",
"391 355 LINE",
"391 484 LINE",
"299 484 LINE",
"299 534 LINE SMOOTH",
"299 572 OFFCURVE",
"329 595 OFFCURVE",
"378 594 CURVE SMOOTH",
"430 593 OFFCURVE",
"463 569 OFFCURVE",
"463 530 CURVE SMOOTH",
"463 110 LINE SMOOTH",
"463 -41 OFFCURVE",
"561 -110 OFFCURVE",
"671 -110 CURVE SMOOTH",
"705 -110 OFFCURVE",
"742 -102 OFFCURVE",
"776 -89 CURVE"
);
}
);
width = 772;
}
);
leftKerningGroup = f;
leftMetricsKey = f;
rightKerningGroup = l;
rightMetricsKey = l.ss01;
},
{
glyphname = ordfeminine;
layers = (
{
layerId = "37E353DF-6BB3-462E-BD25-B39B9A501818";
paths = (
{
closed = 1;
nodes = (
"157 790 OFFCURVE",
"96 778 OFFCURVE",
"38 759 CURVE",
"69 671 LINE",
"109 684 OFFCURVE",
"148 692 OFFCURVE",
"175 692 CURVE",
"212 692 OFFCURVE",
"231 678 OFFCURVE",
"231 653 CURVE",
"231 458 LINE",
"365 458 LINE",
"365 670 LINE",
"366 747 OFFCURVE",
"307 790 OFFCURVE",
"207 790 CURVE"
);
},
{
closed = 1;
nodes = (
"243 654 LINE",
"150 654 LINE",
"63 653 OFFCURVE",
"16 619 OFFCURVE",
"16 555 CURVE",
"16 493 OFFCURVE",
"59 452 OFFCURVE",
"131 452 CURVE",
"191 452 OFFCURVE",
"230 479 OFFCURVE",
"247 524 CURVE",
"231 563 LINE",
"219 545 OFFCURVE",
"200 536 OFFCURVE",
"179 536 CURVE",
"157 536 OFFCURVE",
"145 547 OFFCURVE",
"145 566 CURVE",
"145 583 OFFCURVE",
"157 593 OFFCURVE",
"178 593 CURVE",
"243 593 LINE"
);
}
);
width = 397;
}
);
leftKerningGroup = asterisk;
rightKerningGroup = asterisk;
unicode = 00AA;
},
{
glyphname = ordmasculine;
layers = (
{
layerId = "37E353DF-6BB3-462E-BD25-B39B9A501818";
paths = (
{
closed = 1;
nodes = (
"92 789 OFFCURVE",
"16 724 OFFCURVE",
"16 621 CURVE SMOOTH",
"16 520 OFFCURVE",
"92 454 OFFCURVE",
"208 454 CURVE SMOOTH",
"325 454 OFFCURVE",
"401 520 OFFCURVE",
"401 621 CURVE SMOOTH",
"401 724 OFFCURVE",
"325 789 OFFCURVE",
"208 789 CURVE SMOOTH"
);
},
{
closed = 1;
nodes = (
"241 685 OFFCURVE",
"262 659 OFFCURVE",
"262 620 CURVE SMOOTH",
"262 581 OFFCURVE",
"241 555 OFFCURVE",
"208 555 CURVE SMOOTH",
"175 555 OFFCURVE",
"154 581 OFFCURVE",
"154 620 CURVE SMOOTH",
"154 659 OFFCURVE",
"175 685 OFFCURVE",
"208 685 CURVE SMOOTH"
);
}
);
width = 416;
}
);
leftKerningGroup = asterisk;
rightKerningGroup = asterisk;
unicode = 00BA;
},
{
glyphname = Delta;
layers = (
{
layerId = "37E353DF-6BB3-462E-BD25-B39B9A501818";
paths = (
{
closed = 1;
nodes = (
"291 701 LINE",
"-7 0 LINE",
"206 0 LINE",
"392 493 LINE",
"573 0 LINE",
"793.995 0 LINE",
"505 701 LINE"
);
},
{
closed = 1;
nodes = (
"171 150 LINE",
"171 0 LINE SMOOTH",
"599 0 LINE",
"599 150 LINE"
);
}
);
width = 786;
}
);
leftKerningGroup = A;
rightKerningGroup = A;
unicode = 0394;
},
{
glyphname = Omega;
layers = (
{
anchors = (
{
name = topleft;
position = "{20, 701}";
}
);
layerId = "37E353DF-6BB3-462E-BD25-B39B9A501818";
paths = (
{
closed = 1;
nodes = (
"214 711 OFFCURVE",
"62 574 OFFCURVE",
"62 387 CURVE SMOOTH",
"62 309 OFFCURVE",
"105 215 OFFCURVE",
"165 162 CURVE",
"6 162 LINE",
"6 0 LINE",
"364 0 LINE",
"364 149 LINE",
"296 199 OFFCURVE",
"246 292 OFFCURVE",
"246 369 CURVE SMOOTH",
"246 469 OFFCURVE",
"320 541 OFFCURVE",
"421 541 CURVE SMOOTH",
"523 541 OFFCURVE",
"598 469 OFFCURVE",
"598 369 CURVE SMOOTH",
"598 292 OFFCURVE",
"548 199 OFFCURVE",
"480 150 CURVE",
"480 0 LINE",
"838 0 LINE",
"838 162 LINE",
"680 162 LINE",
"739 216 OFFCURVE",
"782 310 OFFCURVE",
"782 387 CURVE SMOOTH",
"782 574 OFFCURVE",
"630 711 OFFCURVE",
"421 711 CURVE SMOOTH"
);
}
);
width = 844;
}
);
leftMetricsKey = T;
rightMetricsKey = T;
unicode = 03A9;
},
{
glyphname = pi;
lastChange = "2016-05-14 08:45:31 +0000";
layers = (
{
layerId = "37E353DF-6BB3-462E-BD25-B39B9A501818";
paths = (
{
closed = 1;
nodes = (
"163 544 LINE",
"56 544 OFFCURVE",
"-21 477 OFFCURVE",
"-20 386 CURVE",
"-20 341 OFFCURVE",
"-4 284 OFFCURVE",
"18 240 CURVE",
"156 287 LINE",
"145 309 OFFCURVE",
"137 335 OFFCURVE",
"137 352 CURVE",
"136 382 OFFCURVE",
"158 403 OFFCURVE",
"190 403 CURVE",
"718 403 LINE",
"718 544 LINE"
);
},
{
closed = 1;
nodes = (
"438 419 LINE",
"438 0 LINE",
"604 0 LINE",
"604 419 LINE"
);
},
{
closed = 1;
nodes = (
"214 419 LINE",
"170 0 LINE",
"336 0 LINE",
"380 419 LINE"
);
}
);
width = 731;
}
);
unicode = 03C0;
},
{
glyphname = "aaMatra-gurmukhi";
layers = (
{
anchors = (
{
name = bindu;
position = "{164, 680}";
},
{
name = candra;
position = "{164, 690}";
},
{
name = top;
position = "{164, 670}";
}
);
layerId = "37E353DF-6BB3-462E-BD25-B39B9A501818";
paths = (
{
closed = 1;
nodes = (
"264 253 LINE",
"264 541 LINE",
"327 541 LINE",
"327 693 LINE",
"0 693 LINE",
"0 541 LINE",
"65 541 LINE",
"65 253 LINE"
);
}
);
width = 327;
}
);
unicode = 0A3E;
},
{
glyphname = "iMatra-gurmukhi";
layers = (
{
anchors = (
{
name = bindu;
position = "{664, 670}";
},
{
name = candra;
position = "{751, 690}";
}
);
layerId = "37E353DF-6BB3-462E-BD25-B39B9A501818";
paths = (
{
closed = 1;
nodes = (
"277 541 LINE",
"277 732 LINE SMOOTH",
"277 781 OFFCURVE",
"309 805 OFFCURVE",
"339 805 CURVE SMOOTH",
"362 805 OFFCURVE",
"382 799 OFFCURVE",
"412 750 CURVE",
"540 818 LINE",
"491 920 OFFCURVE",
"399 953 OFFCURVE",
"311 953 CURVE SMOOTH",
"200 953 OFFCURVE",
"87 882 OFFCURVE",
"87 749 CURVE SMOOTH",
"87 693 LINE",
"0 693 LINE",
"0 541 LINE"
);
},
{
closed = 1;
nodes = (
"277 0 LINE",
"277 616 LINE",
"227 541 LINE",
"338 541 LINE",
"338 693 LINE",
"78 693 LINE",
"78 0 LINE"
);
}
);
width = 339;
}
);
unicode = 0A3F;
},
{
glyphname = "iiMatra-gurmukhi";
layers = (
{
anchors = (
{
name = bindu;
position = "{348, 670}";
},
{
name = candra;
position = "{453, 690}";
}
);
layerId = "37E353DF-6BB3-462E-BD25-B39B9A501818";
paths = (
{
closed = 1;
nodes = (
"247 541 LINE",
"247 704 LINE SMOOTH",
"247 841 OFFCURVE",
"130 953 OFFCURVE",
"-26 953 CURVE SMOOTH",
"-149 953 OFFCURVE",
"-221 901 OFFCURVE",
"-245 823 CURVE",
"-80 754 LINE",
"-65 779 OFFCURVE",
"-46 805 OFFCURVE",
"-9 805 CURVE SMOOTH",
"43 805 OFFCURVE",
"56 764 OFFCURVE",
"56 718 CURVE SMOOTH",
"56 611 LINE",
"141 693 LINE",
"-71 693 LINE",
"-71 541 LINE"
);
},
{
closed = 1;
nodes = (
"247 0 LINE",
"247 616 LINE",
"197 541 LINE",
"308 541 LINE",
"308 693 LINE",
"48 693 LINE",
"48 0 LINE"
);
}
);
width = 308;
}
);
rightMetricsKey = "STEM-GURM";
unicode = 0A40;
},
{
glyphname = "a-gurmukhi";
layers = (
{
anchors = (
{
name = bindu;
position = "{718, 693}";
},
{
name = candra;
position = "{718, 703}";
},
{
name = top;
position = "{718, 683}";
}
);
layerId = "37E353DF-6BB3-462E-BD25-B39B9A501818";
paths = (
{
closed = 1;
nodes = (
"564 180 OFFCURVE",
"595 266 OFFCURVE",
"595 362 CURVE SMOOTH",
"595 551 OFFCURVE",
"475 636 OFFCURVE",
"350 636 CURVE SMOOTH",
"297 636 OFFCURVE",
"245 621 OFFCURVE",
"201 588 CURVE",
"249 576 LINE",
"194 654 OFFCURVE",
"98 693 OFFCURVE",
"-2 693 CURVE SMOOTH",
"-23 693 LINE",
"-23 541 LINE",
"12 541 LINE SMOOTH",
"67 541 OFFCURVE",
"133 522 OFFCURVE",
"126 456 CURVE",
"137 508 LINE",
"86 436 OFFCURVE",
"44 343 OFFCURVE",
"49 192 CURVE",
"210 154 LINE",
"270 256 OFFCURVE",
"299 330 OFFCURVE",
"296 418 CURVE",
"294 378 LINE",
"298 434 OFFCURVE",
"325 472 OFFCURVE",
"369 472 CURVE SMOOTH",
"399 472 OFFCURVE",
"436 455 OFFCURVE",
"436 384 CURVE SMOOTH",
"436 378 OFFCURVE",
"436 372 OFFCURVE",
"435 365 CURVE",
"457 430 LINE",
"363 348 OFFCURVE",
"328 225 OFFCURVE",
"328 134 CURVE SMOOTH",
"328 113 OFFCURVE",
"330 94 OFFCURVE",
"333 77 CURVE",
"494 57 LINE"
);
},
{
closed = 1;
nodes = (
"737 290 LINE",
"737 442 LINE",
"485 442 LINE",
"482 290 LINE"
);
},
{
closed = 1;
nodes = (
"846 0 LINE",
"846 616 LINE",
"796 541 LINE",
"907 541 LINE",
"907 693 LINE",
"647 693 LINE",
"647 0 LINE"
);
}
);
width = 907;
}
);
rightMetricsKey = "STEM-GURM";
unicode = 0A05;
},
{
glyphname = "ee-gurmukhi";
layers = (
{
anchors = (
{
name = _top;
position = "{457, 670}";
},
{
name = bindu;
position = "{649, 680}";
},
{
name = bottom;
position = "{403, 2}";
},
{
name = candra;
position = "{762, 690}";
},
{
name = caret_1;
position = "{405, 30}";
},
{
name = nukta;
position = "{110, -59}";
},
{
name = top;
position = "{441, 670}";
}
);
components = (
{
name = "iri-gurmukhi";
}
);
layerId = "37E353DF-6BB3-462E-BD25-B39B9A501818";
paths = (
{
closed = 1;
nodes = (
"532 631 LINE",
"532 835 OFFCURVE",
"414 960 OFFCURVE",
"207 960 CURVE SMOOTH",
"161 960 OFFCURVE",
"115 953 OFFCURVE",
"73 938 CURVE",
"111 796 LINE",
"154 805 OFFCURVE",
"193 810 OFFCURVE",
"228 810 CURVE SMOOTH",
"342 810 OFFCURVE",
"376 753 OFFCURVE",
"386 631 CURVE"
);
}
);
width = 648;
}
);
unicode = 0A0F;
},
{
glyphname = "ai-gurmukhi";
layers = (
{
anchors = (
{
name = _top;
position = "{718, 683}";
},
{
name = bindu;
position = "{925, 680}";
},
{
name = candra;
position = "{1038, 690}";
},
{
name = top;
position = "{703, 683}";
}
);
components = (
{
name = "a-gurmukhi";
}
);
layerId = "37E353DF-6BB3-462E-BD25-B39B9A501818";
paths = (
{
closed = 1;
nodes = (
"794 661 LINE",
"790 951 OFFCURVE",
"662 1111 OFFCURVE",
"436 1111 CURVE",
"443 983 LINE",
"589 983 OFFCURVE",
"676 909 OFFCURVE",
"694 735 CURVE",
"710 763 LINE",
"656 875 OFFCURVE",
"529 938 OFFCURVE",
"380 938 CURVE SMOOTH",
"323 938 OFFCURVE",
"267 928 OFFCURVE",
"218 906 CURVE",
"256 776 LINE",
"295 789 OFFCURVE",
"350 797 OFFCURVE",
"407 797 CURVE SMOOTH",
"536 797 OFFCURVE",
"647 772 OFFCURVE",
"647 661 CURVE"
);
}
);
width = 907;
}
);
unicode = 0A10;
},
{
glyphname = "oo-gurmukhi";
layers = (
{
anchors = (
{
name = bindu;
position = "{668, 680}";
},
{
name = bottom;
position = "{413, 2}";
},
{
name = candra;
position = "{785, 650}";
},
{
name = caret_1;
position = "{414, 30}";
},
{
name = nukta;
position = "{92, -22}";
},
{
name = top;
position = "{530, 670}";
}
);
layerId = "37E353DF-6BB3-462E-BD25-B39B9A501818";
paths = (
{
closed = 1;
nodes = (
"565 -17 OFFCURVE",
"650 68 OFFCURVE",
"650 158 CURVE SMOOTH",
"650 237 OFFCURVE",
"584 325 OFFCURVE",
"449 363 CURVE",
"455 288 LINE",
"618 356 OFFCURVE",
"657 453 OFFCURVE",
"657 581 CURVE",
"465 610 LINE",
"465 495 OFFCURVE",
"434 421 OFFCURVE",
"270 421 CURVE SMOOTH",
"150 421 LINE",
"150 288 LINE",
"332 288 LINE SMOOTH",
"407 288 OFFCURVE",
"455 236 OFFCURVE",
"455 192 CURVE SMOOTH",
"455 165 OFFCURVE",
"437 138 OFFCURVE",
"389 138 CURVE SMOOTH",
"247 138 OFFCURVE",
"227 375 OFFCURVE",
"226 530 CURVE SMOOTH",
"226 662 OFFCURVE",
"238 808 OFFCURVE",
"394 808 CURVE SMOOTH",
"418 808 OFFCURVE",
"461 805 OFFCURVE",
"502 795 CURVE",
"540 936 LINE",
"489 951 OFFCURVE",
"432 958 OFFCURVE",
"379 958 CURVE SMOOTH",
"101 958 OFFCURVE",
"38 763 OFFCURVE",
"38 542 CURVE SMOOTH",
"38 274 OFFCURVE",
"139 -17 OFFCURVE",
"416 -17 CURVE SMOOTH"
);
},
{
closed = 1;
nodes = (
"709 541 LINE",
"709 693 LINE",
"-23 693 LINE",
"-23 541 LINE"
);
}
);
width = 686;
}
);
leftMetricsKey = "ura-gurmukhi";
rightMetricsKey = "ura-gurmukhi";
unicode = 0A13;
},
{
glyphname = "ka-gurmukhi";
layers = (
{
anchors = (
{
name = bindu;
position = "{574, 682}";
},
{
name = bottom;
position = "{599, 0}";
},
{
name = candra;
position = "{574, 692}";
},
{
name = caret_1;
position = "{371, -3}";
},
{
name = nukta;
position = "{119, -44}";
},
{
name = top;
position = "{578, 672}";
}
);
layerId = "37E353DF-6BB3-462E-BD25-B39B9A501818";
paths = (
{
closed = 1;
nodes = (
"696 0 LINE",
"696 7 LINE SMOOTH",
"696 90 OFFCURVE",
"660 203 OFFCURVE",
"590 302 CURVE",
"595 241 LINE",
"650 342 OFFCURVE",
"675 458 OFFCURVE",
"675.007 542 CURVE SMOOTH",
"675 569 LINE",
"487 569 LINE",
"487 548 LINE SMOOTH",
"487 510 OFFCURVE",
"482 467 OFFCURVE",
"469 425 CURVE",
"415 469 OFFCURVE",
"342 496 OFFCURVE",
"259 496 CURVE SMOOTH",
"91 496 OFFCURVE",
"21 386 OFFCURVE",
"21 287 CURVE SMOOTH",
"21 165 OFFCURVE",
"127 45 OFFCURVE",
"303 45 CURVE SMOOTH",
"400 45 OFFCURVE",
"461 82 OFFCURVE",
"510 131 CURVE",
"479.993 144 LINE",
"494 96 OFFCURVE",
"498 48 OFFCURVE",
"498 12 CURVE SMOOTH",
"498 0 LINE"
);
},
{
closed = 1;
nodes = (
"247 199 OFFCURVE",
"222 234 OFFCURVE",
"222 270 CURVE SMOOTH",
"222 306 OFFCURVE",
"248 342 OFFCURVE",
"303 342 CURVE SMOOTH",
"359 342 OFFCURVE",
"410 306 OFFCURVE",
"445 245 CURVE",
"440 310 LINE",
"410 241 OFFCURVE",
"363 199 OFFCURVE",
"302 199 CURVE SMOOTH"
);
},
{
closed = 1;
nodes = (
"736 541 LINE",
"736 693 LINE",
"0 693 LINE",
"0 541 LINE"
);
}
);
width = 736;
}
);
leftMetricsKey = "ra-gurmukhi";
rightMetricsKey = "STEM-GURM";
unicode = 0A15;
},
{
glyphname = "kha-gurmukhi";
layers = (
{
anchors = (
{
name = bindu;
position = "{531, 680}";
},
{
name = bottom;
position = "{561, 0}";
},
{
name = candra;
position = "{531, 690}";
},
{
name = caret_1;
position = "{340, 30}";
},
{
name = nukta;
position = "{89, -8}";
},
{
name = top;
position = "{531, 670}";
}
);
components = (
{
name = "pa-gurmukhi";
}
);
layerId = "37E353DF-6BB3-462E-BD25-B39B9A501818";
paths = (
{
closed = 1;
nodes = (
"547 347 LINE",
"547 499 LINE",
"199 499 LINE",
"201 347 LINE"
);
}
);
width = 720;
}
);
leftMetricsKey = "pa-gurmukhi";
rightMetricsKey = "pa-gurmukhi";
unicode = 0A16;
},
{
glyphname = "ga-gurmukhi";
layers = (
{
anchors = (
{
name = bindu;
position = "{713, 682}";
},
{
name = bottom;
position = "{743, 0}";
},
{
name = candra;
position = "{713, 690}";
},
{
name = caret_1;
position = "{468, 30}";
},
{
name = nukta;
position = "{56, -34}";
},
{
name = top;
position = "{743, 672}";
}
);
layerId = "37E353DF-6BB3-462E-BD25-B39B9A501818";
paths = (
{
closed = 1;
nodes = (
"461 -17 OFFCURVE",
"561 44 OFFCURVE",
"561 172 CURVE SMOOTH",
"561 620 LINE",
"362 620 LINE",
"362 398 LINE",
"412 451 LINE",
"236 451 LINE SMOOTH",
"103 451 OFFCURVE",
"20 381 OFFCURVE",
"20 264 CURVE SMOOTH",
"20 109 OFFCURVE",
"197 -17 OFFCURVE",
"343 -17 CURVE SMOOTH"
);
},
{
closed = 1;
nodes = (
"261 137 OFFCURVE",
"221 188 OFFCURVE",
"221 241 CURVE SMOOTH",
"221 275 OFFCURVE",
"239 299 OFFCURVE",
"278 299 CURVE SMOOTH",
"413 299 LINE",
"363 326 LINE",
"364 194 LINE SMOOTH",
"364 163 OFFCURVE",
"358 137 OFFCURVE",
"317 137 CURVE SMOOTH"
);
},
{
closed = 1;
nodes = (
"677 541 LINE",
"677 693 LINE",
"0 693 LINE",
"0 541 LINE"
);
},
{
closed = 1;
nodes = (
"841 0 LINE",
"841 616 LINE",
"791 541 LINE",
"902 541 LINE",
"902 693 LINE",
"642 693 LINE",
"642 0 LINE"
);
}
);
width = 902;
}
);
leftMetricsKey = "ra-gurmukhi";
rightMetricsKey = "STEM-GURM";
unicode = 0A17;
},
{
glyphname = "gha-gurmukhi";
layers = (
{
anchors = (
{
name = bindu;
position = "{732, 680}";
},
{
name = bottom;
position = "{762, 0}";
},
{
name = candra;
position = "{732, 690}";
},
{
name = caret_1;
position = "{475, 30}";
},
{
name = nukta;
position = "{88, 0}";
},
{
name = top;
position = "{732, 670}";
}
);
layerId = "37E353DF-6BB3-462E-BD25-B39B9A501818";
paths = (
{
closed = 1;
nodes = (
"384 75 OFFCURVE",
"426 99 OFFCURVE",
"473 128 CURVE",
"423 133 LINE",
"474 94 OFFCURVE",
"536 75 OFFCURVE",
"586 75 CURVE SMOOTH",
"661 75 OFFCURVE",
"707 94 OFFCURVE",
"745 122 CURVE",
"704 332 LINE",
"675 251 OFFCURVE",
"620 228 OFFCURVE",
"583 228 CURVE SMOOTH",
"548 228 OFFCURVE",
"529 242 OFFCURVE",
"514 253 CURVE",
"514 210 LINE",
"566 292 OFFCURVE",
"586 372 OFFCURVE",
"586 457 CURVE SMOOTH",
"586 514 OFFCURVE",
"576 569 OFFCURVE",
"561 625 CURVE",
"383 625 LINE",
"383 271 LINE",
"351 240 OFFCURVE",
"320 228 OFFCURVE",
"297 228 CURVE SMOOTH",
"243 228 OFFCURVE",
"228 259 OFFCURVE",
"220 283 CURVE",
"207 247 LINE",
"260 277 OFFCURVE",
"324 331 OFFCURVE",
"324 433 CURVE SMOOTH",
"324 550 OFFCURVE",
"219 693 OFFCURVE",
"30 693 CURVE SMOOTH",
"0 693 LINE",
"0 541 LINE",
"38 541 LINE SMOOTH",
"102 541 OFFCURVE",
"128 500 OFFCURVE",
"128 449 CURVE SMOOTH",
"128 392 OFFCURVE",
"94 361 OFFCURVE",
"36 324 CURVE",
"61 159 OFFCURVE",
"192 75 OFFCURVE",
"300 75 CURVE SMOOTH"
);
},
{
closed = 1;
nodes = (
"859 0 LINE",
"859 616 LINE",
"809 541 LINE",
"920 541 LINE",
"920 693 LINE",
"660 693 LINE",
"660 0 LINE"
);
}
);
width = 920;
}
);
leftMetricsKey = "pa-gurmukhi";
rightMetricsKey = "STEM-GURM";
unicode = 0A18;
},
{
glyphname = "nga-gurmukhi";
layers = (
{
anchors = (
{
name = bindu;
position = "{523, 680}";
},
{
name = bottom;
position = "{321, 0}";
},
{
name = candra;
position = "{523, 690}";
},
{
name = caret_1;
position = "{314, 30}";
},
{
name = nukta;
position = "{90, -101}";
},
{
name = top;
position = "{523, 670}";
}
);
layerId = "37E353DF-6BB3-462E-BD25-B39B9A501818";
paths = (
{
closed = 1;
nodes = (
"428 163 LINE",
"382 248 OFFCURVE",
"287 305 OFFCURVE",
"177 305 CURVE SMOOTH",
"81 305 OFFCURVE",
"13 261 OFFCURVE",
"13 178 CURVE SMOOTH",
"13 65 OFFCURVE",
"137 -17 OFFCURVE",
"307 -17 CURVE SMOOTH",
"525 -17 OFFCURVE",
"635 118 OFFCURVE",
"635 241 CURVE SMOOTH",
"635 367 OFFCURVE",
"520 484 OFFCURVE",
"323 484 CURVE SMOOTH",
"289 484 LINE",
"289 620 LINE",
"90 620 LINE",
"90 332 LINE",
"344 332 LINE SMOOTH",
"409 332 OFFCURVE",
"444 293 OFFCURVE",
"444 247 CURVE SMOOTH",
"444 187 OFFCURVE",
"385 115 OFFCURVE",
"283 115 CURVE SMOOTH",
"229 115 OFFCURVE",
"180 135 OFFCURVE",
"180 168 CURVE SMOOTH",
"180 189 OFFCURVE",
"194 199 OFFCURVE",
"215 199 CURVE SMOOTH",
"255 199 OFFCURVE",
"318 163 OFFCURVE",
"349 106 CURVE"
);
},
{
closed = 1;
nodes = (
"650 541 LINE",
"650 693 LINE",
"0 693 LINE",
"0 541 LINE"
);
}
);
width = 650;
}
);
rightMetricsKey = "ttha-gurmukhi";
unicode = 0A19;
},
{
glyphname = "ca-gurmukhi";
layers = (
{
anchors = (
{
name = bindu;
position = "{554, 680}";
},
{
name = bottom;
position = "{458, 0}";
},
{
name = candra;
position = "{554, 690}";
},
{
name = caret_1;
position = "{468, 30}";
},
{
name = nukta;
position = "{84, 0}";
},
{
name = top;
position = "{584, 670}";
}
);
layerId = "37E353DF-6BB3-462E-BD25-B39B9A501818";
paths = (
{
closed = 1;
nodes = (
"573 -17 OFFCURVE",
"683 46 OFFCURVE",
"683 181 CURVE",
"683 619 LINE",
"486 619 LINE",
"486 206 LINE",
"486 167 OFFCURVE",
"481 138 OFFCURVE",
"433 138 CURVE SMOOTH",
"362 138 OFFCURVE",
"321 204 OFFCURVE",
"321 272 CURVE",
"119 296 LINE",
"119 121 OFFCURVE",
"306 -17 OFFCURVE",
"458 -17 CURVE SMOOTH"
);
},
{
closed = 1;
nodes = (
"313.007 386 LINE",
"291 463 OFFCURVE",
"142 467 OFFCURVE",
"44 453 CURVE",
"15 309 LINE",
"84 264 OFFCURVE",
"178 261 OFFCURVE",
"244 275 CURVE"
);
},
{
closed = 1;
nodes = (
"514 270 LINE",
"514 422 LINE",
"161 422 LINE",
"161 270 LINE"
);
},
{
closed = 1;
nodes = (
"746 541 LINE",
"746 693 LINE",
"0 693 LINE",
"0 541 LINE"
);
}
);
width = 746;
}
);
leftMetricsKey = "da-gurmukhi";
rightMetricsKey = "STEM-GURM";
unicode = 0A1A;
},
{
glyphname = "cha-gurmukhi";
layers = (
{
anchors = (
{
name = bindu;
position = "{483, 680}";
},
{
name = bottom;
position = "{355, 2}";
},
{
name = candra;
position = "{483, 690}";
},
{
name = caret_1;
position = "{355, 30}";
},
{
name = nukta;
position = "{90, -101}";
},
{
name = top;
position = "{513, 670}";
}
);
layerId = "37E353DF-6BB3-462E-BD25-B39B9A501818";
paths = (
{
closed = 1;
nodes = (
"527 -17 OFFCURVE",
"682 36 OFFCURVE",
"682 156 CURVE SMOOTH",
"682 284 OFFCURVE",
"508 327 OFFCURVE",
"356 327 CURVE SMOOTH",
"332 327 OFFCURVE",
"306 327 OFFCURVE",
"281 327 CURVE SMOOTH",
"261 328 OFFCURVE",
"257 337 OFFCURVE",
"257 346 CURVE SMOOTH",
"257 352 OFFCURVE",
"259 364 OFFCURVE",
"277 364 CURVE SMOOTH",
"612 364 LINE",
"612 615 LINE",
"413 615 LINE",
"413 507 LINE",
"214 507 LINE SMOOTH",
"118 507 OFFCURVE",
"56 464 OFFCURVE",
"56 398 CURVE SMOOTH",
"56 339 OFFCURVE",
"104 302 OFFCURVE",
"154 279 CURVE",
"160 304 LINE",
"78 281 OFFCURVE",
"20 232 OFFCURVE",
"20 159 CURVE SMOOTH",
"20 37 OFFCURVE",
"184 -17 OFFCURVE",
"356 -17 CURVE SMOOTH"
);
},
{
closed = 1;
nodes = (
"273 121 OFFCURVE",
"200 117 OFFCURVE",
"200 157 CURVE SMOOTH",
"200 189 OFFCURVE",
"248 191 OFFCURVE",
"306 191 CURVE SMOOTH",
"422 191 OFFCURVE",
"501 199 OFFCURVE",
"501 157 CURVE SMOOTH",
"501 117 OFFCURVE",
"426 121 OFFCURVE",
"350 121 CURVE SMOOTH"
);
},
{
closed = 1;
nodes = (
"389 102 LINE",
"389 203 LINE",
"313 203 LINE",
"313 102 LINE"
);
},
{
closed = 1;
nodes = (
"701 541 LINE",
"701 693 LINE",
"0 693 LINE",
"0 541 LINE"
);
}
);
width = 701;
}
);
leftMetricsKey = "ttha-gurmukhi";
rightMetricsKey = "ttha-gurmukhi";
unicode = 0A1B;
},
{
glyphname = "ja-gurmukhi";
layers = (
{
anchors = (
{
name = bindu;
position = "{580, 680}";
},
{
name = bottom;
position = "{610, 0}";
},
{
name = candra;
position = "{580, 690}";
},
{
name = caret_1;
position = "{425, 30}";
},
{
name = nukta;
position = "{425, -135}";
},
{
name = top;
position = "{610, 670}";
}
);
layerId = "37E353DF-6BB3-462E-BD25-B39B9A501818";
paths = (
{
closed = 1;
nodes = (
"349 236 LINE",
"559 236 LINE",
"559 388 LINE",
"292 388 LINE",
"239 427 OFFCURVE",
"155 444 OFFCURVE",
"78 453 CURVE",
"17 317 LINE",
"51 286 OFFCURVE",
"105 261 OFFCURVE",
"161 247 CURVE",
"136 18 LINE",
"136 1 LINE",
"335 0 LINE"
);
},
{
closed = 1;
nodes = (
"652 541 LINE",
"652 693 LINE",
"0 693 LINE",
"0 541 LINE"
);
},
{
closed = 1;
nodes = (
"708 0 LINE",
"708 616 LINE",
"658 541 LINE",
"769 541 LINE",
"769 693 LINE",
"509 693 LINE",
"509 0 LINE"
);
}
);
width = 769;
}
);
leftMetricsKey = "da-gurmukhi";
rightMetricsKey = "STEM-GURM";
unicode = 0A1C;
},
{
glyphname = "jha-gurmukhi";
layers = (
{
anchors = (
{
name = bindu;
position = "{511, 680}";
},
{
name = bottom;
position = "{260, -83}";
},
{
name = candra;
position = "{511, 690}";
},
{
name = caret_1;
position = "{341, -22}";
},
{
name = nukta;
position = "{39, -40}";
},
{
name = top;
position = "{537, 670}";
}
);
layerId = "37E353DF-6BB3-462E-BD25-B39B9A501818";
paths = (
{
closed = 1;
nodes = (
"359 -83 LINE",
"381 56 LINE",
"333 8 LINE",
"337 8 OFFCURVE",
"341 8 OFFCURVE",
"346 8 CURVE SMOOTH",
"534 8 OFFCURVE",
"636 103 OFFCURVE",
"636 209 CURVE SMOOTH",
"636 286 OFFCURVE",
"584 341 OFFCURVE",
"481 390 CURVE",
"481 350 LINE",
"597 384 OFFCURVE",
"636 477 OFFCURVE",
"641 558 CURVE",
"447 563 LINE",
"444 483 OFFCURVE",
"393 440 OFFCURVE",
"344 440 CURVE SMOOTH",
"297 440 OFFCURVE",
"251 480 OFFCURVE",
"252 565 CURVE",
"52 555 LINE",
"56 520 OFFCURVE",
"78 480 OFFCURVE",
"112 441 CURVE",
"69 441 LINE",
"73 317 LINE",
"330 317 LINE SMOOTH",
"400 317 OFFCURVE",
"443 285 OFFCURVE",
"443 241 CURVE SMOOTH",
"443 203 OFFCURVE",
"411 151 OFFCURVE",
"315 151 CURVE SMOOTH",
"307 151 OFFCURVE",
"298 150 OFFCURVE",
"287 151 CURVE",
"350 140 LINE",
"321 180 OFFCURVE",
"267 201 OFFCURVE",
"224 213 CURVE SMOOTH",
"184 225 OFFCURVE",
"142 232 OFFCURVE",
"108 236 CURVE",
"46 110 LINE",
"76 73 OFFCURVE",
"126 43 OFFCURVE",
"177 27 CURVE",
"161 -66 LINE",
"161 -83 LINE"
);
},
{
closed = 1;
nodes = (
"695 541 LINE",
"695 693 LINE",
"0 693 LINE",
"0 541 LINE"
);
}
);
width = 685;
}
);
leftMetricsKey = "ta-gurmukhi";
rightMetricsKey = "ta-gurmukhi";
unicode = 0A1D;
},
{
glyphname = "nya-gurmukhi";
layers = (
{
anchors = (
{
name = bindu;
position = "{468, 680}";
},
{
name = bottom;
position = "{415, 0}";
},
{
name = candra;
position = "{468, 690}";
},
{
name = caret_1;
position = "{410, 30}";
},
{
name = nukta;
position = "{102, -48}";
},
{
name = top;
position = "{498, 670}";
}
);
components = (
{
name = "va-gurmukhi";
}
);
layerId = "37E353DF-6BB3-462E-BD25-B39B9A501818";
paths = (
{
closed = 1;
nodes = (
"307 492 LINE",
"256 492 OFFCURVE",
"233 530 OFFCURVE",
"232 567 CURVE",
"32 575 LINE",
"32 508 OFFCURVE",
"137 435 OFFCURVE",
"297 435 CURVE"
);
}
);
width = 657;
}
);
leftMetricsKey = "va-gurmukhi";
rightMetricsKey = "va-gurmukhi";
unicode = 0A1E;
},
{
glyphname = "tta-gurmukhi";
layers = (
{
anchors = (
{
name = bindu;
position = "{498, 680}";
},
{
name = bottom;
position = "{389, 0}";
},
{
name = candra;
position = "{498, 690}";
},
{
name = caret_1;
position = "{390, 30}";
},
{
name = nukta;
position = "{81, -44}";
},
{
name = top;
position = "{468, 670}";
}
);
layerId = "37E353DF-6BB3-462E-BD25-B39B9A501818";
paths = (
{
closed = 1;
nodes = (
"474 -17 OFFCURVE",
"546 -1 OFFCURVE",
"608 28 CURVE",
"569 171 LINE",
"511 151 OFFCURVE",
"446 138 OFFCURVE",
"384 138 CURVE SMOOTH",
"308 138 OFFCURVE",
"225 154 OFFCURVE",
"191 251 CURVE",
"190 175 LINE",
"234 257 OFFCURVE",
"335 308 OFFCURVE",
"505 309 CURVE",
"572 309 LINE",
"572 618 LINE",
"374 618 LINE",
"374 376 LINE",
"444 462 LINE",
"244 457 OFFCURVE",
"89 368 OFFCURVE",
"20 255 CURVE",
"73 58 OFFCURVE",
"255 -17 OFFCURVE",
"406 -17 CURVE SMOOTH"
);
},
{
closed = 1;
nodes = (
"633 541 LINE",
"633 693 LINE",
"0 693 LINE",
"0 541 LINE"
);
}
);
width = 633;
}
);
leftMetricsKey = "ra-gurmukhi";
rightMetricsKey = "STEM-GURM";
unicode = 0A1F;
},
{
glyphname = "ttha-gurmukhi";
layers = (
{
anchors = (
{
name = bindu;
position = "{514, 680}";
},
{
name = bottom;
position = "{338, 2}";
},
{
name = candra;
position = "{339, 690}";
},
{
name = caret_1;
position = "{338, 30}";
},
{
name = nukta;
position = "{31, -44}";
},
{
name = top;
position = "{514, 670}";
}
);
layerId = "37E353DF-6BB3-462E-BD25-B39B9A501818";
paths = (
{
closed = 1;
nodes = (
"502 -17 OFFCURVE",
"656 70 OFFCURVE",
"656 227 CURVE SMOOTH",
"656 383 OFFCURVE",
"490 464 OFFCURVE",
"339 464 CURVE SMOOTH",
"176 464 OFFCURVE",
"20 383 OFFCURVE",
"20 227 CURVE SMOOTH",
"20 70 OFFCURVE",
"188 -17 OFFCURVE",
"339 -17 CURVE SMOOTH"
);
},
{
closed = 1;
nodes = (
"276 138 OFFCURVE",
"221 171 OFFCURVE",
"221 225 CURVE SMOOTH",
"221 281 OFFCURVE",
"278 310 OFFCURVE",
"338 310 CURVE SMOOTH",
"398 310 OFFCURVE",
"455 281 OFFCURVE",
"455 225 CURVE SMOOTH",
"455 171 OFFCURVE",
"400 138 OFFCURVE",
"338 138 CURVE SMOOTH"
);
},
{
closed = 1;
nodes = (
"437 365 LINE",
"437 639 LINE",
"239 639 LINE",
"239 365 LINE"
);
},
{
closed = 1;
nodes = (
"675 541 LINE",
"675 693 LINE",
"0 693 LINE",
"0 541 LINE"
);
}
);
width = 675;
}
);
unicode = 0A20;
},
{
glyphname = "dda-gurmukhi";
layers = (
{
anchors = (
{
name = bindu;
position = "{494, 680}";
},
{
name = bottom;
position = "{323, 2}";
},
{
name = candra;
position = "{494, 690}";
},
{
name = caret_1;
position = "{301, 30}";
},
{
name = nukta;
position = "{76, -84}";
},
{
name = top;
position = "{464, 670}";
}
);
layerId = "37E353DF-6BB3-462E-BD25-B39B9A501818";
paths = (
{
closed = 1;
nodes = (
"499 -17 OFFCURVE",
"595 97 OFFCURVE",
"595 207 CURVE SMOOTH",
"595 280 OFFCURVE",
"553 348 OFFCURVE",
"468 393 CURVE",
"475 358 LINE",
"545 408 OFFCURVE",
"571 482 OFFCURVE",
"571 587 CURVE",
"372 588 LINE",
"372 522 OFFCURVE",
"365 484 OFFCURVE",
"312 471 CURVE",
"390 470 LINE",
"341 492 OFFCURVE",
"275 501 OFFCURVE",
"218 501 CURVE SMOOTH",
"164 501 OFFCURVE",
"119 493 OFFCURVE",
"85 482 CURVE",
"97 340 LINE",
"135 327 OFFCURVE",
"177 321 OFFCURVE",
"232 321 CURVE SMOOTH",
"286 321 OFFCURVE",
"351 327 OFFCURVE",
"412 337 CURVE",
"333 341 LINE",
"375 330 OFFCURVE",
"401 286 OFFCURVE",
"401 236 CURVE SMOOTH",
"401 179 OFFCURVE",
"366 115 OFFCURVE",
"285 115 CURVE SMOOTH",
"249 115 OFFCURVE",
"190 128 OFFCURVE",
"190 160 CURVE SMOOTH",
"190 173 OFFCURVE",
"201 178 OFFCURVE",
"217 178 CURVE SMOOTH",
"256 178 OFFCURVE",
"323 148 OFFCURVE",
"344 108 CURVE",
"412 169 LINE",
"378 235 OFFCURVE",
"269 285 OFFCURVE",
"173 285 CURVE SMOOTH",
"87 285 OFFCURVE",
"23 244 OFFCURVE",
"23 168 CURVE SMOOTH",
"23 62 OFFCURVE",
"147 -17 OFFCURVE",
"307 -17 CURVE SMOOTH"
);
},
{
closed = 1;
nodes = (
"633 541 LINE",
"633 693 LINE",
"0 693 LINE",
"0 541 LINE"
);
}
);
width = 623;
}
);
leftMetricsKey = "ta-gurmukhi";
rightMetricsKey = "ta-gurmukhi";
unicode = 0A21;
},
{
glyphname = "ddha-gurmukhi";
layers = (
{
anchors = (
{
name = bindu;
position = "{582, 680}";
},
{
name = bottom;
position = "{471, 0}";
},
{
name = candra;
position = "{582, 690}";
},
{
name = caret_1;
position = "{451, 30}";
},
{
name = nukta;
position = "{100, 0}";
},
{
name = top;
position = "{552, 670}";
}
);
layerId = "37E353DF-6BB3-462E-BD25-B39B9A501818";
paths = (
{
closed = 1;
nodes = (
"630 -15 OFFCURVE",
"730 69 OFFCURVE",
"730 162 CURVE SMOOTH",
"730 254 OFFCURVE",
"633 300 OFFCURVE",
"532 300 CURVE SMOOTH",
"436 300 OFFCURVE",
"333 259 OFFCURVE",
"289 175 CURVE",
"364 112 LINE",
"390 162 OFFCURVE",
"468 192 OFFCURVE",
"515 192 CURVE SMOOTH",
"540 192 OFFCURVE",
"563 183 OFFCURVE",
"563 164 CURVE SMOOTH",
"563 131 OFFCURVE",
"498 115 OFFCURVE",
"444 115 CURVE SMOOTH",
"353 115 OFFCURVE",
"295 160 OFFCURVE",
"295 257 CURVE SMOOTH",
"295 376 LINE",
"247 327 LINE",
"658 327 LINE",
"658 659 LINE",
"461 659 LINE",
"461 463 LINE",
"230 463 LINE",
"288 449 LINE",
"250 479 OFFCURVE",
"147 498 OFFCURVE",
"44 498 CURVE",
"15 351 LINE",
"48 333 OFFCURVE",
"86 324 OFFCURVE",
"123 320 CURVE",
"123 276 LINE SMOOTH",
"123 107 OFFCURVE",
"279 -15 OFFCURVE",
"471 -15 CURVE SMOOTH"
);
},
{
closed = 1;
nodes = (
"744 541 LINE",
"744 693 LINE",
"0 693 LINE",
"0 541 LINE"
);
}
);
width = 744;
}
);
leftMetricsKey = "da-gurmukhi";
rightMetricsKey = "ttha-gurmukhi";
unicode = 0A22;
},
{
glyphname = "nna-gurmukhi";
layers = (
{
anchors = (
{
name = bindu;
position = "{476, 680}";
},
{
name = bottom;
position = "{417, 0}";
},
{
name = candra;
position = "{476, 690}";
},
{
name = caret_1;
position = "{396, 30}";
},
{
name = nukta;
position = "{85, -51}";
},
{
name = top;
position = "{476, 670}";
}
);
layerId = "37E353DF-6BB3-462E-BD25-B39B9A501818";
paths = (
{
closed = 1;
nodes = (
"479 -17 OFFCURVE",
"555 0 OFFCURVE",
"618 30 CURVE",
"575 173 LINE",
"512 153 OFFCURVE",
"441 138 OFFCURVE",
"375 138 CURVE SMOOTH",
"300 138 OFFCURVE",
"218 156 OFFCURVE",
"184 248 CURVE",
"185 162 LINE",
"223 213 OFFCURVE",
"304 230 OFFCURVE",
"436 233 CURVE",
"436 444 LINE",
"237 446 LINE",
"237 269 LINE",
"314 374 LINE",
"189 373 OFFCURVE",
"68 315 OFFCURVE",
"20 243 CURVE",
"69 55 OFFCURVE",
"254 -17 OFFCURVE",
"406 -17 CURVE SMOOTH"
);
},
{
closed = 1;
nodes = (
"591 461 LINE",
"381 471 OFFCURVE",
"326 516 OFFCURVE",
"323 597 CURVE",
"135 617 LINE",
"137 443 OFFCURVE",
"363 313 OFFCURVE",
"583 309 CURVE"
);
},
{
closed = 1;
nodes = (
"660 541 LINE",
"660 693 LINE",
"0 693 LINE",
"0 541 LINE"
);
}
);
width = 660;
}
);
leftMetricsKey = "ra-gurmukhi";
unicode = 0A23;
},
{
glyphname = "ta-gurmukhi";
layers = (
{
anchors = (
{
name = bindu;
position = "{486, 680}";
},
{
name = bottom;
position = "{304, 0}";
},
{
name = candra;
position = "{486, 690}";
},
{
name = caret_1;
position = "{274, 30}";
},
{
name = nukta;
position = "{92, -109}";
},
{
name = top;
position = "{456, 670}";
}
);
layerId = "37E353DF-6BB3-462E-BD25-B39B9A501818";
paths = (
{
closed = 1;
nodes = (
"477 -17 OFFCURVE",
"580 90 OFFCURVE",
"580 189 CURVE SMOOTH",
"580 256 OFFCURVE",
"531 321 OFFCURVE",
"438 354 CURVE",
"449 326 LINE",
"518 361 OFFCURVE",
"561 436 OFFCURVE",
"561 532 CURVE SMOOTH",
"561 579 LINE",
"362 580 LINE",
"362 544 LINE SMOOTH",
"362 486 OFFCURVE",
"345 438 OFFCURVE",
"304 423 CURVE",
"350 429 LINE",
"327 437 OFFCURVE",
"284 443 OFFCURVE",
"233 443 CURVE SMOOTH",
"180 443 OFFCURVE",
"121 437 OFFCURVE",
"75 428 CURVE",
"86 278 LINE",
"124 266 OFFCURVE",
"168 261 OFFCURVE",
"214 261 CURVE SMOOTH",
"268 261 OFFCURVE",
"321 269 OFFCURVE",
"374 281 CURVE",
"301 280 LINE",
"350 280 OFFCURVE",
"380 252 OFFCURVE",
"380 218 CURVE SMOOTH",
"380 182 OFFCURVE",
"343 138 OFFCURVE",
"255 138 CURVE SMOOTH",
"200 138 OFFCURVE",
"121 154 OFFCURVE",
"62 175 CURVE",
"23 32 LINE",
"89 4 OFFCURVE",
"187 -17 OFFCURVE",
"276 -17 CURVE SMOOTH"
);
},
{
closed = 1;
nodes = (
"623 541 LINE",
"623 693 LINE",
"0 693 LINE",
"0 541 LINE"
);
}
);
width = 613;
}
);
unicode = 0A24;
},
{
glyphname = "tha-gurmukhi";
layers = (
{
anchors = (
{
name = bindu;
position = "{531, 680}";
},
{
name = bottom;
position = "{561, 0}";
},
{
name = candra;
position = "{531, 690}";
},
{
name = caret_1;
position = "{318, 30}";
},
{
name = nukta;
position = "{88, 0}";
},
{
name = top;
position = "{561, 670}";
}
);
components = (
{
name = "dha-gurmukhi";
}
);
layerId = "37E353DF-6BB3-462E-BD25-B39B9A501818";
paths = (
{
closed = 1;
nodes = (
"559 347 LINE",
"559 438 LINE",
"191 438 LINE",
"191 347 LINE"
);
}
);
width = 720;
}
);
leftMetricsKey = "pa-gurmukhi";
rightMetricsKey = "pa-gurmukhi";
unicode = 0A25;
},
{
glyphname = "da-gurmukhi";
layers = (
{
anchors = (
{
name = bindu;
position = "{571, 680}";
},
{
name = bottom;
position = "{471, 0}";
},
{
name = candra;
position = "{571, 690}";
},
{
name = caret_1;
position = "{478, 30}";
},
{
name = nukta;
position = "{113, 0}";
},
{
name = top;
position = "{541, 670}";
}
);
layerId = "37E353DF-6BB3-462E-BD25-B39B9A501818";
paths = (
{
closed = 1;
nodes = (
"553 -17 OFFCURVE",
"621 -1 OFFCURVE",
"676 28 CURVE",
"637 171 LINE",
"583 153 OFFCURVE",
"525 138 OFFCURVE",
"468 138 CURVE SMOOTH",
"381 138 OFFCURVE",
"310 169 OFFCURVE",
"310 257 CURVE SMOOTH",
"310 338 LINE",
"259 289 LINE",
"647 289 LINE",
"647 620 LINE",
"448 620 LINE",
"448 441 LINE",
"240 441 LINE",
"302 425 LINE",
"256 459 OFFCURVE",
"170 481 OFFCURVE",
"46 480 CURVE",
"16 336 LINE",
"46 319 OFFCURVE",
"85 309 OFFCURVE",
"123 302 CURVE",
"123 276 LINE SMOOTH",
"123 104 OFFCURVE",
"299 -17 OFFCURVE",
"482 -17 CURVE SMOOTH"
);
},
{
closed = 1;
nodes = (
"718 541 LINE",
"718 693 LINE",
"0 693 LINE",
"0 541 LINE"
);
}
);
width = 718;
}
);
rightMetricsKey = "STEM-GURM";
unicode = 0A26;
},
{
glyphname = "dha-gurmukhi";
layers = (
{
anchors = (
{
name = bindu;
position = "{531, 680}";
},
{
name = bottom;
position = "{561, 0}";
},
{
name = candra;
position = "{531, 690}";
},
{
name = caret_1;
position = "{318, 30}";
},
{
name = nukta;
position = "{88, 0}";
},
{
name = top;
position = "{561, 670}";
}
);
components = (
{
name = "pa-gurmukhi";
}
);
layerId = "37E353DF-6BB3-462E-BD25-B39B9A501818";
paths = (
{
closed = 1;
nodes = (
"613 541 LINE",
"613 693 LINE",
"12 693 LINE",
"12 541 LINE"
);
}
);
width = 720;
}
);
leftMetricsKey = "pa-gurmukhi";
rightMetricsKey = "pa-gurmukhi";
unicode = 0A27;
},
{
glyphname = "na-gurmukhi";
layers = (
{
anchors = (
{
name = bindu;
position = "{514, 680}";
},
{
name = bottom;
position = "{419, 0}";
},
{
name = candra;
position = "{339, 690}";
},
{
name = caret_1;
position = "{338, 30}";
},
{
name = nukta;
position = "{33, -44}";
},
{
name = top;
position = "{514, 670}";
}
);
layerId = "37E353DF-6BB3-462E-BD25-B39B9A501818";
paths = (
{
closed = 1;
nodes = (
"302 142 LINE",
"256 152 OFFCURVE",
"221 182 OFFCURVE",
"221 225 CURVE SMOOTH",
"221 280 OFFCURVE",
"278 310 OFFCURVE",
"338 310 CURVE SMOOTH",
"398 310 OFFCURVE",
"455 280 OFFCURVE",
"455 225 CURVE SMOOTH",
"455 182 OFFCURVE",
"419 153 OFFCURVE",
"373 142 CURVE",
"391 -13 LINE",
"533 4 OFFCURVE",
"656 89 OFFCURVE",
"656 225 CURVE SMOOTH",
"656 383 OFFCURVE",
"494 464 OFFCURVE",
"337 464 CURVE SMOOTH",
"178 464 OFFCURVE",
"20 383 OFFCURVE",
"20 227 CURVE SMOOTH",
"20 89 OFFCURVE",
"146 10 OFFCURVE",
"284 -13 CURVE"
);
},
{
closed = 1;
nodes = (
"437 365 LINE",
"437 638 LINE",
"239 638 LINE",
"239 365 LINE"
);
},
{
closed = 1;
nodes = (
"675 541 LINE",
"675 693 LINE",
"0 693 LINE",
"0 541 LINE"
);
}
);
width = 675;
}
);
leftMetricsKey = "ttha-gurmukhi";
rightMetricsKey = "ttha-gurmukhi";
unicode = 0A28;
},
{
glyphname = "pa-gurmukhi";
layers = (
{
anchors = (
{
name = bindu;
position = "{531, 680}";
},
{
name = bottom;
position = "{561, 0}";
},
{
name = candra;
position = "{531, 690}";
},
{
name = caret_1;
position = "{318, 30}";
},
{
name = nukta;
position = "{88, 0}";
},
{
name = top;
position = "{531, 670}";
}
);
layerId = "37E353DF-6BB3-462E-BD25-B39B9A501818";
paths = (
{
closed = 1;
nodes = (
"404 75 OFFCURVE",
"464 91 OFFCURVE",
"513 121 CURVE",
"472 332 LINE",
"436 250 OFFCURVE",
"365 228 OFFCURVE",
"320 228 CURVE SMOOTH",
"219 228 OFFCURVE",
"215 290 OFFCURVE",
"213 314 CURVE",
"164 227 LINE",
"272 269 OFFCURVE",
"322 354 OFFCURVE",
"322 440 CURVE SMOOTH",
"322 566 OFFCURVE",
"216 693 OFFCURVE",
"30 693 CURVE SMOOTH",
"0 693 LINE",
"0 541 LINE",
"38 541 LINE SMOOTH",
"100 541 OFFCURVE",
"129 508 OFFCURVE",
"129 465 CURVE SMOOTH",
"129 419 OFFCURVE",
"96 363 OFFCURVE",
"36 324 CURVE",
"63 154 OFFCURVE",
"205 75 OFFCURVE",
"343 75 CURVE SMOOTH"
);
},
{
closed = 1;
nodes = (
"659 0 LINE",
"659 616 LINE",
"609 541 LINE",
"720 541 LINE",
"720 693 LINE",
"460 693 LINE",
"460 0 LINE"
);
}
);
width = 720;
}
);
leftMetricsKey = "ma-gurmukhi";
rightMetricsKey = "STEM-GURM";
unicode = 0A2A;
},
{
glyphname = "pha-gurmukhi";
layers = (
{
anchors = (
{
name = bindu;
position = "{497, 680}";
},
{
name = bottom;
position = "{387, 0}";
},
{
name = candra;
position = "{497, 690}";
},
{
name = caret_1;
position = "{363, 30}";
},
{
name = nukta;
position = "{59, -44}";
},
{
name = top;
position = "{467, 670}";
}
);
layerId = "37E353DF-6BB3-462E-BD25-B39B9A501818";
paths = (
{
closed = 1;
nodes = (
"277 108 LINE",
"299 163 OFFCURVE",
"382 197 OFFCURVE",
"429 197 CURVE SMOOTH",
"458 197 OFFCURVE",
"478 184 OFFCURVE",
"478 165 CURVE SMOOTH",
"478 130 OFFCURVE",
"412 115 OFFCURVE",
"360 115 CURVE SMOOTH",
"276 115 OFFCURVE",
"186 154 OFFCURVE",
"186 227 CURVE SMOOTH",
"186 280 OFFCURVE",
"235 331 OFFCURVE",
"330 331 CURVE SMOOTH",
"573 331 LINE",
"573 620 LINE",
"374 620 LINE",
"374 483 LINE",
"316 483 LINE SMOOTH",
"118 483 OFFCURVE",
"21 370 OFFCURVE",
"21 254 CURVE SMOOTH",
"21 125 OFFCURVE",
"142 -15 OFFCURVE",
"374 -15 CURVE SMOOTH",
"555 -15 OFFCURVE",
"645 71 OFFCURVE",
"645 161 CURVE SMOOTH",
"645 257 OFFCURVE",
"544 304 OFFCURVE",
"443 304 CURVE SMOOTH",
"341 304 OFFCURVE",
"227 260 OFFCURVE",
"191 158 CURVE"
);
},
{
closed = 1;
nodes = (
"661 541 LINE",
"661 693 LINE",
"0 693 LINE",
"0 541 LINE"
);
}
);
width = 661;
}
);
leftMetricsKey = "ra-gurmukhi";
rightMetricsKey = "ttha-gurmukhi";
unicode = 0A2B;
},
{
glyphname = "ba-gurmukhi";
layers = (
{
anchors = (
{
name = bindu;
position = "{535, 680}";
},
{
name = bottom;
position = "{565, 0}";
},
{
name = candra;
position = "{535, 690}";
},
{
name = caret_1;
position = "{353, 30}";
},
{
name = nukta;
position = "{108, -55}";
},
{
name = top;
position = "{565, 670}";
}
);
layerId = "37E353DF-6BB3-462E-BD25-B39B9A501818";
paths = (
{
closed = 1;
nodes = (
"407 27 OFFCURVE",
"466 43 OFFCURVE",
"516 74 CURVE",
"493 277 LINE",
"446 200 OFFCURVE",
"378 180 OFFCURVE",
"313 180 CURVE SMOOTH",
"237 180 OFFCURVE",
"225 208 OFFCURVE",
"213 221 CURVE",
"209 191 LINE",
"256 261 OFFCURVE",
"350 302 OFFCURVE",
"511 302 CURVE SMOOTH",
"550 302 LINE",
"550 434 LINE",
"431 434 LINE SMOOTH",
"321 435 OFFCURVE",
"267 499 OFFCURVE",
"264 579 CURVE",
"65 586 LINE",
"65 502 OFFCURVE",
"124 419 OFFCURVE",
"223 372 CURVE",
"222 401 LINE",
"143 365 OFFCURVE",
"75 316 OFFCURVE",
"32 253 CURVE",
"84 95 OFFCURVE",
"216 27 OFFCURVE",
"345 27 CURVE SMOOTH"
);
},
{
closed = 1;
nodes = (
"561 541 LINE",
"561 693 LINE",
"0 693 LINE",
"0 541 LINE"
);
},
{
closed = 1;
nodes = (
"662 0 LINE",
"662 616 LINE",
"612 541 LINE",
"723 541 LINE",
"723 693 LINE",
"463 693 LINE",
"463 0 LINE"
);
}
);
width = 723;
}
);
leftMetricsKey = "ra-gurmukhi";
rightMetricsKey = "STEM-GURM";
unicode = 0A2C;
},
{
glyphname = "bha-gurmukhi";
layers = (
{
anchors = (
{
name = bindu;
position = "{493, 680}";
},
{
name = bottom;
position = "{297, 2}";
},
{
name = candra;
position = "{493, 690}";
},
{
name = caret_1;
position = "{280, 30}";
},
{
name = nukta;
position = "{64, -111}";
},
{
name = top;
position = "{485, 670}";
}
);
layerId = "37E353DF-6BB3-462E-BD25-B39B9A501818";
paths = (
{
closed = 1;
nodes = (
"477 -17 OFFCURVE",
"578 90 OFFCURVE",
"578 206 CURVE SMOOTH",
"578 265 OFFCURVE",
"552 328 OFFCURVE",
"498 382 CURVE",
"504 317 LINE",
"551 356 OFFCURVE",
"575 467 OFFCURVE",
"575 532 CURVE",
"575 576 LINE",
"396 576 LINE",
"396 551 LINE",
"396 522 OFFCURVE",
"395 458 OFFCURVE",
"368 438 CURVE",
"407 454 LINE",
"347 487 OFFCURVE",
"277 505 OFFCURVE",
"217 505 CURVE SMOOTH",
"119 505 OFFCURVE",
"23 457 OFFCURVE",
"23 350 CURVE SMOOTH",
"23 228 OFFCURVE",
"149 179 OFFCURVE",
"252 179 CURVE SMOOTH",
"334 179 OFFCURVE",
"393 211 OFFCURVE",
"446 262 CURVE",
"411 273 LINE",
"413 257 OFFCURVE",
"413 243 OFFCURVE",
"413 230 CURVE SMOOTH",
"413 178 OFFCURVE",
"362 138 OFFCURVE",
"259 138 CURVE SMOOTH",
"193 138 OFFCURVE",
"119 155 OFFCURVE",
"62 175 CURVE",
"23 32 LINE",
"89 4 OFFCURVE",
"187 -17 OFFCURVE",
"276 -17 CURVE SMOOTH"
);
},
{
closed = 1;
nodes = (
"344 340 OFFCURVE",
"286 315 OFFCURVE",
"242 315 CURVE SMOOTH",
"213 315 OFFCURVE",
"189 326 OFFCURVE",
"189 349 CURVE SMOOTH",
"189 373 OFFCURVE",
"216 385 OFFCURVE",
"251 385 CURVE SMOOTH",
"291 385 OFFCURVE",
"340 369 OFFCURVE",
"364 337 CURVE",
"353 385 LINE"
);
},
{
closed = 1;
nodes = (
"636 541 LINE",
"636 693 LINE",
"0 693 LINE",
"0 541 LINE"
);
}
);
width = 626;
}
);
leftMetricsKey = "ta-gurmukhi";
rightMetricsKey = "ta-gurmukhi";
unicode = 0A2D;
},
{
glyphname = "ma-gurmukhi";
layers = (
{
anchors = (
{
name = bindu;
position = "{549, 680}";
},
{
name = bottom;
position = "{579, 0}";
},
{
name = candra;
position = "{549, 690}";
},
{
name = caret_1;
position = "{361, 30}";
},
{
name = nukta;
position = "{402, 22}";
},
{
name = top;
position = "{549, 670}";
}
);
layerId = "37E353DF-6BB3-462E-BD25-B39B9A501818";
paths = (
{
closed = 1;
nodes = (
"275 119 OFFCURVE",
"326 287 OFFCURVE",
"326 405 CURVE SMOOTH",
"326 588 OFFCURVE",
"198 693 OFFCURVE",
"21 693 CURVE SMOOTH",
"0 693 LINE",
"0 541 LINE",
"34 541 LINE SMOOTH",
"112 541 OFFCURVE",
"140 483 OFFCURVE",
"140 418 CURVE SMOOTH",
"140 374 OFFCURVE",
"137 346 OFFCURVE",
"130 319 CURVE",
"165 361 LINE",
"44 297 OFFCURVE",
"37 150 OFFCURVE",
"46 58 CURVE",
"208 30 LINE"
);
},
{
closed = 1;
nodes = (
"547 205 LINE",
"547 357 LINE",
"221 357 LINE",
"208 205 LINE"
);
},
{
closed = 1;
nodes = (
"676 0 LINE",
"676 616 LINE",
"626 541 LINE",
"737 541 LINE",
"737 693 LINE",
"477 693 LINE",
"477 0 LINE"
);
}
);
width = 737;
}
);
rightMetricsKey = "STEM-GURM";
unicode = 0A2E;
},
{
glyphname = "ya-gurmukhi";
layers = (
{
anchors = (
{
name = bindu;
position = "{675, 680}";
},
{
name = bottom;
position = "{705, 0}";
},
{
name = candra;
position = "{675, 690}";
},
{
name = caret_1;
position = "{419, 30}";
},
{
name = nukta;
position = "{120, -11}";
},
{
name = top;
position = "{705, 670}";
}
);
layerId = "37E353DF-6BB3-462E-BD25-B39B9A501818";
paths = (
{
closed = 1;
nodes = (
"459 75 OFFCURVE",
"555 143 OFFCURVE",
"555 273 CURVE",
"555 306 LINE",
"505 267 LINE",
"625 267 LINE",
"625 419 LINE",
"374 419 LINE",
"374 301 LINE",
"374 242 OFFCURVE",
"334 228 OFFCURVE",
"305 228 CURVE SMOOTH",
"246 228 OFFCURVE",
"229 258 OFFCURVE",
"219 282 CURVE",
"207 246 LINE",
"285 293 OFFCURVE",
"322 367 OFFCURVE",
"322 441 CURVE SMOOTH",
"322 566 OFFCURVE",
"216 693 OFFCURVE",
"30 693 CURVE SMOOTH",
"0 693 LINE",
"0 541 LINE",
"38 541 LINE SMOOTH",
"102 541 OFFCURVE",
"128 500 OFFCURVE",
"128 449 CURVE SMOOTH",
"128 392 OFFCURVE",
"94 361 OFFCURVE",
"36 324 CURVE",
"62 160 OFFCURVE",
"201 75 OFFCURVE",
"315 75 CURVE SMOOTH"
);
},
{
closed = 1;
nodes = (
"633 541 LINE",
"633 693 LINE",
"4 693 LINE",
"4 541 LINE"
);
},
{
closed = 1;
nodes = (
"802 0 LINE",
"802 616 LINE",
"752 541 LINE",
"863 541 LINE",
"863 693 LINE",
"603 693 LINE",
"603 0 LINE"
);
}
);
width = 863;
}
);
leftMetricsKey = "pa-gurmukhi";
rightMetricsKey = "STEM-GURM";
unicode = 0A2F;
},
{
glyphname = "ra-gurmukhi";
layers = (
{
anchors = (
{
name = bindu;
position = "{460, 680}";
},
{
name = bottom;
position = "{372, 0}";
},
{
name = candra;
position = "{460, 690}";
},
{
name = caret_1;
position = "{384, 30}";
},
{
name = nukta;
position = "{53, -33}";
},
{
name = top;
position = "{490, 670}";
}
);
layerId = "37E353DF-6BB3-462E-BD25-B39B9A501818";
paths = (
{
closed = 1;
nodes = (
"488 -17 OFFCURVE",
"590 44 OFFCURVE",
"590 172 CURVE SMOOTH",
"590 619 LINE",
"391 619 LINE",
"391 397 LINE",
"441 451 LINE",
"236 451 LINE SMOOTH",
"103 451 OFFCURVE",
"20 378 OFFCURVE",
"20 270 CURVE SMOOTH",
"20 105 OFFCURVE",
"211 -17 OFFCURVE",
"373 -17 CURVE SMOOTH"
);
},
{
closed = 1;
nodes = (
"275 136 OFFCURVE",
"221 187 OFFCURVE",
"221 242 CURVE SMOOTH",
"221 274 OFFCURVE",
"239 299 OFFCURVE",
"278 299 CURVE SMOOTH",
"442 299 LINE",
"392 326 LINE",
"392 194 LINE SMOOTH",
"392 158 OFFCURVE",
"386 136 OFFCURVE",
"342 136 CURVE SMOOTH"
);
},
{
closed = 1;
nodes = (
"651 541 LINE",
"651 693 LINE",
"0 693 LINE",
"0 541 LINE"
);
}
);
width = 651;
}
);
rightMetricsKey = "STEM-GURM";
unicode = 0A30;
},
{
glyphname = "la-gurmukhi";
layers = (
{
anchors = (
{
name = bindu;
position = "{592, 680}";
},
{
name = bottom;
position = "{561, 21}";
},
{
name = candra;
position = "{376, 690}";
},
{
name = caret_1;
position = "{375, 30}";
},
{
name = nukta;
position = "{377, -46}";
},
{
name = top;
position = "{562, 670}";
}
);
layerId = "37E353DF-6BB3-462E-BD25-B39B9A501818";
paths = (
{
closed = 1;
nodes = (
"310 142 LINE",
"263 152 OFFCURVE",
"228 182 OFFCURVE",
"228 226 CURVE SMOOTH",
"228 257 OFFCURVE",
"245 280 OFFCURVE",
"271 295 CURVE",
"313 273 OFFCURVE",
"356 254 OFFCURVE",
"394 237 CURVE",
"430 256 OFFCURVE",
"462 272 OFFCURVE",
"492 289 CURVE",
"511 274 OFFCURVE",
"524 254 OFFCURVE",
"524 227 CURVE SMOOTH",
"524 179 OFFCURVE",
"484 152 OFFCURVE",
"441 142 CURVE",
"459 -12 LINE",
"602 3 OFFCURVE",
"725 84 OFFCURVE",
"725 215 CURVE SMOOTH",
"725 290 OFFCURVE",
"685 355 OFFCURVE",
"624 397 CURVE",
"657 440 OFFCURVE",
"675 493 OFFCURVE",
"673 560 CURVE",
"472 560 LINE",
"477 487 OFFCURVE",
"419 435 OFFCURVE",
"360 410 CURVE",
"313 434 OFFCURVE",
"276 475 OFFCURVE",
"280 561 CURVE",
"79 562 LINE",
"77 502 OFFCURVE",
"97 452 OFFCURVE",
"128 409 CURVE",
"68 369 OFFCURVE",
"27 309 OFFCURVE",
"27 229 CURVE SMOOTH",
"27 89 OFFCURVE",
"153 10 OFFCURVE",
"292 -12 CURVE"
);
},
{
closed = 1;
nodes = (
"753 541 LINE",
"753 693 LINE",
"0 693 LINE",
"0 541 LINE"
);
}
);
width = 743;
}
);
rightMetricsKey = "ta-gurmukhi";
unicode = 0A32;
},
{
glyphname = "va-gurmukhi";
layers = (
{
anchors = (
{
name = bindu;
position = "{468, 680}";
},
{
name = bottom;
position = "{430, 0}";
},
{
name = candra;
position = "{468, 690}";
},
{
name = caret_1;
position = "{410, 30}";
},
{
name = nukta;
position = "{102, -48}";
},
{
name = top;
position = "{498, 670}";
}
);
layerId = "37E353DF-6BB3-462E-BD25-B39B9A501818";
paths = (
{
closed = 1;
nodes = (
"550 194 LINE",
"554 318 LINE",
"244 318 LINE",
"229 318 OFFCURVE",
"220 329 OFFCURVE",
"220 339 CURVE SMOOTH",
"220 349 OFFCURVE",
"228 359 OFFCURVE",
"243 359 CURVE",
"596 359 LINE",
"596 610 LINE",
"397 610 LINE",
"397 454 LINE",
"447 492 LINE",
"187 492 LINE",
"81 492 OFFCURVE",
"28 433 OFFCURVE",
"28 368 CURVE SMOOTH",
"28 287 OFFCURVE",
"105 194 OFFCURVE",
"255 194 CURVE"
);
},
{
closed = 1;
nodes = (
"496 -17 OFFCURVE",
"557 -7 OFFCURVE",
"605 7 CURVE",
"565 151 LINE",
"516 143 OFFCURVE",
"465 136 OFFCURVE",
"409 136 CURVE SMOOTH",
"326 136 OFFCURVE",
"288 151 OFFCURVE",
"288 185 CURVE",
"288 243 LINE",
"107 243 LINE",
"107 204 LINE",
"107 72 OFFCURVE",
"228 -17 OFFCURVE",
"429 -17 CURVE SMOOTH"
);
},
{
closed = 1;
nodes = (
"657 541 LINE",
"657 693 LINE",
"0 693 LINE",
"0 541 LINE"
);
}
);
width = 657;
}
);
leftMetricsKey = "ra-gurmukhi";
unicode = 0A35;
},
{
glyphname = "sa-gurmukhi";
layers = (
{
anchors = (
{
name = bindu;
position = "{550.993, 680}";
},
{
name = bottom;
position = "{579, 0}";
},
{
name = candra;
position = "{550.993, 690}";
},
{
name = caret_1;
position = "{361, 30}";
},
{
name = nukta;
position = "{361, 39}";
},
{
name = top;
position = "{581, 670}";
}
);
components = (
{
name = "ma-gurmukhi";
}
);
layerId = "37E353DF-6BB3-462E-BD25-B39B9A501818";
paths = (
{
closed = 1;
nodes = (
"646 541 LINE",
"646 693 LINE",
"1 693 LINE",
"1 541 LINE"
);
}
);
width = 737;
}
);
leftMetricsKey = "ma-gurmukhi";
rightMetricsKey = "ma-gurmukhi";
unicode = 0A38;
},
{
glyphname = "ha-gurmukhi";
layers = (
{
anchors = (
{
name = bindu;
position = "{460, 680}";
},
{
name = bottom;
position = "{372, 0}";
},
{
name = candra;
position = "{460, 690}";
},
{
name = caret_1;
position = "{386, 30}";
},
{
name = nukta;
position = "{51, -33}";
},
{
name = top;
position = "{490, 670}";
}
);
layerId = "37E353DF-6BB3-462E-BD25-B39B9A501818";
paths = (
{
closed = 1;
nodes = (
"489 -17 OFFCURVE",
"590 44 OFFCURVE",
"590 172 CURVE",
"590 619 LINE",
"391 619 LINE",
"392 194 LINE",
"392 160 OFFCURVE",
"387 136 OFFCURVE",
"344 136 CURVE SMOOTH",
"291 136 OFFCURVE",
"221 174 OFFCURVE",
"221 244 CURVE SMOOTH",
"221 283 OFFCURVE",
"244 299 OFFCURVE",
"328 299 CURVE",
"309 451 LINE",
"115 451 OFFCURVE",
"20 392 OFFCURVE",
"20 272 CURVE SMOOTH",
"20 102 OFFCURVE",
"211 -17 OFFCURVE",
"373 -17 CURVE SMOOTH"
);
},
{
closed = 1;
nodes = (
"651 541 LINE",
"651 693 LINE",
"0 693 LINE",
"0 541 LINE"
);
}
);
width = 651;
}
);
rightMetricsKey = "STEM-GURM";
unicode = 0A39;
},
{
glyphname = "rra-gurmukhi";
layers = (
{
anchors = (
{
name = bindu;
position = "{478, 680}";
},
{
name = bottom;
position = "{330, 24}";
},
{
name = candra;
position = "{478, 690}";
},
{
name = caret_1;
position = "{330, 63}";
},
{
name = top;
position = "{448, 670}";
}
);
layerId = "37E353DF-6BB3-462E-BD25-B39B9A501818";
paths = (
{
closed = 1;
nodes = (
"196 0 LINE",
"196 32 LINE SMOOTH",
"196 56 OFFCURVE",
"207 67 OFFCURVE",
"228 67 CURVE SMOOTH",
"265 67 OFFCURVE",
"277 34 OFFCURVE",
"351 34 CURVE SMOOTH",
"369 34 OFFCURVE",
"393 36 OFFCURVE",
"409 43 CURVE",
"362 74 LINE",
"400 1 LINE",
"570 0 LINE",
"571 18 LINE",
"497 139 LINE",
"494 75 LINE",
"546 110 OFFCURVE",
"576 161 OFFCURVE",
"576 213 CURVE SMOOTH",
"576 276 OFFCURVE",
"537 338 OFFCURVE",
"454 373 CURVE",
"466 338 LINE",
"533 386 OFFCURVE",
"557 452 OFFCURVE",
"557 544 CURVE",
"557 566 LINE",
"358 566 LINE",
"358 545 LINE",
"358 484 OFFCURVE",
"349 450 OFFCURVE",
"297 437 CURVE",
"355 436 LINE",
"312 459 OFFCURVE",
"255 469 OFFCURVE",
"201 469 CURVE SMOOTH",
"152 469 OFFCURVE",
"104 461 OFFCURVE",
"71 450 CURVE",
"83 300 LINE",
"120 287 OFFCURVE",
"163 281 OFFCURVE",
"213 281 CURVE SMOOTH",
"267 281 OFFCURVE",
"327 288 OFFCURVE",
"383 304 CURVE",
"318 307 LINE",
"355 301 OFFCURVE",
"384 267 OFFCURVE",
"384 234 CURVE SMOOTH",
"384 207 OFFCURVE",
"365 179 OFFCURVE",
"322 179 CURVE SMOOTH",
"269 179 OFFCURVE",
"255 217 OFFCURVE",
"176 217 CURVE SMOOTH",
"86 217 OFFCURVE",
"23 155 OFFCURVE",
"23 44 CURVE SMOOTH",
"23 0 LINE"
);
},
{
closed = 1;
nodes = (
"609 541 LINE",
"609 693 LINE",
"0 693 LINE",
"0 541 LINE"
);
}
);
width = 599;
}
);
leftMetricsKey = "ta-gurmukhi";
rightMetricsKey = "ta-gurmukhi";
unicode = 0A5C;
},
{
glyphname = "iri-gurmukhi";
layers = (
{
anchors = (
{
name = bindu;
position = "{457, 680}";
},
{
name = bottom;
position = "{403, 2}";
},
{
name = candra;
position = "{457, 690}";
},
{
name = caret_1;
position = "{405, 30}";
},
{
name = nukta;
position = "{110, -59}";
},
{
name = top;
position = "{487, 670}";
}
);
layerId = "37E353DF-6BB3-462E-BD25-B39B9A501818";
paths = (
{
closed = 1;
nodes = (
"475 -17 OFFCURVE",
"546 -1 OFFCURVE",
"608 28 CURVE",
"569 171 LINE",
"507 150 OFFCURVE",
"448 138 OFFCURVE",
"380 138 CURVE SMOOTH",
"311 138 OFFCURVE",
"234 150 OFFCURVE",
"198 217 CURVE",
"202 177 LINE",
"250 241 OFFCURVE",
"351 280 OFFCURVE",
"517 280 CURVE SMOOTH",
"587 280 LINE",
"587 618 LINE",
"388 618 LINE",
"388 379 LINE",
"435 427 LINE",
"399 427 LINE",
"287 427 OFFCURVE",
"232 490 OFFCURVE",
"229 567 CURVE",
"30 575 LINE",
"30 487 OFFCURVE",
"96 403 OFFCURVE",
"205 357 CURVE",
"203 386 LINE",
"127 347 OFFCURVE",
"60 296 OFFCURVE",
"20 234 CURVE",
"72 55 OFFCURVE",
"254 -17 OFFCURVE",
"404 -17 CURVE SMOOTH"
);
},
{
closed = 1;
nodes = (
"648 541 LINE",
"648 693 LINE",
"-23 693 LINE",
"-23 541 LINE"
);
}
);
width = 648;
}
);
rightMetricsKey = "STEM-GURM";
unicode = 0A72;
},
{
glyphname = "ura-gurmukhi";
layers = (
{
anchors = (
{
name = bindu;
position = "{710, 680}";
},
{
name = bottom;
position = "{413, 2}";
},
{
name = candra;
position = "{850, 650}";
},
{
name = caret_1;
position = "{414, 30}";
},
{
name = nukta;
position = "{92, -22}";
}
);
layerId = "37E353DF-6BB3-462E-BD25-B39B9A501818";
paths = (
{
closed = 1;
nodes = (
"564 -17 OFFCURVE",
"649 68 OFFCURVE",
"649 158 CURVE SMOOTH",
"649 237 OFFCURVE",
"583 325 OFFCURVE",
"448 363 CURVE",
"454 288 LINE",
"606 352 OFFCURVE",
"656 441 OFFCURVE",
"656 579 CURVE SMOOTH",
"656 801 OFFCURVE",
"528 959 OFFCURVE",
"332 959 CURVE SMOOTH",
"167 959 OFFCURVE",
"37 846 OFFCURVE",
"37 542 CURVE SMOOTH",
"37 275 OFFCURVE",
"137 -17 OFFCURVE",
"414 -17 CURVE SMOOTH"
);
},
{
closed = 1;
nodes = (
"247 138 OFFCURVE",
"225 375 OFFCURVE",
"225 525 CURVE SMOOTH",
"225 714 OFFCURVE",
"260 805 OFFCURVE",
"347 805 CURVE SMOOTH",
"419 805 OFFCURVE",
"464 742 OFFCURVE",
"464 609 CURVE SMOOTH",
"464 495 OFFCURVE",
"431 421 OFFCURVE",
"268 421 CURVE SMOOTH",
"149 421 LINE",
"149 288 LINE",
"331 288 LINE SMOOTH",
"406 288 OFFCURVE",
"454 236 OFFCURVE",
"454 192 CURVE SMOOTH",
"454 165 OFFCURVE",
"436 138 OFFCURVE",
"388 138 CURVE SMOOTH"
);
},
{
closed = 1;
nodes = (
"709 541 LINE",
"709 693 LINE",
"-23 693 LINE",
"-23 541 LINE"
);
}
);
width = 686;
}
);
unicode = 0A73;
},
{
glyphname = "ekonkar-gurmukhi";
layers = (
{
layerId = "37E353DF-6BB3-462E-BD25-B39B9A501818";
paths = (
{
closed = 1;
nodes = (
"1199 -17 OFFCURVE",
"1284 68 OFFCURVE",
"1284 160 CURVE SMOOTH",
"1284 229 OFFCURVE",
"1236 304 OFFCURVE",
"1137 349 CURVE",
"1141 312 LINE",
"1250 377 OFFCURVE",
"1286 458 OFFCURVE",
"1291 558 CURVE",
"1095 557 LINE",
"1084 473 OFFCURVE",
"1037 423 OFFCURVE",
"904 423 CURVE SMOOTH",
"846 423 LINE",
"868 290 LINE",
"966 290 LINE SMOOTH",
"1041 290 OFFCURVE",
"1089 237 OFFCURVE",
"1089 193 CURVE SMOOTH",
"1089 165 OFFCURVE",
"1070 138 OFFCURVE",
"1023 138 CURVE SMOOTH",
"879 138 OFFCURVE",
"860 387 OFFCURVE",
"860 533 CURVE SMOOTH",
"860 737 OFFCURVE",
"897 895 OFFCURVE",
"1193 895 CURVE",
"1092 924 LINE",
"1117 841 OFFCURVE",
"1215 798 OFFCURVE",
"1314 798 CURVE SMOOTH",
"1344 798 OFFCURVE",
"1370 802 OFFCURVE",
"1396 808 CURVE",
"1458 923 LINE",
"1380 982 OFFCURVE",
"1253 1033 OFFCURVE",
"1204 1034 CURVE",
"1227 997 LINE",
"1226 1006 OFFCURVE",
"1225 1015 OFFCURVE",
"1225 1023 CURVE SMOOTH",
"1225 1088 OFFCURVE",
"1283 1143 OFFCURVE",
"1366 1143 CURVE SMOOTH",
"1436 1143 OFFCURVE",
"1526 1104 OFFCURVE",
"1580 1025 CURVE",
"1708 1093 LINE",
"1628 1226 OFFCURVE",
"1481 1288 OFFCURVE",
"1357 1288 CURVE SMOOTH",
"1185 1288 OFFCURVE",
"1069 1169 OFFCURVE",
"1069 1037 CURVE SMOOTH",
"1069 1033 OFFCURVE",
"1069 1027 OFFCURVE",
"1069 1020 CURVE",
"1126 1043 LINE",
"857 1043 OFFCURVE",
"672 912 OFFCURVE",
"672 543 CURVE SMOOTH",
"672 276 OFFCURVE",
"769 -17 OFFCURVE",
"1049 -17 CURVE SMOOTH"
);
},
{
closed = 1;
nodes = (
"677 121 LINE",
"640 129 OFFCURVE",
"616 158 OFFCURVE",
"616 195 CURVE SMOOTH",
"616 376 LINE SMOOTH",
"616 597 OFFCURVE",
"462 712 OFFCURVE",
"298 712 CURVE SMOOTH",
"168 712 OFFCURVE",
"40 640 OFFCURVE",
"40 481 CURVE SMOOTH",
"40 309 OFFCURVE",
"189 219 OFFCURVE",
"329 219 CURVE SMOOTH",
"368 219 OFFCURVE",
"410 226 OFFCURVE",
"451 242 CURVE",
"423 280 LINE",
"423 208 LINE SMOOTH",
"423 77 OFFCURVE",
"517 -1 OFFCURVE",
"625 -23 CURVE"
);
},
{
closed = 1;
nodes = (
"1346 541 LINE",
"1346 693 LINE",
"860 693 LINE",
"843 541 LINE"
);
},
{
closed = 1;
nodes = (
"257 372 OFFCURVE",
"224 417 OFFCURVE",
"224 463 CURVE SMOOTH",
"224 510 OFFCURVE",
"258 557 OFFCURVE",
"324 557 CURVE SMOOTH",
"390 557 OFFCURVE",
"423 511 OFFCURVE",
"423 464 CURVE SMOOTH",
"423 418 OFFCURVE",
"390 372 OFFCURVE",
"323 372 CURVE SMOOTH"
);
}
);
width = 1463;
}
);
leftMetricsKey = "one-gurmukhi";
unicode = 0A74;
},
{
glyphname = "ya-gurmukhi.post";
layers = (
{
anchors = (
{
name = bindu;
position = "{408, 680}";
},
{
name = bottom;
position = "{438, 0}";
},
{
name = candra;
position = "{408, 690}";
},
{
name = caret_1;
position = "{141, 30}";
},
{
name = nukta;
position = "{140, -30}";
},
{
name = top;
position = "{438, 670}";
}
);
layerId = "37E353DF-6BB3-462E-BD25-B39B9A501818";
paths = (
{
closed = 1;
nodes = (
"39 79 LINE SMOOTH",
"189 79 OFFCURVE",
"291 145 OFFCURVE",
"291 279 CURVE SMOOTH",
"291 306 LINE",
"241 267 LINE",
"358 267 LINE",
"358 419 LINE",
"106 419 LINE",
"106 305 LINE SMOOTH",
"106 244 OFFCURVE",
"62 229 OFFCURVE",
"30 229 CURVE SMOOTH",
"-64 229 LINE",
"-64 79 LINE"
);
},
{
closed = 1;
nodes = (
"368 541 LINE",
"368 693 LINE",
"-10 693 LINE",
"-10 541 LINE"
);
},
{
closed = 1;
nodes = (
"536 0 LINE",
"536 616 LINE",
"486 541 LINE",
"597 541 LINE",
"597 693 LINE",
"337 693 LINE",
"337 0 LINE"
);
}
);
width = 597;
}
);
rightMetricsKey = "STEM-GURM";
},
{
glyphname = "ekonkar-gurmukhi.ss01";
layers = (
{
layerId = "37E353DF-6BB3-462E-BD25-B39B9A501818";
paths = (
{
closed = 1;
nodes = (
"1095 557 LINE",
"1084 473 OFFCURVE",
"1037 423 OFFCURVE",
"904 423 CURVE SMOOTH",
"846 423 LINE",
"868 290 LINE",
"966 290 LINE SMOOTH",
"1041 290 OFFCURVE",
"1089 237 OFFCURVE",
"1089 193 CURVE SMOOTH",
"1089 165 OFFCURVE",
"1070 138 OFFCURVE",
"1023 138 CURVE SMOOTH",
"872 138 OFFCURVE",
"860 413 OFFCURVE",
"860 522 CURVE SMOOTH",
"860 715 OFFCURVE",
"898 893 OFFCURVE",
"1144 893 CURVE",
"1186 821 OFFCURVE",
"1269 790 OFFCURVE",
"1351 790 CURVE SMOOTH",
"1381 790 OFFCURVE",
"1411 794 OFFCURVE",
"1439 803 CURVE",
"1500 917 LINE",
"1435 965 OFFCURVE",
"1354 1005 OFFCURVE",
"1268 1026 CURVE",
"1268 1031 OFFCURVE",
"1268 1035 OFFCURVE",
"1268 1040 CURVE SMOOTH",
"1268 1224 OFFCURVE",
"1414 1360 OFFCURVE",
"1635 1360 CURVE SMOOTH",
"1734 1360 OFFCURVE",
"1854 1333 OFFCURVE",
"1966 1278 CURVE",
"2035 1388 LINE",
"1911 1469 OFFCURVE",
"1761 1509 OFFCURVE",
"1625 1509 CURVE SMOOTH",
"1335 1509 OFFCURVE",
"1112 1329 OFFCURVE",
"1112 1052 CURVE",
"1112 997 LINE",
"1133 1043 LINE",
"861 1043 OFFCURVE",
"672 910 OFFCURVE",
"672 541 CURVE SMOOTH",
"672 276 OFFCURVE",
"769 -17 OFFCURVE",
"1049 -17 CURVE SMOOTH",
"1199 -17 OFFCURVE",
"1284 68 OFFCURVE",
"1284 160 CURVE SMOOTH",
"1284 229 OFFCURVE",
"1236 304 OFFCURVE",
"1137 349 CURVE",
"1141 312 LINE",
"1250 377 OFFCURVE",
"1286 458 OFFCURVE",
"1291 558 CURVE"
);
},
{
closed = 1;
nodes = (
"677 121 LINE",
"640 129 OFFCURVE",
"616 158 OFFCURVE",
"616 195 CURVE SMOOTH",
"616 376 LINE SMOOTH",
"616 597 OFFCURVE",
"462 712 OFFCURVE",
"298 712 CURVE SMOOTH",
"168 712 OFFCURVE",
"40 640 OFFCURVE",
"40 481 CURVE SMOOTH",
"40 310 OFFCURVE",
"187 219 OFFCURVE",
"328 219 CURVE SMOOTH",
"367 219 OFFCURVE",
"410 226 OFFCURVE",
"451 242 CURVE",
"423 280 LINE",
"423 208 LINE SMOOTH",
"423 77 OFFCURVE",
"517 -1 OFFCURVE",
"625 -23 CURVE"
);
},
{
closed = 1;
nodes = (
"1346 541 LINE",
"1346 693 LINE",
"860 693 LINE",
"843 541 LINE"
);
},
{
closed = 1;
nodes = (
"257 372 OFFCURVE",
"224 417 OFFCURVE",
"224 463 CURVE SMOOTH",
"224 510 OFFCURVE",
"258 557 OFFCURVE",
"324 557 CURVE SMOOTH",
"390 557 OFFCURVE",
"423 511 OFFCURVE",
"423 464 CURVE SMOOTH",
"423 418 OFFCURVE",
"390 372 OFFCURVE",
"323 372 CURVE SMOOTH"
);
}
);
width = 1463;
}
);
leftMetricsKey = "one-gurmukhi";
},
{
glyphname = zero;
layers = (
{
layerId = "37E353DF-6BB3-462E-BD25-B39B9A501818";
paths = (
{
closed = 1;
nodes = (
"128 707 OFFCURVE",
"29 580 OFFCURVE",
"29 351 CURVE SMOOTH",
"29 121 OFFCURVE",
"128 -5 OFFCURVE",
"309 -5 CURVE SMOOTH",
"488 -5 OFFCURVE",
"588 121 OFFCURVE",
"588 351 CURVE SMOOTH",
"588 580 OFFCURVE",
"488 707 OFFCURVE",
"309 707 CURVE SMOOTH"
);
},
{
closed = 1;
nodes = (
"368 565 OFFCURVE",
"390 506 OFFCURVE",
"390 351 CURVE SMOOTH",
"390 197 OFFCURVE",
"368 136 OFFCURVE",
"309 136 CURVE SMOOTH",
"249 136 OFFCURVE",
"227 197 OFFCURVE",
"227 351 CURVE SMOOTH",
"227 506 OFFCURVE",
"249 565 OFFCURVE",
"309 565 CURVE SMOOTH"
);
}
);
width = 617;
}
);
note = zero;
unicode = 0030;
},
{
glyphname = one;
layers = (
{
layerId = "37E353DF-6BB3-462E-BD25-B39B9A501818";
paths = (
{
closed = 1;
nodes = (
"423 0 LINE",
"423 701 LINE",
"87 701 LINE",
"87 535 LINE",
"215 535 LINE",
"215 0 LINE"
);
}
);
width = 617;
}
);
note = one;
unicode = 0031;
},
{
glyphname = two;
layers = (
{
layerId = "37E353DF-6BB3-462E-BD25-B39B9A501818";
paths = (
{
closed = 1;
nodes = (
"215 711 OFFCURVE",
"114 670 OFFCURVE",
"19 603 CURVE",
"97 453 LINE",
"163 508 OFFCURVE",
"234 542 OFFCURVE",
"289 542 CURVE SMOOTH",
"330 542 OFFCURVE",
"353 525 OFFCURVE",
"353 493 CURVE SMOOTH",
"353 466 OFFCURVE",
"326 426 OFFCURVE",
"292 391 CURVE SMOOTH",
"43 133 LINE",
"43 0 LINE",
"586 0 LINE",
"586 162 LINE",
"308 162 LINE",
"434 288 LINE SMOOTH",
"512 367 OFFCURVE",
"571 445 OFFCURVE",
"571 524 CURVE SMOOTH",
"571 636 OFFCURVE",
"464 711 OFFCURVE",
"321 711 CURVE SMOOTH"
);
}
);
width = 617;
}
);
note = two;
unicode = 0032;
},
{
glyphname = three;
layers = (
{
layerId = "37E353DF-6BB3-462E-BD25-B39B9A501818";
paths = (
{
closed = 1;
nodes = (
"368 421 LINE",
"544 583 LINE",
"544 700 LINE",
"43 700 LINE",
"43 546 LINE",
"297 546 LINE",
"149 403 LINE",
"149 294 LINE",
"274 294 LINE SMOOTH",
"340 294 OFFCURVE",
"375 269 OFFCURVE",
"375 220 CURVE SMOOTH",
"375 172 OFFCURVE",
"340 146 OFFCURVE",
"274 146 CURVE SMOOTH",
"208 146 OFFCURVE",
"145 177 OFFCURVE",
"89 238 CURVE",
"6 80 LINE",
"76 27 OFFCURVE",
"185 -9 OFFCURVE",
"291 -9 CURVE SMOOTH",
"466 -9 OFFCURVE",
"578 86 OFFCURVE",
"578 222 CURVE SMOOTH",
"578 328 OFFCURVE",
"505 397 OFFCURVE",
"402 415 CURVE SMOOTH"
);
}
);
width = 617;
}
);
note = three;
unicode = 0033;
},
{
glyphname = four;
layers = (
{
layerId = "37E353DF-6BB3-462E-BD25-B39B9A501818";
paths = (
{
closed = 1;
nodes = (
"220 702 LINE",
"26 280 LINE",
"26 144 LINE",
"334 144 LINE",
"334 0 LINE",
"524 0 LINE",
"524 144 LINE",
"609 144 LINE",
"609 296 LINE",
"524 296 LINE",
"524 438 LINE",
"334 438 LINE",
"334 296 LINE",
"235 296 LINE",
"416 702 LINE"
);
}
);
width = 617;
}
);
note = four;
unicode = 0034;
},
{
glyphname = five;
layers = (
{
layerId = "37E353DF-6BB3-462E-BD25-B39B9A501818";
paths = (
{
closed = 1;
nodes = (
"73 702 LINE",
"73 292 LINE",
"115 293 OFFCURVE",
"236 294 OFFCURVE",
"270 294 CURVE SMOOTH",
"331 294 OFFCURVE",
"363 269 OFFCURVE",
"363 223 CURVE SMOOTH",
"363 174 OFFCURVE",
"331 147 OFFCURVE",
"270 147 CURVE SMOOTH",
"206 147 OFFCURVE",
"146 178 OFFCURVE",
"93 240 CURVE",
"10 82 LINE",
"87 27 OFFCURVE",
"198 -9 OFFCURVE",
"295 -9 CURVE SMOOTH",
"472 -9 OFFCURVE",
"587 88 OFFCURVE",
"587 237 CURVE SMOOTH",
"587 364 OFFCURVE",
"479 449 OFFCURVE",
"311 449 CURVE SMOOTH",
"302 449 OFFCURVE",
"273 449 OFFCURVE",
"264 449 CURVE",
"264 540 LINE",
"555 540 LINE",
"555 702 LINE"
);
}
);
width = 617;
}
);
note = five;
unicode = 0035;
},
{
glyphname = six;
layers = (
{
layerId = "37E353DF-6BB3-462E-BD25-B39B9A501818";
paths = (
{
closed = 1;
nodes = (
"161 710 OFFCURVE",
"33 565 OFFCURVE",
"33 341 CURVE SMOOTH",
"33 126 OFFCURVE",
"148 -9 OFFCURVE",
"336 -9 CURVE SMOOTH",
"493 -9 OFFCURVE",
"598 86 OFFCURVE",
"598 235 CURVE SMOOTH",
"598 372 OFFCURVE",
"511 464 OFFCURVE",
"376 464 CURVE SMOOTH",
"305 464 OFFCURVE",
"255 438 OFFCURVE",
"223 397 CURVE",
"222 498 OFFCURVE",
"272 557 OFFCURVE",
"370 557 CURVE SMOOTH",
"424 557 OFFCURVE",
"473 541 OFFCURVE",
"511 511 CURVE",
"587 651 LINE",
"528 687 OFFCURVE",
"439 710 OFFCURVE",
"358 710 CURVE SMOOTH"
);
},
{
closed = 1;
nodes = (
"384 319 OFFCURVE",
"413 288 OFFCURVE",
"413 236 CURVE SMOOTH",
"413 180 OFFCURVE",
"382 150 OFFCURVE",
"329 150 CURVE SMOOTH",
"270 150 OFFCURVE",
"243 186 OFFCURVE",
"243 234 CURVE SMOOTH",
"243 285 OFFCURVE",
"274 319 OFFCURVE",
"331 319 CURVE SMOOTH"
);
}
);
width = 617;
}
);
note = six;
unicode = 0036;
},
{
glyphname = seven;
layers = (
{
layerId = "37E353DF-6BB3-462E-BD25-B39B9A501818";
paths = (
{
closed = 1;
nodes = (
"33 702 LINE",
"33 442 LINE",
"216 442 LINE",
"216 540 LINE",
"373 540 LINE",
"130 0 LINE",
"350 0 LINE",
"602 561 LINE",
"602 702 LINE"
);
}
);
width = 617;
}
);
note = seven;
unicode = 0037;
},
{
glyphname = eight;
layers = (
{
layerId = "37E353DF-6BB3-462E-BD25-B39B9A501818";
paths = (
{
closed = 1;
nodes = (
"156 711 OFFCURVE",
"57 638 OFFCURVE",
"57 524 CURVE SMOOTH",
"57 468 OFFCURVE",
"91 411 OFFCURVE",
"144 376 CURVE",
"69 342 OFFCURVE",
"21 272 OFFCURVE",
"21 195 CURVE SMOOTH",
"21 71 OFFCURVE",
"134 -9 OFFCURVE",
"308 -9 CURVE SMOOTH",
"483 -9 OFFCURVE",
"597 72 OFFCURVE",
"597 199 CURVE SMOOTH",
"597 274 OFFCURVE",
"552 342 OFFCURVE",
"483 376 CURVE",
"530 407 OFFCURVE",
"560 462 OFFCURVE",
"560 518 CURVE SMOOTH",
"560 635 OFFCURVE",
"461 711 OFFCURVE",
"307 711 CURVE SMOOTH"
);
},
{
closed = 1;
nodes = (
"369 294 OFFCURVE",
"403 266 OFFCURVE",
"403 216 CURVE SMOOTH",
"403 167 OFFCURVE",
"369 140 OFFCURVE",
"308 140 CURVE SMOOTH",
"248 140 OFFCURVE",
"215 167 OFFCURVE",
"215 216 CURVE SMOOTH",
"215 266 OFFCURVE",
"248 294 OFFCURVE",
"309 294 CURVE SMOOTH"
);
},
{
closed = 1;
nodes = (
"360 575 OFFCURVE",
"387 551 OFFCURVE",
"387 507 CURVE SMOOTH",
"387 465 OFFCURVE",
"360 442 OFFCURVE",
"308 442 CURVE SMOOTH",
"257 442 OFFCURVE",
"230 465 OFFCURVE",
"230 507 CURVE SMOOTH",
"230 551 OFFCURVE",
"257 575 OFFCURVE",
"308 575 CURVE SMOOTH"
);
}
);
width = 617;
}
);
note = eight;
unicode = 0038;
},
{
glyphname = nine;
layers = (
{
layerId = "37E353DF-6BB3-462E-BD25-B39B9A501818";
paths = (
{
closed = 1;
nodes = (
"457 -9 OFFCURVE",
"584 137 OFFCURVE",
"584 361 CURVE SMOOTH",
"584 576 OFFCURVE",
"470 710 OFFCURVE",
"282 710 CURVE SMOOTH",
"125 710 OFFCURVE",
"20 616 OFFCURVE",
"20 467 CURVE SMOOTH",
"20 329 OFFCURVE",
"107 237 OFFCURVE",
"241 237 CURVE SMOOTH",
"313 237 OFFCURVE",
"363 264 OFFCURVE",
"394 304 CURVE",
"395 203 OFFCURVE",
"346 145 OFFCURVE",
"247 145 CURVE SMOOTH",
"194 145 OFFCURVE",
"145 160 OFFCURVE",
"107 190 CURVE",
"31 51 LINE",
"90 14 OFFCURVE",
"179 -9 OFFCURVE",
"259 -9 CURVE SMOOTH"
);
},
{
closed = 1;
nodes = (
"234 383 OFFCURVE",
"206 413 OFFCURVE",
"206 466 CURVE SMOOTH",
"206 522 OFFCURVE",
"236 552 OFFCURVE",
"289 552 CURVE SMOOTH",
"347 552 OFFCURVE",
"375 516 OFFCURVE",
"374 468 CURVE SMOOTH",
"375 417 OFFCURVE",
"344 383 OFFCURVE",
"287 383 CURVE SMOOTH"
);
}
);
width = 617;
}
);
note = nine;
unicode = 0039;
},
{
glyphname = zero.lf;
layers = (
{
layerId = "37E353DF-6BB3-462E-BD25-B39B9A501818";
paths = (
{
closed = 1;
nodes = (
"150 707 OFFCURVE",
"38 580 OFFCURVE",
"38 351 CURVE SMOOTH",
"38 121 OFFCURVE",
"150 -6 OFFCURVE",
"355 -6 CURVE SMOOTH",
"558 -6 OFFCURVE",
"671 121 OFFCURVE",
"671 351 CURVE SMOOTH",
"671 580 OFFCURVE",
"558 707 OFFCURVE",
"355 707 CURVE SMOOTH"
);
},
{
closed = 1;
nodes = (
"428 556 OFFCURVE",
"457 501 OFFCURVE",
"457 351 CURVE SMOOTH",
"457 201 OFFCURVE",
"428 145 OFFCURVE",
"354 145 CURVE SMOOTH",
"280 145 OFFCURVE",
"251 201 OFFCURVE",
"251 351 CURVE SMOOTH",
"251 501 OFFCURVE",
"280 556 OFFCURVE",
"354 556 CURVE SMOOTH"
);
}
);
width = 708;
}
);
},
{
glyphname = one.lf;
layers = (
{
layerId = "37E353DF-6BB3-462E-BD25-B39B9A501818";
paths = (
{
closed = 1;
nodes = (
"337 0 LINE",
"337 701 LINE",
"4 701 LINE",
"4 535 LINE",
"129 535 LINE",
"129 0 LINE"
);
}
);
width = 425;
}
);
},
{
glyphname = two.lf;
layers = (
{
layerId = "37E353DF-6BB3-462E-BD25-B39B9A501818";
paths = (
{
closed = 1;
nodes = (
"210 710 OFFCURVE",
"111 669 OFFCURVE",
"16 602 CURVE",
"94 452 LINE",
"160 507 OFFCURVE",
"229 541 OFFCURVE",
"284 541 CURVE SMOOTH",
"323 541 OFFCURVE",
"345 524 OFFCURVE",
"345 493 CURVE SMOOTH",
"345 465 OFFCURVE",
"320 425 OFFCURVE",
"287 390 CURVE SMOOTH",
"41 132 LINE",
"41 0 LINE",
"577 0 LINE",
"577 162 LINE",
"306 162 LINE",
"429 287 LINE SMOOTH",
"506 366 OFFCURVE",
"563 444 OFFCURVE",
"563 523 CURVE SMOOTH",
"563 635 OFFCURVE",
"458 710 OFFCURVE",
"316 710 CURVE SMOOTH"
);
}
);
width = 605;
}
);
},
{
glyphname = three.lf;
layers = (
{
layerId = "37E353DF-6BB3-462E-BD25-B39B9A501818";
paths = (
{
closed = 1;
nodes = (
"350 421 LINE",
"511 582 LINE",
"511 699 LINE",
"31 699 LINE",
"32 545 LINE",
"274 545 LINE SMOOTH",
"131 403 LINE",
"131 293 LINE",
"252 293 LINE SMOOTH",
"309 293 OFFCURVE",
"340 269 OFFCURVE",
"340 220 CURVE SMOOTH",
"340 172 OFFCURVE",
"309 146 OFFCURVE",
"252 146 CURVE SMOOTH",
"190 146 OFFCURVE",
"131 177 OFFCURVE",
"78 238 CURVE",
"-4 80 LINE",
"62 27 OFFCURVE",
"168 -9 OFFCURVE",
"269 -9 CURVE SMOOTH",
"436 -9 OFFCURVE",
"543 86 OFFCURVE",
"543 222 CURVE SMOOTH",
"543 328 OFFCURVE",
"475 396 OFFCURVE",
"381 414 CURVE SMOOTH"
);
}
);
width = 567;
}
);
},
{
glyphname = four.lf;
layers = (
{
layerId = "37E353DF-6BB3-462E-BD25-B39B9A501818";
paths = (
{
closed = 1;
nodes = (
"238 701 LINE",
"26 281 LINE",
"26 143 LINE",
"357 143 LINE",
"357 0 LINE",
"550 0 LINE",
"550 143 LINE",
"641 143 LINE",
"642 296 LINE",
"550 296 LINE",
"550 437 LINE",
"357 437 LINE",
"357 296 LINE",
"238 296 LINE",
"437 701 LINE"
);
}
);
width = 650;
}
);
},
{
glyphname = five.lf;
layers = (
{
layerId = "37E353DF-6BB3-462E-BD25-B39B9A501818";
paths = (
{
closed = 1;
nodes = (
"70 701 LINE",
"70 291 LINE",
"111 292 OFFCURVE",
"231 293 OFFCURVE",
"264 293 CURVE SMOOTH",
"322 293 OFFCURVE",
"354 269 OFFCURVE",
"354 223 CURVE SMOOTH",
"354 174 OFFCURVE",
"322 147 OFFCURVE",
"264 147 CURVE SMOOTH",
"202 147 OFFCURVE",
"142 178 OFFCURVE",
"91 239 CURVE",
"8 82 LINE",
"83 27 OFFCURVE",
"193 -9 OFFCURVE",
"289 -9 CURVE SMOOTH",
"464 -9 OFFCURVE",
"578 88 OFFCURVE",
"578 237 CURVE SMOOTH",
"578 364 OFFCURVE",
"470 448 OFFCURVE",
"305 448 CURVE SMOOTH",
"296 448 OFFCURVE",
"269 448 OFFCURVE",
"260 448 CURVE",
"260 539 LINE",
"546 539 LINE",
"546 701 LINE"
);
}
);
width = 604;
}
);
},
{
glyphname = six.lf;
layers = (
{
layerId = "37E353DF-6BB3-462E-BD25-B39B9A501818";
paths = (
{
closed = 1;
nodes = (
"169 710 OFFCURVE",
"38 565 OFFCURVE",
"38 342 CURVE SMOOTH",
"38 127 OFFCURVE",
"155 -9 OFFCURVE",
"349 -9 CURVE SMOOTH",
"511 -9 OFFCURVE",
"618 86 OFFCURVE",
"618 236 CURVE SMOOTH",
"618 372 OFFCURVE",
"529 465 OFFCURVE",
"391 465 CURVE SMOOTH",
"319 465 OFFCURVE",
"268 439 OFFCURVE",
"237 402 CURVE",
"236 497 OFFCURVE",
"286 550 OFFCURVE",
"385 550 CURVE SMOOTH",
"440 550 OFFCURVE",
"489 534 OFFCURVE",
"528 504 CURVE",
"607 650 LINE",
"547 686 OFFCURVE",
"455 710 OFFCURVE",
"372 710 CURVE SMOOTH"
);
},
{
closed = 1;
nodes = (
"396 313 OFFCURVE",
"425 286 OFFCURVE",
"425 237 CURVE SMOOTH",
"425 184 OFFCURVE",
"395 157 OFFCURVE",
"341 157 CURVE SMOOTH",
"284 157 OFFCURVE",
"256 189 OFFCURVE",
"256 235 CURVE SMOOTH",
"256 283 OFFCURVE",
"287 313 OFFCURVE",
"343 313 CURVE SMOOTH"
);
}
);
width = 641;
}
);
leftMetricsKey = zero.lf;
},
{
glyphname = seven.lf;
layers = (
{
layerId = "37E353DF-6BB3-462E-BD25-B39B9A501818";
paths = (
{
closed = 1;
nodes = (
"31 701 LINE",
"31 441 LINE",
"214 441 LINE",
"214 539 LINE",
"366 539 LINE",
"127 0 LINE",
"347 0 LINE",
"595 560 LINE",
"595 701 LINE"
);
}
);
width = 607;
}
);
},
{
glyphname = eight.lf;
layers = (
{
layerId = "37E353DF-6BB3-462E-BD25-B39B9A501818";
paths = (
{
closed = 1;
nodes = (
"168 710 OFFCURVE",
"66 637 OFFCURVE",
"66 523 CURVE SMOOTH",
"66 467 OFFCURVE",
"102 410 OFFCURVE",
"157 375 CURVE",
"79 342 OFFCURVE",
"29 272 OFFCURVE",
"29 195 CURVE SMOOTH",
"29 71 OFFCURVE",
"145 -9 OFFCURVE",
"325 -9 CURVE SMOOTH",
"505 -9 OFFCURVE",
"621 72 OFFCURVE",
"621 198 CURVE SMOOTH",
"621 274 OFFCURVE",
"575 342 OFFCURVE",
"503 375 CURVE",
"552 406 OFFCURVE",
"584 461 OFFCURVE",
"584 517 CURVE SMOOTH",
"584 634 OFFCURVE",
"482 710 OFFCURVE",
"324 710 CURVE SMOOTH"
);
},
{
closed = 1;
nodes = (
"390 293 OFFCURVE",
"425 266 OFFCURVE",
"425 216 CURVE SMOOTH",
"425 167 OFFCURVE",
"389 141 OFFCURVE",
"324 141 CURVE SMOOTH",
"259 141 OFFCURVE",
"225 167 OFFCURVE",
"225 216 CURVE SMOOTH",
"225 266 OFFCURVE",
"259 293 OFFCURVE",
"324 293 CURVE SMOOTH"
);
},
{
closed = 1;
nodes = (
"380 573 OFFCURVE",
"410 550 OFFCURVE",
"410 506 CURVE SMOOTH",
"410 464 OFFCURVE",
"380 441 OFFCURVE",
"325 441 CURVE SMOOTH",
"270 441 OFFCURVE",
"241 464 OFFCURVE",
"241 506 CURVE SMOOTH",
"241 550 OFFCURVE",
"270 573 OFFCURVE",
"325 573 CURVE SMOOTH"
);
}
);
width = 650;
}
);
},
{
glyphname = zero.osf;
layers = (
{
layerId = "37E353DF-6BB3-462E-BD25-B39B9A501818";
paths = (
{
closed = 1;
nodes = (
"164 607 OFFCURVE",
"38 485 OFFCURVE",
"38 301 CURVE SMOOTH",
"38 115 OFFCURVE",
"164 -6 OFFCURVE",
"355 -6 CURVE SMOOTH",
"546 -6 OFFCURVE",
"671 115 OFFCURVE",
"671 301 CURVE SMOOTH",
"671 485 OFFCURVE",
"546 607 OFFCURVE",
"355 607 CURVE SMOOTH"
);
},
{
closed = 1;
nodes = (
"418 455 OFFCURVE",
"457 397 OFFCURVE",
"457 301 CURVE SMOOTH",
"457 204 OFFCURVE",
"418 146 OFFCURVE",
"354 146 CURVE SMOOTH",
"291 146 OFFCURVE",
"251 204 OFFCURVE",
"251 301 CURVE SMOOTH",
"251 397 OFFCURVE",
"291 455 OFFCURVE",
"354 455 CURVE SMOOTH"
);
}
);
width = 708;
}
);
},
{
glyphname = one.osf;
layers = (
{
layerId = "37E353DF-6BB3-462E-BD25-B39B9A501818";
paths = (
{
closed = 1;
nodes = (
"337 0 LINE",
"337 601 LINE",
"4 601 LINE",
"4 435 LINE",
"129 435 LINE",
"129 0 LINE"
);
}
);
width = 425;
}
);
},
{
glyphname = two.osf;
layers = (
{
layerId = "37E353DF-6BB3-462E-BD25-B39B9A501818";
paths = (
{
closed = 1;
nodes = (
"194 609 OFFCURVE",
"104 574 OFFCURVE",
"16 514 CURVE",
"93 364 LINE",
"153 411 OFFCURVE",
"213 442 OFFCURVE",
"260 442 CURVE SMOOTH",
"284 442 OFFCURVE",
"297 432 OFFCURVE",
"297 415 CURVE SMOOTH",
"297 396 OFFCURVE",
"277 368 OFFCURVE",
"254 344 CURVE SMOOTH",
"41 130 LINE",
"41 0 LINE",
"523 0 LINE",
"523 161 LINE",
"307 161 LINE",
"396 242 LINE",
"464 308 OFFCURVE",
"515 375 OFFCURVE",
"515 446 CURVE SMOOTH",
"515 543 OFFCURVE",
"419 609 OFFCURVE",
"293 609 CURVE SMOOTH"
);
}
);
width = 551;
}
);
leftMetricsKey = two.lf;
rightMetricsKey = two.lf;
},
{
glyphname = three.osf;
lastChange = "2016-05-14 08:45:31 +0000";
layers = (
{
layerId = "37E353DF-6BB3-462E-BD25-B39B9A501818";
paths = (
{
closed = 1;
nodes = (
"350 321 LINE",
"511 482 LINE",
"511 599 LINE",
"32 599 LINE",
"32 445 LINE",
"274 445 LINE SMOOTH",
"131 303 LINE",
"131 193 LINE",
"252 193 LINE SMOOTH",
"309 193 OFFCURVE",
"340 169 OFFCURVE",
"340 120 CURVE SMOOTH",
"340 72 OFFCURVE",
"309 46 OFFCURVE",
"252 46 CURVE SMOOTH",
"190 46 OFFCURVE",
"131 77 OFFCURVE",
"79 138 CURVE",
"-4 -20 LINE",
"62 -73 OFFCURVE",
"168 -109 OFFCURVE",
"269 -109 CURVE SMOOTH",
"436 -109 OFFCURVE",
"544 -14 OFFCURVE",
"544 122 CURVE SMOOTH",
"544 228 OFFCURVE",
"475 296 OFFCURVE",
"381 314 CURVE SMOOTH"
);
}
);
width = 567;
}
);
},
{
glyphname = four.osf;
layers = (
{
layerId = "37E353DF-6BB3-462E-BD25-B39B9A501818";
paths = (
{
closed = 1;
nodes = (
"238 601 LINE",
"26 181 LINE",
"26 43 LINE",
"357 43 LINE",
"357 -100 LINE",
"550 -100 LINE",
"550 43 LINE",
"642 43 LINE",
"642 196 LINE",
"550 196 LINE",
"550 337 LINE",
"357 337 LINE",
"357 196 LINE",
"238 196 LINE",
"437 601 LINE"
);
}
);
width = 650;
}
);
},
{
glyphname = five.osf;
layers = (
{
layerId = "37E353DF-6BB3-462E-BD25-B39B9A501818";
paths = (
{
closed = 1;
nodes = (
"70 601 LINE",
"70 191 LINE",
"111 192 OFFCURVE",
"231 193 OFFCURVE",
"264 193 CURVE SMOOTH",
"322 193 OFFCURVE",
"354 169 OFFCURVE",
"354 123 CURVE SMOOTH",
"354 74 OFFCURVE",
"322 47 OFFCURVE",
"264 47 CURVE SMOOTH",
"202 47 OFFCURVE",
"142 78 OFFCURVE",
"91 140 CURVE",
"8 -18 LINE",
"83 -73 OFFCURVE",
"193 -109 OFFCURVE",
"289 -109 CURVE SMOOTH",
"464 -109 OFFCURVE",
"578 -12 OFFCURVE",
"578 137 CURVE SMOOTH",
"578 264 OFFCURVE",
"470 348 OFFCURVE",
"305 348 CURVE SMOOTH",
"296 348 OFFCURVE",
"269 348 OFFCURVE",
"260 348 CURVE",
"260 439 LINE",
"546 439 LINE",
"545 601 LINE"
);
}
);
width = 604;
}
);
},
{
glyphname = six.osf;
layers = (
{
layerId = "37E353DF-6BB3-462E-BD25-B39B9A501818";
paths = (
{
closed = 1;
nodes = (
"169 710 OFFCURVE",
"38 565 OFFCURVE",
"38 342 CURVE SMOOTH",
"38 127 OFFCURVE",
"155 -9 OFFCURVE",
"349 -9 CURVE SMOOTH",
"511 -9 OFFCURVE",
"618 86 OFFCURVE",
"618 236 CURVE SMOOTH",
"618 372 OFFCURVE",
"529 465 OFFCURVE",
"391 465 CURVE SMOOTH",
"319 465 OFFCURVE",
"268 439 OFFCURVE",
"237 402 CURVE",
"236 497 OFFCURVE",
"286 550 OFFCURVE",
"385 550 CURVE SMOOTH",
"440 550 OFFCURVE",
"489 534 OFFCURVE",
"528 504 CURVE",
"607 650 LINE",
"547 686 OFFCURVE",
"455 710 OFFCURVE",
"372 710 CURVE SMOOTH"
);
},
{
closed = 1;
nodes = (
"396 313 OFFCURVE",
"425 286 OFFCURVE",
"425 237 CURVE SMOOTH",
"425 184 OFFCURVE",
"395 157 OFFCURVE",
"341 157 CURVE SMOOTH",
"284 157 OFFCURVE",
"256 189 OFFCURVE",
"256 235 CURVE SMOOTH",
"256 283 OFFCURVE",
"287 313 OFFCURVE",
"343 313 CURVE SMOOTH"
);
}
);
width = 641;
}
);
leftMetricsKey = zero.lf;
},
{
glyphname = seven.osf;
layers = (
{
layerId = "37E353DF-6BB3-462E-BD25-B39B9A501818";
paths = (
{
closed = 1;
nodes = (
"31 601 LINE",
"31 341 LINE",
"214 341 LINE",
"214 439 LINE",
"366 439 LINE",
"127 -100 LINE",
"346 -100 LINE",
"595 460 LINE",
"595 601 LINE"
);
}
);
width = 607;
}
);
},
{
glyphname = eight.osf;
layers = (
{
layerId = "37E353DF-6BB3-462E-BD25-B39B9A501818";
paths = (
{
closed = 1;
nodes = (
"168 710 OFFCURVE",
"66 637 OFFCURVE",
"66 523 CURVE SMOOTH",
"66 467 OFFCURVE",
"102 410 OFFCURVE",
"157 375 CURVE",
"79 342 OFFCURVE",
"29 272 OFFCURVE",
"29 195 CURVE SMOOTH",
"29 71 OFFCURVE",
"145 -9 OFFCURVE",
"325 -9 CURVE SMOOTH",
"505 -9 OFFCURVE",
"621 72 OFFCURVE",
"621 198 CURVE SMOOTH",
"621 274 OFFCURVE",
"575 342 OFFCURVE",
"503 375 CURVE",
"552 406 OFFCURVE",
"584 461 OFFCURVE",
"584 517 CURVE SMOOTH",
"584 634 OFFCURVE",
"482 710 OFFCURVE",
"324 710 CURVE SMOOTH"
);
},
{
closed = 1;
nodes = (
"390 293 OFFCURVE",
"425 266 OFFCURVE",
"425 216 CURVE SMOOTH",
"425 167 OFFCURVE",
"389 141 OFFCURVE",
"324 141 CURVE SMOOTH",
"259 141 OFFCURVE",
"225 167 OFFCURVE",
"225 216 CURVE SMOOTH",
"225 266 OFFCURVE",
"259 293 OFFCURVE",
"324 293 CURVE SMOOTH"
);
},
{
closed = 1;
nodes = (
"380 573 OFFCURVE",
"410 550 OFFCURVE",
"410 506 CURVE SMOOTH",
"410 464 OFFCURVE",
"380 441 OFFCURVE",
"325 441 CURVE SMOOTH",
"270 441 OFFCURVE",
"241 464 OFFCURVE",
"241 506 CURVE SMOOTH",
"241 550 OFFCURVE",
"270 573 OFFCURVE",
"325 573 CURVE SMOOTH"
);
}
);
width = 650;
}
);
},
{
glyphname = zero.tosf;
layers = (
{
layerId = "37E353DF-6BB3-462E-BD25-B39B9A501818";
paths = (
{
closed = 1;
nodes = (
"137 607 OFFCURVE",
"24 485 OFFCURVE",
"24 301 CURVE SMOOTH",
"24 117 OFFCURVE",
"137 -5 OFFCURVE",
"309 -5 CURVE SMOOTH",
"481 -5 OFFCURVE",
"593 117 OFFCURVE",
"593 301 CURVE SMOOTH",
"593 485 OFFCURVE",
"481 607 OFFCURVE",
"309 607 CURVE SMOOTH"
);
},
{
closed = 1;
nodes = (
"367 468 OFFCURVE",
"403 405 OFFCURVE",
"403 301 CURVE SMOOTH",
"403 196 OFFCURVE",
"367 133 OFFCURVE",
"308 133 CURVE SMOOTH",
"250 133 OFFCURVE",
"213 196 OFFCURVE",
"213 301 CURVE SMOOTH",
"213 405 OFFCURVE",
"250 468 OFFCURVE",
"308 468 CURVE SMOOTH"
);
}
);
width = 617;
}
);
userData = {
RMXScaler = {
source = zero.osf;
};
};
},
{
glyphname = one.tosf;
layers = (
{
layerId = "37E353DF-6BB3-462E-BD25-B39B9A501818";
paths = (
{
closed = 1;
nodes = (
"426 0 LINE",
"426 601 LINE",
"90 601 LINE",
"90 435 LINE",
"218 435 LINE",
"218 0 LINE"
);
}
);
width = 617;
}
);
userData = {
RMXScaler = {
source = one.osf;
};
};
},
{
glyphname = two.tosf;
layers = (
{
layerId = "37E353DF-6BB3-462E-BD25-B39B9A501818";
paths = (
{
closed = 1;
nodes = (
"220 610 OFFCURVE",
"124 575 OFFCURVE",
"32 515 CURVE",
"109 365 LINE",
"173 412 OFFCURVE",
"239 443 OFFCURVE",
"290 443 CURVE SMOOTH",
"323 443 OFFCURVE",
"341 433 OFFCURVE",
"341 415 CURVE SMOOTH",
"341 397 OFFCURVE",
"319 369 OFFCURVE",
"290 344 CURVE SMOOTH",
"56 131 LINE",
"57 0 LINE",
"572 0 LINE",
"572 161 LINE",
"323 161 LINE",
"432 242 LINE",
"505 309 OFFCURVE",
"560 376 OFFCURVE",
"560 447 CURVE SMOOTH",
"560 544 OFFCURVE",
"458 610 OFFCURVE",
"323 610 CURVE SMOOTH"
);
}
);
width = 617;
}
);
userData = {
RMXScaler = {
source = two.osf;
};
};
},
{
glyphname = three.tosf;
layers = (
{
layerId = "37E353DF-6BB3-462E-BD25-B39B9A501818";
paths = (
{
closed = 1;
nodes = (
"368 321 LINE",
"544 483 LINE",
"544 600 LINE",
"43 600 LINE",
"43 446 LINE",
"297 446 LINE",
"149 303 LINE",
"149 194 LINE",
"274 194 LINE SMOOTH",
"340 194 OFFCURVE",
"375 169 OFFCURVE",
"375 120 CURVE SMOOTH",
"375 72 OFFCURVE",
"340 46 OFFCURVE",
"274 46 CURVE SMOOTH",
"208 46 OFFCURVE",
"145 77 OFFCURVE",
"89 138 CURVE",
"6 -20 LINE",
"76 -73 OFFCURVE",
"185 -109 OFFCURVE",
"291 -109 CURVE SMOOTH",
"466 -109 OFFCURVE",
"578 -14 OFFCURVE",
"578 122 CURVE SMOOTH",
"578 228 OFFCURVE",
"505 297 OFFCURVE",
"402 315 CURVE SMOOTH"
);
}
);
width = 617;
}
);
},
{
glyphname = four.tosf;
layers = (
{
layerId = "37E353DF-6BB3-462E-BD25-B39B9A501818";
paths = (
{
closed = 1;
nodes = (
"220 602 LINE",
"26 180 LINE",
"26 44 LINE",
"334 44 LINE",
"334 -100 LINE",
"524 -100 LINE",
"524 44 LINE",
"609 44 LINE",
"609 196 LINE",
"524 196 LINE",
"524 338 LINE",
"334 338 LINE",
"334 196 LINE",
"235 196 LINE",
"416 602 LINE"
);
}
);
width = 617;
}
);
},
{
glyphname = five.tosf;
layers = (
{
layerId = "37E353DF-6BB3-462E-BD25-B39B9A501818";
paths = (
{
closed = 1;
nodes = (
"73 602 LINE",
"73 192 LINE",
"115 193 OFFCURVE",
"236 194 OFFCURVE",
"270 194 CURVE SMOOTH",
"330 194 OFFCURVE",
"362 169 OFFCURVE",
"362 123 CURVE SMOOTH",
"362 74 OFFCURVE",
"330 47 OFFCURVE",
"269 47 CURVE SMOOTH",
"206 47 OFFCURVE",
"145 78 OFFCURVE",
"93 140 CURVE",
"10 -18 LINE",
"87 -73 OFFCURVE",
"197 -109 OFFCURVE",
"294 -109 CURVE SMOOTH",
"472 -109 OFFCURVE",
"586 -12 OFFCURVE",
"586 137 CURVE SMOOTH",
"586 264 OFFCURVE",
"478 349 OFFCURVE",
"310 349 CURVE SMOOTH",
"302 349 OFFCURVE",
"273 349 OFFCURVE",
"263 349 CURVE",
"263 440 LINE",
"554 440 LINE",
"554 602 LINE"
);
}
);
width = 617;
}
);
},
{
glyphname = six.tosf;
layers = (
{
layerId = "37E353DF-6BB3-462E-BD25-B39B9A501818";
paths = (
{
closed = 1;
nodes = (
"161 710 OFFCURVE",
"33 565 OFFCURVE",
"33 341 CURVE SMOOTH",
"33 126 OFFCURVE",
"147 -9 OFFCURVE",
"336 -9 CURVE SMOOTH",
"493 -9 OFFCURVE",
"598 86 OFFCURVE",
"598 235 CURVE SMOOTH",
"598 372 OFFCURVE",
"511 464 OFFCURVE",
"376 464 CURVE SMOOTH",
"305 464 OFFCURVE",
"255 438 OFFCURVE",
"223 397 CURVE",
"222 498 OFFCURVE",
"272 557 OFFCURVE",
"370 557 CURVE SMOOTH",
"424 557 OFFCURVE",
"472 541 OFFCURVE",
"511 511 CURVE",
"587 651 LINE",
"528 687 OFFCURVE",
"439 710 OFFCURVE",
"358 710 CURVE SMOOTH"
);
},
{
closed = 1;
nodes = (
"384 319 OFFCURVE",
"413 288 OFFCURVE",
"413 236 CURVE SMOOTH",
"413 180 OFFCURVE",
"382 150 OFFCURVE",
"329 150 CURVE SMOOTH",
"271 150 OFFCURVE",
"243 186 OFFCURVE",
"243 234 CURVE SMOOTH",
"243 285 OFFCURVE",
"274 319 OFFCURVE",
"331 319 CURVE SMOOTH"
);
}
);
width = 617;
}
);
},
{
glyphname = seven.tosf;
layers = (
{
layerId = "37E353DF-6BB3-462E-BD25-B39B9A501818";
paths = (
{
closed = 1;
nodes = (
"33 602 LINE",
"33 342 LINE",
"216 342 LINE",
"216 440 LINE",
"373 440 LINE",
"130 -100 LINE",
"350 -100 LINE",
"602 461 LINE",
"602 602 LINE"
);
}
);
width = 617;
}
);
},
{
glyphname = eight.tosf;
layers = (
{
layerId = "37E353DF-6BB3-462E-BD25-B39B9A501818";
paths = (
{
closed = 1;
nodes = (
"156 711 OFFCURVE",
"57 638 OFFCURVE",
"57 524 CURVE SMOOTH",
"57 468 OFFCURVE",
"91 411 OFFCURVE",
"144 376 CURVE",
"70 342 OFFCURVE",
"21 272 OFFCURVE",
"21 195 CURVE SMOOTH",
"21 71 OFFCURVE",
"134 -9 OFFCURVE",
"309 -9 CURVE SMOOTH",
"484 -9 OFFCURVE",
"597 72 OFFCURVE",
"597 199 CURVE SMOOTH",
"597 274 OFFCURVE",
"553 342 OFFCURVE",
"484 376 CURVE",
"531 407 OFFCURVE",
"560 462 OFFCURVE",
"560 518 CURVE SMOOTH",
"560 635 OFFCURVE",
"462 711 OFFCURVE",
"308 711 CURVE SMOOTH"
);
},
{
closed = 1;
nodes = (
"369 294 OFFCURVE",
"402 266 OFFCURVE",
"402 216 CURVE SMOOTH",
"402 167 OFFCURVE",
"369 140 OFFCURVE",
"308 140 CURVE SMOOTH",
"247 140 OFFCURVE",
"215 167 OFFCURVE",
"215 216 CURVE SMOOTH",
"215 266 OFFCURVE",
"247 294 OFFCURVE",
"308 294 CURVE SMOOTH"
);
},
{
closed = 1;
nodes = (
"360 575 OFFCURVE",
"387 551 OFFCURVE",
"387 507 CURVE SMOOTH",
"387 465 OFFCURVE",
"360 442 OFFCURVE",
"308 442 CURVE SMOOTH",
"258 442 OFFCURVE",
"230 465 OFFCURVE",
"230 507 CURVE SMOOTH",
"230 551 OFFCURVE",
"258 575 OFFCURVE",
"308 575 CURVE SMOOTH"
);
}
);
width = 617;
}
);
},
{
glyphname = nine.tosf;
layers = (
{
layerId = "37E353DF-6BB3-462E-BD25-B39B9A501818";
paths = (
{
closed = 1;
nodes = (
"457 -109 OFFCURVE",
"584 37 OFFCURVE",
"584 261 CURVE SMOOTH",
"584 476 OFFCURVE",
"469 610 OFFCURVE",
"282 610 CURVE SMOOTH",
"124 610 OFFCURVE",
"20 516 OFFCURVE",
"20 367 CURVE SMOOTH",
"20 229 OFFCURVE",
"107 137 OFFCURVE",
"241 137 CURVE SMOOTH",
"312 137 OFFCURVE",
"362 164 OFFCURVE",
"394 204 CURVE",
"395 103 OFFCURVE",
"346 45 OFFCURVE",
"246 45 CURVE SMOOTH",
"193 45 OFFCURVE",
"145 60 OFFCURVE",
"107 90 CURVE",
"31 -49 LINE",
"90 -86 OFFCURVE",
"179 -109 OFFCURVE",
"258 -109 CURVE SMOOTH"
);
},
{
closed = 1;
nodes = (
"234 283 OFFCURVE",
"206 313 OFFCURVE",
"206 366 CURVE SMOOTH",
"206 422 OFFCURVE",
"236 452 OFFCURVE",
"289 452 CURVE SMOOTH",
"348 452 OFFCURVE",
"375 416 OFFCURVE",
"375 368 CURVE SMOOTH",
"375 317 OFFCURVE",
"345 283 OFFCURVE",
"287 283 CURVE SMOOTH"
);
}
);
width = 617;
}
);
},
{
glyphname = zero.dnom;
layers = (
{
layerId = "37E353DF-6BB3-462E-BD25-B39B9A501818";
paths = (
{
closed = 1;
nodes = (
"107 423 OFFCURVE",
"28 340 OFFCURVE",
"28 210 CURVE SMOOTH",
"28 79 OFFCURVE",
"107 -4 OFFCURVE",
"229 -4 CURVE SMOOTH",
"351 -4 OFFCURVE",
"429 79 OFFCURVE",
"429 210 CURVE SMOOTH",
"429 340 OFFCURVE",
"351 423 OFFCURVE",
"229 423 CURVE SMOOTH"
);
},
{
closed = 1;
nodes = (
"274 316 OFFCURVE",
"302 275 OFFCURVE",
"302 210 CURVE SMOOTH",
"302 144 OFFCURVE",
"274 103 OFFCURVE",
"228 103 CURVE SMOOTH",
"183 103 OFFCURVE",
"155 144 OFFCURVE",
"155 210 CURVE SMOOTH",
"155 275 OFFCURVE",
"183 316 OFFCURVE",
"228 316 CURVE SMOOTH"
);
}
);
width = 456;
}
);
},
{
glyphname = one.dnom;
layers = (
{
layerId = "37E353DF-6BB3-462E-BD25-B39B9A501818";
paths = (
{
closed = 1;
nodes = (
"225 419 LINE",
"7 419 LINE",
"7 312 LINE",
"84 312 LINE",
"84 0 LINE",
"225 0 LINE"
);
}
);
width = 281;
}
);
},
{
glyphname = two.dnom;
layers = (
{
layerId = "37E353DF-6BB3-462E-BD25-B39B9A501818";
paths = (
{
closed = 1;
nodes = (
"139 425 OFFCURVE",
"75 400 OFFCURVE",
"13 359 CURVE",
"66 262 LINE",
"107 294 OFFCURVE",
"151 315 OFFCURVE",
"184 315 CURVE",
"205 315 OFFCURVE",
"216 307 OFFCURVE",
"216 292 CURVE",
"216 277 OFFCURVE",
"201 255 OFFCURVE",
"183 236 CURVE SMOOTH",
"30 85 LINE",
"30 0 LINE",
"371 0 LINE",
"371 104 LINE",
"210 104 LINE",
"279 170 LINE SMOOTH",
"328 217 OFFCURVE",
"364 263 OFFCURVE",
"364 312 CURVE",
"364 380 OFFCURVE",
"297 425 OFFCURVE",
"207 425 CURVE"
);
}
);
width = 392;
}
);
},
{
glyphname = three.dnom;
layers = (
{
layerId = "37E353DF-6BB3-462E-BD25-B39B9A501818";
paths = (
{
closed = 1;
nodes = (
"235 253 LINE",
"332 341 LINE",
"332 417 LINE",
"24 417 LINE",
"24 320 LINE",
"173 320 LINE",
"88 241 LINE",
"88 170 LINE",
"165 170 LINE SMOOTH",
"197 170 OFFCURVE",
"214 158 OFFCURVE",
"214 133 CURVE SMOOTH",
"214 107 OFFCURVE",
"197 94 OFFCURVE",
"166 94 CURVE SMOOTH",
"127 94 OFFCURVE",
"91 114 OFFCURVE",
"58 152 CURVE",
"2 49 LINE",
"44 16 OFFCURVE",
"112 -6 OFFCURVE",
"177 -6 CURVE SMOOTH",
"284 -6 OFFCURVE",
"352 52 OFFCURVE",
"352 133 CURVE SMOOTH",
"352 196 OFFCURVE",
"310 237 OFFCURVE",
"255 249 CURVE SMOOTH"
);
}
);
width = 370;
}
);
},
{
glyphname = four.dnom;
layers = (
{
layerId = "37E353DF-6BB3-462E-BD25-B39B9A501818";
paths = (
{
closed = 1;
nodes = (
"285 419 LINE",
"151 419 LINE",
"21 171 LINE",
"21 82 LINE",
"228 82 LINE",
"228 0 LINE",
"359 0 LINE",
"359 82 LINE",
"416 82 LINE",
"416 178 LINE",
"359 178 LINE",
"359 260 LINE",
"228 260 LINE",
"228 178 LINE",
"164 178 LINE"
);
}
);
width = 424;
}
);
},
{
glyphname = five.dnom;
layers = (
{
layerId = "37E353DF-6BB3-462E-BD25-B39B9A501818";
paths = (
{
closed = 1;
nodes = (
"352 419 LINE",
"47 419 LINE",
"47 169 LINE",
"73 169 OFFCURVE",
"151 169 OFFCURVE",
"170 169 CURVE",
"203 169 OFFCURVE",
"220 157 OFFCURVE",
"220 134 CURVE",
"220 107 OFFCURVE",
"203 94 OFFCURVE",
"171 94 CURVE",
"132 94 OFFCURVE",
"96 114 OFFCURVE",
"64 153 CURVE",
"8 49 LINE",
"56 16 OFFCURVE",
"126 -6 OFFCURVE",
"188 -6 CURVE",
"300 -6 OFFCURVE",
"372 53 OFFCURVE",
"372 143 CURVE",
"372 219 OFFCURVE",
"304 268 OFFCURVE",
"199 268 CURVE",
"195 268 OFFCURVE",
"181 268 OFFCURVE",
"177 268 CURVE",
"177 315 LINE",
"352 315 LINE"
);
}
);
width = 392;
}
);
},
{
glyphname = six.dnom;
layers = (
{
layerId = "37E353DF-6BB3-462E-BD25-B39B9A501818";
paths = (
{
closed = 1;
nodes = (
"112 425 OFFCURVE",
"28 338 OFFCURVE",
"28 205 CURVE SMOOTH",
"28 76 OFFCURVE",
"103 -6 OFFCURVE",
"226 -6 CURVE SMOOTH",
"329 -6 OFFCURVE",
"397 52 OFFCURVE",
"397 141 CURVE SMOOTH",
"397 223 OFFCURVE",
"341 279 OFFCURVE",
"255 279 CURVE SMOOTH",
"212 279 OFFCURVE",
"181 265 OFFCURVE",
"163 246 CURVE",
"162 295 OFFCURVE",
"192 320 OFFCURVE",
"250 320 CURVE SMOOTH",
"284 320 OFFCURVE",
"314 311 OFFCURVE",
"338 293 CURVE",
"392 388 LINE",
"354 410 OFFCURVE",
"294 425 OFFCURVE",
"242 425 CURVE SMOOTH"
);
},
{
closed = 1;
nodes = (
"251 181 OFFCURVE",
"266 168 OFFCURVE",
"266 143 CURVE SMOOTH",
"266 115 OFFCURVE",
"250 102 OFFCURVE",
"220 102 CURVE SMOOTH",
"190 102 OFFCURVE",
"175 116 OFFCURVE",
"175 141 CURVE",
"175 167 OFFCURVE",
"191 181 OFFCURVE",
"221 181 CURVE SMOOTH"
);
}
);
width = 415;
}
);
},
{
glyphname = seven.dnom;
layers = (
{
layerId = "37E353DF-6BB3-462E-BD25-B39B9A501818";
paths = (
{
closed = 1;
nodes = (
"384 419 LINE",
"24 419 LINE",
"24 256 LINE",
"148 256 LINE",
"148 315 LINE",
"228 315 LINE",
"82 0 LINE",
"231 0 LINE",
"384 328 LINE"
);
}
);
width = 395;
}
);
},
{
glyphname = eight.dnom;
layers = (
{
layerId = "37E353DF-6BB3-462E-BD25-B39B9A501818";
paths = (
{
closed = 1;
nodes = (
"110 425 OFFCURVE",
"45 381 OFFCURVE",
"45 313 CURVE SMOOTH",
"45 280 OFFCURVE",
"67 245 OFFCURVE",
"100 224 CURVE",
"53 204 OFFCURVE",
"22 162 OFFCURVE",
"22 117 CURVE SMOOTH",
"22 43 OFFCURVE",
"96 -6 OFFCURVE",
"211 -6 CURVE SMOOTH",
"326 -6 OFFCURVE",
"399 43 OFFCURVE",
"399 119 CURVE SMOOTH",
"399 163 OFFCURVE",
"371 204 OFFCURVE",
"328 224 CURVE",
"357 244 OFFCURVE",
"376 276 OFFCURVE",
"376 308 CURVE SMOOTH",
"376 379 OFFCURVE",
"311 425 OFFCURVE",
"210 425 CURVE SMOOTH"
);
},
{
closed = 1;
nodes = (
"247 171 OFFCURVE",
"266 157 OFFCURVE",
"266 131 CURVE SMOOTH",
"266 104 OFFCURVE",
"246 92 OFFCURVE",
"210 92 CURVE SMOOTH",
"174 92 OFFCURVE",
"155 105 OFFCURVE",
"155 131 CURVE SMOOTH",
"155 157 OFFCURVE",
"174 171 OFFCURVE",
"210 171 CURVE SMOOTH"
);
},
{
closed = 1;
nodes = (
"241 337 OFFCURVE",
"257 324 OFFCURVE",
"257 301 CURVE SMOOTH",
"257 279 OFFCURVE",
"241 267 OFFCURVE",
"210 267 CURVE SMOOTH",
"179 267 OFFCURVE",
"163 279 OFFCURVE",
"163 301 CURVE SMOOTH",
"163 324 OFFCURVE",
"179 337 OFFCURVE",
"210 337 CURVE SMOOTH"
);
}
);
width = 421;
}
);
},
{
glyphname = nine.dnom;
layers = (
{
layerId = "37E353DF-6BB3-462E-BD25-B39B9A501818";
paths = (
{
closed = 1;
nodes = (
"304 -6 OFFCURVE",
"388 81 OFFCURVE",
"388 214 CURVE SMOOTH",
"388 342 OFFCURVE",
"313 425 OFFCURVE",
"190 425 CURVE SMOOTH",
"87 425 OFFCURVE",
"19 368 OFFCURVE",
"19 278 CURVE SMOOTH",
"19 195 OFFCURVE",
"75 139 OFFCURVE",
"161 139 CURVE SMOOTH",
"204 139 OFFCURVE",
"235 155 OFFCURVE",
"253 172 CURVE",
"254 123 OFFCURVE",
"224 99 OFFCURVE",
"166 99 CURVE SMOOTH",
"132 99 OFFCURVE",
"102 108 OFFCURVE",
"78 126 CURVE",
"24 31 LINE",
"62 8 OFFCURVE",
"121 -6 OFFCURVE",
"175 -6 CURVE SMOOTH"
);
},
{
closed = 1;
nodes = (
"165 238 OFFCURVE",
"150 252 OFFCURVE",
"150 277 CURVE SMOOTH",
"150 304 OFFCURVE",
"165 317 OFFCURVE",
"195 317 CURVE SMOOTH",
"226 317 OFFCURVE",
"241 303 OFFCURVE",
"241 277 CURVE",
"241 251 OFFCURVE",
"225 238 OFFCURVE",
"195 238 CURVE SMOOTH"
);
}
);
width = 416;
}
);
},
{
glyphname = zero.numr;
layers = (
{
layerId = "37E353DF-6BB3-462E-BD25-B39B9A501818";
paths = (
{
closed = 1;
nodes = (
"107 704 OFFCURVE",
"28 622 OFFCURVE",
"28 492 CURVE SMOOTH",
"28 361 OFFCURVE",
"107 277 OFFCURVE",
"229 277 CURVE SMOOTH",
"351 277 OFFCURVE",
"429 361 OFFCURVE",
"429 492 CURVE SMOOTH",
"429 622 OFFCURVE",
"351 704 OFFCURVE",
"229 704 CURVE SMOOTH"
);
},
{
closed = 1;
nodes = (
"274 598 OFFCURVE",
"302 557 OFFCURVE",
"302 492 CURVE SMOOTH",
"302 426 OFFCURVE",
"274 385 OFFCURVE",
"228 385 CURVE SMOOTH",
"183 385 OFFCURVE",
"155 426 OFFCURVE",
"155 492 CURVE SMOOTH",
"155 557 OFFCURVE",
"183 598 OFFCURVE",
"228 598 CURVE SMOOTH"
);
}
);
width = 456;
}
);
},
{
glyphname = one.numr;
layers = (
{
layerId = "37E353DF-6BB3-462E-BD25-B39B9A501818";
paths = (
{
closed = 1;
nodes = (
"225 701 LINE",
"7 701 LINE",
"7 593 LINE",
"84 593 LINE",
"84 281 LINE",
"225 281 LINE"
);
}
);
width = 281;
}
);
},
{
glyphname = two.numr;
layers = (
{
layerId = "37E353DF-6BB3-462E-BD25-B39B9A501818";
paths = (
{
closed = 1;
nodes = (
"139 706 OFFCURVE",
"75 682 OFFCURVE",
"13 641 CURVE",
"66 543 LINE",
"107 576 OFFCURVE",
"151 597 OFFCURVE",
"184 597 CURVE",
"205 597 OFFCURVE",
"216 589 OFFCURVE",
"216 574 CURVE",
"216 559 OFFCURVE",
"201 537 OFFCURVE",
"183 518 CURVE SMOOTH",
"30 366 LINE",
"30 281 LINE",
"371 281 LINE",
"371 386 LINE",
"210 386 LINE",
"279 452 LINE SMOOTH",
"328 499 OFFCURVE",
"364 545 OFFCURVE",
"364 593 CURVE",
"364 661 OFFCURVE",
"297 706 OFFCURVE",
"207 706 CURVE"
);
}
);
width = 392;
}
);
},
{
glyphname = three.numr;
layers = (
{
layerId = "37E353DF-6BB3-462E-BD25-B39B9A501818";
paths = (
{
closed = 1;
nodes = (
"235 535 LINE",
"332 623 LINE",
"332 699 LINE",
"24 699 LINE",
"24 601 LINE",
"173 601 LINE",
"88 523 LINE",
"88 452 LINE",
"165 452 LINE SMOOTH",
"197 452 OFFCURVE",
"214 439 OFFCURVE",
"214 414 CURVE SMOOTH",
"214 389 OFFCURVE",
"197 376 OFFCURVE",
"166 376 CURVE SMOOTH",
"127 376 OFFCURVE",
"91 395 OFFCURVE",
"58 434 CURVE",
"2 331 LINE",
"44 297 OFFCURVE",
"112 275 OFFCURVE",
"177 275 CURVE SMOOTH",
"284 275 OFFCURVE",
"352 333 OFFCURVE",
"352 414 CURVE SMOOTH",
"352 478 OFFCURVE",
"310 518 OFFCURVE",
"255 530 CURVE SMOOTH"
);
}
);
width = 370;
}
);
},
{
glyphname = four.numr;
layers = (
{
layerId = "37E353DF-6BB3-462E-BD25-B39B9A501818";
paths = (
{
closed = 1;
nodes = (
"285 701 LINE",
"151 701 LINE",
"21 452 LINE",
"21 363 LINE",
"228 363 LINE",
"228 281 LINE",
"359 281 LINE",
"359 363 LINE",
"416 363 LINE",
"416 460 LINE",
"359 460 LINE",
"359 542 LINE",
"228 542 LINE",
"228 460 LINE",
"164 460 LINE"
);
}
);
width = 424;
}
);
},
{
glyphname = five.numr;
layers = (
{
layerId = "37E353DF-6BB3-462E-BD25-B39B9A501818";
paths = (
{
closed = 1;
nodes = (
"352 701 LINE",
"47 701 LINE",
"47 450 LINE",
"73 451 OFFCURVE",
"151 451 OFFCURVE",
"170 451 CURVE",
"203 451 OFFCURVE",
"220 438 OFFCURVE",
"220 415 CURVE",
"220 389 OFFCURVE",
"203 376 OFFCURVE",
"171 376 CURVE",
"132 376 OFFCURVE",
"96 395 OFFCURVE",
"64 434 CURVE",
"8 330 LINE",
"56 298 OFFCURVE",
"126 275 OFFCURVE",
"188 275 CURVE",
"300 275 OFFCURVE",
"372 334 OFFCURVE",
"372 424 CURVE",
"372 501 OFFCURVE",
"304 549 OFFCURVE",
"199 549 CURVE",
"195 549 OFFCURVE",
"181 550 OFFCURVE",
"177 549 CURVE",
"177 597 LINE",
"352 597 LINE"
);
}
);
width = 392;
}
);
},
{
glyphname = six.numr;
layers = (
{
layerId = "37E353DF-6BB3-462E-BD25-B39B9A501818";
paths = (
{
closed = 1;
nodes = (
"112 706 OFFCURVE",
"28 619 OFFCURVE",
"28 486 CURVE SMOOTH",
"28 357 OFFCURVE",
"103 275 OFFCURVE",
"226 275 CURVE SMOOTH",
"329 275 OFFCURVE",
"397 333 OFFCURVE",
"397 423 CURVE SMOOTH",
"397 505 OFFCURVE",
"341 560 OFFCURVE",
"255 560 CURVE SMOOTH",
"212 560 OFFCURVE",
"181 546 OFFCURVE",
"163 528 CURVE",
"162 577 OFFCURVE",
"192 602 OFFCURVE",
"250 602 CURVE SMOOTH",
"284 602 OFFCURVE",
"314 593 OFFCURVE",
"338 574 CURVE",
"392 669 LINE",
"354 692 OFFCURVE",
"294 706 OFFCURVE",
"242 706 CURVE SMOOTH"
);
},
{
closed = 1;
nodes = (
"251 463 OFFCURVE",
"266 449 OFFCURVE",
"265.995 424 CURVE SMOOTH",
"266 397 OFFCURVE",
"250 384 OFFCURVE",
"220 384 CURVE SMOOTH",
"190 384 OFFCURVE",
"175 397 OFFCURVE",
"175 423 CURVE",
"175 449 OFFCURVE",
"191 463 OFFCURVE",
"221 463 CURVE SMOOTH"
);
}
);
width = 415;
}
);
},
{
glyphname = seven.numr;
layers = (
{
layerId = "37E353DF-6BB3-462E-BD25-B39B9A501818";
paths = (
{
closed = 1;
nodes = (
"384 701 LINE",
"24 701 LINE",
"24 538 LINE",
"148 538 LINE",
"148 597 LINE",
"228 597 LINE",
"82 281 LINE",
"231 281 LINE",
"384 610 LINE"
);
}
);
width = 395;
}
);
},
{
glyphname = eight.numr;
layers = (
{
layerId = "37E353DF-6BB3-462E-BD25-B39B9A501818";
paths = (
{
closed = 1;
nodes = (
"110 706 OFFCURVE",
"45 662 OFFCURVE",
"45 594 CURVE SMOOTH",
"45 561 OFFCURVE",
"67 527 OFFCURVE",
"100 506 CURVE",
"53 485 OFFCURVE",
"22 443 OFFCURVE",
"22 398 CURVE SMOOTH",
"22 324 OFFCURVE",
"96 275 OFFCURVE",
"211 275 CURVE SMOOTH",
"326 275 OFFCURVE",
"399 324 OFFCURVE",
"399 401 CURVE SMOOTH",
"399 444 OFFCURVE",
"371 485 OFFCURVE",
"328 506 CURVE",
"357 525 OFFCURVE",
"376 558 OFFCURVE",
"376 589 CURVE SMOOTH",
"376 660 OFFCURVE",
"311 706 OFFCURVE",
"210 706 CURVE SMOOTH"
);
},
{
closed = 1;
nodes = (
"247 452 OFFCURVE",
"266 438 OFFCURVE",
"266 412 CURVE SMOOTH",
"266 386 OFFCURVE",
"246 373 OFFCURVE",
"210 373 CURVE SMOOTH",
"174 373 OFFCURVE",
"155 386 OFFCURVE",
"155 412 CURVE SMOOTH",
"155 438 OFFCURVE",
"174 452 OFFCURVE",
"210 452 CURVE SMOOTH"
);
},
{
closed = 1;
nodes = (
"241 618 OFFCURVE",
"257 606 OFFCURVE",
"257 582 CURVE SMOOTH",
"257 560 OFFCURVE",
"241 549 OFFCURVE",
"210 549 CURVE SMOOTH",
"179 549 OFFCURVE",
"163 560 OFFCURVE",
"163 582 CURVE SMOOTH",
"163 606 OFFCURVE",
"179 618 OFFCURVE",
"210 618 CURVE SMOOTH"
);
}
);
width = 421;
}
);
},
{
glyphname = nine.numr;
layers = (
{
layerId = "37E353DF-6BB3-462E-BD25-B39B9A501818";
paths = (
{
closed = 1;
nodes = (
"304 275 OFFCURVE",
"388 362 OFFCURVE",
"388 495 CURVE SMOOTH",
"388 624 OFFCURVE",
"313 706 OFFCURVE",
"190 706 CURVE SMOOTH",
"87 706 OFFCURVE",
"19 649 OFFCURVE",
"19 559 CURVE SMOOTH",
"19 477 OFFCURVE",
"75 421 OFFCURVE",
"161 421 CURVE SMOOTH",
"204 421 OFFCURVE",
"235 436 OFFCURVE",
"253 454 CURVE",
"254 404 OFFCURVE",
"224 380 OFFCURVE",
"166 380 CURVE SMOOTH",
"132 380 OFFCURVE",
"102 389 OFFCURVE",
"78 407 CURVE",
"24 313 LINE",
"62 290 OFFCURVE",
"121 275 OFFCURVE",
"175 275 CURVE SMOOTH"
);
},
{
closed = 1;
nodes = (
"165 520 OFFCURVE",
"150 533 OFFCURVE",
"150 558 CURVE SMOOTH",
"150 586 OFFCURVE",
"165 598 OFFCURVE",
"195 598 CURVE SMOOTH",
"226 598 OFFCURVE",
"241 585 OFFCURVE",
"241 559 CURVE",
"241 533 OFFCURVE",
"225 520 OFFCURVE",
"195 520 CURVE SMOOTH"
);
}
);
width = 416;
}
);
},
{
glyphname = onesuperior;
layers = (
{
layerId = "37E353DF-6BB3-462E-BD25-B39B9A501818";
paths = (
{
closed = 1;
nodes = (
"225 701 LINE",
"7 701 LINE",
"7 593 LINE",
"84 593 LINE",
"84 281 LINE",
"225 281 LINE"
);
}
);
width = 281;
}
);
unicode = 00B9;
},
{
glyphname = twosuperior;
layers = (
{
layerId = "37E353DF-6BB3-462E-BD25-B39B9A501818";
paths = (
{
closed = 1;
nodes = (
"139 706 OFFCURVE",
"75 682 OFFCURVE",
"13 641 CURVE",
"66 543 LINE",
"107 576 OFFCURVE",
"151 597 OFFCURVE",
"184 597 CURVE",
"205 597 OFFCURVE",
"216 589 OFFCURVE",
"216 574 CURVE",
"216 559 OFFCURVE",
"201 537 OFFCURVE",
"183 518 CURVE SMOOTH",
"30 366 LINE",
"30 281 LINE",
"371 281 LINE",
"371 386 LINE",
"210 386 LINE",
"279 452 LINE SMOOTH",
"328 499 OFFCURVE",
"364 545 OFFCURVE",
"364 593 CURVE",
"364 661 OFFCURVE",
"297 706 OFFCURVE",
"207 706 CURVE"
);
}
);
width = 392;
}
);
unicode = 00B2;
},
{
glyphname = threesuperior;
layers = (
{
layerId = "37E353DF-6BB3-462E-BD25-B39B9A501818";
paths = (
{
closed = 1;
nodes = (
"235 535 LINE",
"332 623 LINE",
"332 699 LINE",
"24 699 LINE",
"24 601 LINE",
"173 601 LINE",
"88 523 LINE",
"88 452 LINE",
"165 452 LINE SMOOTH",
"197 452 OFFCURVE",
"214 439 OFFCURVE",
"214 414 CURVE SMOOTH",
"214 389 OFFCURVE",
"197 376 OFFCURVE",
"166 376 CURVE SMOOTH",
"127 376 OFFCURVE",
"91 395 OFFCURVE",
"58 434 CURVE",
"2 331 LINE",
"44 297 OFFCURVE",
"112 275 OFFCURVE",
"177 275 CURVE SMOOTH",
"284 275 OFFCURVE",
"352 333 OFFCURVE",
"352 414 CURVE SMOOTH",
"352 478 OFFCURVE",
"310 518 OFFCURVE",
"255 530 CURVE SMOOTH"
);
}
);
width = 370;
}
);
unicode = 00B3;
},
{
glyphname = fraction;
layers = (
{
layerId = "37E353DF-6BB3-462E-BD25-B39B9A501818";
paths = (
{
closed = 1;
nodes = (
"407 701 LINE",
"219 701 LINE",
"-274 0 LINE",
"-85 0 LINE"
);
}
);
width = 135;
}
);
unicode = 2044;
},
{
glyphname = "zero-gurmukhi";
layers = (
{
layerId = "37E353DF-6BB3-462E-BD25-B39B9A501818";
paths = (
{
closed = 1;
nodes = (
"611 43 OFFCURVE",
"722 188 OFFCURVE",
"722 342 CURVE SMOOTH",
"722 501 OFFCURVE",
"604 652 OFFCURVE",
"379 652 CURVE SMOOTH",
"160 652 OFFCURVE",
"49 509 OFFCURVE",
"49 355 CURVE SMOOTH",
"49 196 OFFCURVE",
"168 43 OFFCURVE",
"392 43 CURVE SMOOTH"
);
},
{
closed = 1;
nodes = (
"249 445 OFFCURVE",
"318 495 OFFCURVE",
"387 495 CURVE SMOOTH",
"455 495 OFFCURVE",
"523 446 OFFCURVE",
"523 348 CURVE SMOOTH",
"523 249 OFFCURVE",
"454 200 OFFCURVE",
"385 200 CURVE SMOOTH",
"317 200 OFFCURVE",
"249 249 OFFCURVE",
"249 347 CURVE SMOOTH"
);
}
);
width = 771;
}
);
unicode = 0A66;
},
{
glyphname = "one-gurmukhi";
layers = (
{
layerId = "37E353DF-6BB3-462E-BD25-B39B9A501818";
paths = (
{
closed = 1;
nodes = (
"616 0 LINE",
"616 376 LINE SMOOTH",
"616 597 OFFCURVE",
"462 712 OFFCURVE",
"298 712 CURVE SMOOTH",
"168 712 OFFCURVE",
"40 640 OFFCURVE",
"40 481 CURVE SMOOTH",
"40 310 OFFCURVE",
"187 219 OFFCURVE",
"329 219 CURVE SMOOTH",
"366 219 OFFCURVE",
"409 225 OFFCURVE",
"450 241 CURVE",
"423 280 LINE",
"423 0 LINE"
);
},
{
closed = 1;
nodes = (
"257 372 OFFCURVE",
"224 417 OFFCURVE",
"224 463 CURVE SMOOTH",
"224 510 OFFCURVE",
"258 557 OFFCURVE",
"324 557 CURVE SMOOTH",
"390 557 OFFCURVE",
"423 511 OFFCURVE",
"423 464 CURVE SMOOTH",
"423 418 OFFCURVE",
"390 372 OFFCURVE",
"323 372 CURVE SMOOTH"
);
}
);
width = 667;
}
);
unicode = 0A67;
},
{
glyphname = "two-gurmukhi";
layers = (
{
layerId = "37E353DF-6BB3-462E-BD25-B39B9A501818";
paths = (
{
closed = 1;
nodes = (
"608 11 LINE",
"608 89 OFFCURVE",
"567 211 OFFCURVE",
"454 281 CURVE",
"455 238 LINE",
"527 293 OFFCURVE",
"567 364 OFFCURVE",
"567 453 CURVE SMOOTH",
"567 634 OFFCURVE",
"402 715 OFFCURVE",
"237 715 CURVE SMOOTH",
"151 715 OFFCURVE",
"79 693 OFFCURVE",
"25 644 CURVE",
"101 510 LINE",
"151 539 OFFCURVE",
"213 557 OFFCURVE",
"265 557 CURVE SMOOTH",
"327 557 OFFCURVE",
"383 531 OFFCURVE",
"383 458 CURVE SMOOTH",
"383 398 OFFCURVE",
"345 356 OFFCURVE",
"269 341 CURVE",
"339 340 LINE",
"292 359 OFFCURVE",
"243 370 OFFCURVE",
"195 370 CURVE SMOOTH",
"151 370 OFFCURVE",
"108 361 OFFCURVE",
"70 344 CURVE",
"81 194 LINE",
"115 182 OFFCURVE",
"155 177 OFFCURVE",
"201 177 CURVE SMOOTH",
"258 177 OFFCURVE",
"321 185 OFFCURVE",
"373 203 CURVE",
"309 205 LINE",
"414 187 OFFCURVE",
"410 76 OFFCURVE",
"410 15 CURVE",
"410 1 LINE",
"608 0 LINE"
);
}
);
width = 631;
}
);
unicode = 0A68;
},
{
glyphname = "three-gurmukhi";
layers = (
{
layerId = "37E353DF-6BB3-462E-BD25-B39B9A501818";
paths = (
{
closed = 1;
nodes = (
"335 -119 LINE",
"357 17 LINE",
"313 -15 LINE",
"499 -15 OFFCURVE",
"601 76 OFFCURVE",
"601 179 CURVE SMOOTH",
"601 255 OFFCURVE",
"547 316 OFFCURVE",
"443 353 CURVE",
"444 326 LINE",
"534 356 OFFCURVE",
"591 408 OFFCURVE",
"591 492 CURVE SMOOTH",
"591 643 OFFCURVE",
"424 714 OFFCURVE",
"274 714 CURVE SMOOTH",
"186 714 OFFCURVE",
"102 691 OFFCURVE",
"50 644 CURVE",
"126 510 LINE",
"169 538 OFFCURVE",
"238 557 OFFCURVE",
"297 557 CURVE SMOOTH",
"347 557 OFFCURVE",
"398 543 OFFCURVE",
"398 493 CURVE SMOOTH",
"398 452 OFFCURVE",
"364 419 OFFCURVE",
"269 422 CURVE",
"357 413 LINE",
"300 435 OFFCURVE",
"256 441 OFFCURVE",
"216 441 CURVE SMOOTH",
"181 441 OFFCURVE",
"150 437 OFFCURVE",
"120 430 CURVE",
"131 280 LINE",
"166 268 OFFCURVE",
"206 263 OFFCURVE",
"247 263 CURVE SMOOTH",
"298 263 OFFCURVE",
"350 271 OFFCURVE",
"397 286 CURVE",
"330 285 LINE",
"378 282 OFFCURVE",
"406 251 OFFCURVE",
"406 209 CURVE SMOOTH",
"406 146 OFFCURVE",
"347 127 OFFCURVE",
"284 127 CURVE",
"335 104 LINE",
"299 172 OFFCURVE",
"194 199 OFFCURVE",
"97 211 CURVE",
"47 85 LINE",
"72 51 OFFCURVE",
"113 21 OFFCURVE",
"156 5 CURVE",
"136 -102 LINE",
"136 -119 LINE"
);
}
);
width = 655;
}
);
unicode = 0A69;
},
{
glyphname = "four-gurmukhi";
layers = (
{
layerId = "37E353DF-6BB3-462E-BD25-B39B9A501818";
paths = (
{
closed = 1;
nodes = (
"533 -9 OFFCURVE",
"645 65 OFFCURVE",
"645 168 CURVE SMOOTH",
"645 230 OFFCURVE",
"605 280 OFFCURVE",
"528 316 CURVE",
"530 285 LINE",
"607 323 OFFCURVE",
"664 394 OFFCURVE",
"664 483 CURVE SMOOTH",
"664 616 OFFCURVE",
"537 690 OFFCURVE",
"409 708 CURVE",
"391 553 LINE",
"431 545 OFFCURVE",
"463 523 OFFCURVE",
"463 485 CURVE SMOOTH",
"463 436 OFFCURVE",
"410 407 OFFCURVE",
"356 407 CURVE SMOOTH",
"302 407 OFFCURVE",
"249 436 OFFCURVE",
"249 485 CURVE SMOOTH",
"249 522 OFFCURVE",
"280 545 OFFCURVE",
"320 553 CURVE",
"302 708 LINE",
"169 693 OFFCURVE",
"48 617 OFFCURVE",
"48 499 CURVE SMOOTH",
"48 415 OFFCURVE",
"109 361 OFFCURVE",
"185 332 CURVE",
"173 361 LINE",
"113 324 OFFCURVE",
"67 264 OFFCURVE",
"67 187 CURVE SMOOTH",
"67 66 OFFCURVE",
"181 -9 OFFCURVE",
"358 -9 CURVE SMOOTH"
);
},
{
closed = 1;
nodes = (
"264 247 OFFCURVE",
"310 272 OFFCURVE",
"355 272 CURVE SMOOTH",
"402 272 OFFCURVE",
"448 247 OFFCURVE",
"448 197 CURVE SMOOTH",
"448 147 OFFCURVE",
"402 122 OFFCURVE",
"357 122 CURVE SMOOTH",
"310 122 OFFCURVE",
"264 147 OFFCURVE",
"264 197 CURVE SMOOTH"
);
}
);
width = 713;
}
);
unicode = 0A6A;
},
{
glyphname = "five-gurmukhi";
layers = (
{
layerId = "37E353DF-6BB3-462E-BD25-B39B9A501818";
paths = (
{
closed = 1;
nodes = (
"400 73 OFFCURVE",
"477 89 OFFCURVE",
"523 119 CURVE",
"483 330 LINE",
"446 246 OFFCURVE",
"381 226 OFFCURVE",
"331 226 CURVE SMOOTH",
"212 226 OFFCURVE",
"205 295 OFFCURVE",
"204 312 CURVE",
"178 225 LINE",
"275 286 OFFCURVE",
"303 374 OFFCURVE",
"303 469 CURVE SMOOTH",
"303 543 OFFCURVE",
"286 619 OFFCURVE",
"270 693 CURVE",
"82 694 LINE",
"81 677 LINE",
"98 624 OFFCURVE",
"111 567 OFFCURVE",
"111 510 CURVE SMOOTH",
"111 438 OFFCURVE",
"91 370 OFFCURVE",
"27 322 CURVE",
"56 163 OFFCURVE",
"195 73 OFFCURVE",
"345 73 CURVE SMOOTH"
);
},
{
closed = 1;
nodes = (
"670 0 LINE",
"670 693 LINE",
"471 693 LINE",
"471 0 LINE"
);
}
);
width = 720;
}
);
unicode = 0A6B;
},
{
glyphname = "six-gurmukhi";
layers = (
{
layerId = "37E353DF-6BB3-462E-BD25-B39B9A501818";
paths = (
{
closed = 1;
nodes = (
"433 -16 OFFCURVE",
"512 -4 OFFCURVE",
"576 27 CURVE",
"537 170 LINE",
"489 155 OFFCURVE",
"411 138 OFFCURVE",
"344 138 CURVE SMOOTH",
"284 138 OFFCURVE",
"229 152 OFFCURVE",
"229 202 CURVE SMOOTH",
"229 248 OFFCURVE",
"275 279 OFFCURVE",
"391 271 CURVE",
"301 281 LINE",
"344 267 OFFCURVE",
"380 263 OFFCURVE",
"414 263 CURVE SMOOTH",
"447 263 OFFCURVE",
"478 267 OFFCURVE",
"508 275 CURVE",
"519 424 LINE",
"478 436 OFFCURVE",
"428 442 OFFCURVE",
"382 442 CURVE SMOOTH",
"328 442 OFFCURVE",
"276 433 OFFCURVE",
"227 418 CURVE",
"285 411 LINE",
"261 424 OFFCURVE",
"244 451 OFFCURVE",
"244 486 CURVE SMOOTH",
"244 544 OFFCURVE",
"297 562 OFFCURVE",
"347 562 CURVE",
"296 579 LINE",
"342 543 OFFCURVE",
"402 525 OFFCURVE",
"461 526 CURVE SMOOTH",
"486 526 OFFCURVE",
"512 530 OFFCURVE",
"535 536 CURVE",
"562 669 LINE",
"508 693 OFFCURVE",
"427 713 OFFCURVE",
"346 715 CURVE",
"393 696 LINE",
"383 702 OFFCURVE",
"375 723 OFFCURVE",
"375 747 CURVE SMOOTH",
"375 793 OFFCURVE",
"408 815 OFFCURVE",
"443 815 CURVE SMOOTH",
"456 815 OFFCURVE",
"470 812 OFFCURVE",
"483 807 CURVE",
"548 924 LINE",
"516 948 OFFCURVE",
"477 957 OFFCURVE",
"435 957 CURVE SMOOTH",
"322 957 OFFCURVE",
"219 893 OFFCURVE",
"219 750 CURVE SMOOTH",
"219 724 OFFCURVE",
"221 700 OFFCURVE",
"229 675 CURVE",
"254 710 LINE",
"122 689 OFFCURVE",
"56 605 OFFCURVE",
"56 517 CURVE SMOOTH",
"56 453 OFFCURVE",
"94 385 OFFCURVE",
"160 333 CURVE",
"165 372 LINE",
"87 334 OFFCURVE",
"48 280 OFFCURVE",
"48 208 CURVE SMOOTH",
"48 59 OFFCURVE",
"231 -16 OFFCURVE",
"374 -16 CURVE SMOOTH"
);
}
);
width = 623;
}
);
unicode = 0A6C;
},
{
glyphname = "seven-gurmukhi";
layers = (
{
layerId = "37E353DF-6BB3-462E-BD25-B39B9A501818";
paths = (
{
closed = 1;
nodes = (
"190 712 OFFCURVE",
"105 604 OFFCURVE",
"105 484 CURVE SMOOTH",
"105 439 OFFCURVE",
"117 392 OFFCURVE",
"140 348 CURVE",
"309 411 LINE",
"304 428 OFFCURVE",
"300 447 OFFCURVE",
"300 466 CURVE SMOOTH",
"300 510 OFFCURVE",
"320 553 OFFCURVE",
"373 553 CURVE SMOOTH",
"449 553 OFFCURVE",
"484 464 OFFCURVE",
"484 372 CURVE SMOOTH",
"484 217 OFFCURVE",
"385 138 OFFCURVE",
"252 138 CURVE SMOOTH",
"198 138 OFFCURVE",
"134 151 OFFCURVE",
"68 175 CURVE",
"29 32 LINE",
"112 -1 OFFCURVE",
"198 -17 OFFCURVE",
"276 -17 CURVE SMOOTH",
"480 -17 OFFCURVE",
"674 94 OFFCURVE",
"674 356 CURVE SMOOTH",
"674 560 OFFCURVE",
"557 712 OFFCURVE",
"358 712 CURVE SMOOTH"
);
}
);
width = 725;
}
);
unicode = 0A6D;
},
{
glyphname = "eight-gurmukhi";
layers = (
{
layerId = "37E353DF-6BB3-462E-BD25-B39B9A501818";
paths = (
{
closed = 1;
nodes = (
"588 -17 OFFCURVE",
"656 -1 OFFCURVE",
"711 28 CURVE",
"672 171 LINE",
"618 153 OFFCURVE",
"560 138 OFFCURVE",
"503 138 CURVE SMOOTH",
"416 138 OFFCURVE",
"345 169 OFFCURVE",
"345 257 CURVE SMOOTH",
"345 433 LINE",
"681 433 LINE",
"681 585 LINE",
"313 585 LINE",
"265 637 OFFCURVE",
"150 661 OFFCURVE",
"66 668 CURVE",
"6 544 LINE",
"47 492 OFFCURVE",
"103 462 OFFCURVE",
"158 445 CURVE",
"158 276 LINE SMOOTH",
"158 104 OFFCURVE",
"334 -17 OFFCURVE",
"517 -17 CURVE SMOOTH"
);
}
);
width = 760;
}
);
unicode = 0A6E;
},
{
glyphname = "nine-gurmukhi";
layers = (
{
components = (
{
name = "eight-gurmukhi";
}
);
layerId = "37E353DF-6BB3-462E-BD25-B39B9A501818";
paths = (
{
closed = 1;
nodes = (
"684 423 OFFCURVE",
"713 428 OFFCURVE",
"739 436 CURVE",
"680 585 LINE",
"669 580 OFFCURVE",
"657 578 OFFCURVE",
"647 578 CURVE SMOOTH",
"608 578 OFFCURVE",
"574 600 OFFCURVE",
"574 646 CURVE SMOOTH",
"574 692 OFFCURVE",
"607 714 OFFCURVE",
"642 714 CURVE SMOOTH",
"655 714 OFFCURVE",
"669 711 OFFCURVE",
"683 706 CURVE",
"747 823 LINE",
"715 847 OFFCURVE",
"675 856 OFFCURVE",
"635 856 CURVE SMOOTH",
"520 856 OFFCURVE",
"418 792 OFFCURVE",
"418 650 CURVE SMOOTH",
"418 494 OFFCURVE",
"539 423 OFFCURVE",
"657 423 CURVE SMOOTH"
);
}
);
width = 784;
}
);
leftMetricsKey = "eight-gurmukhi";
unicode = 0A6F;
},
{
glyphname = asterisk;
layers = (
{
layerId = "37E353DF-6BB3-462E-BD25-B39B9A501818";
paths = (
{
closed = 1;
nodes = (
"372 501 LINE",
"291 547 LINE",
"372 591 LINE",
"323 674 LINE",
"245 626 LINE",
"247 719 LINE",
"147 719 LINE",
"148 626 LINE",
"70 675 LINE",
"21 591 LINE",
"101 547 LINE",
"21 501 LINE",
"70 419 LINE",
"149 467 LINE",
"147 375 LINE",
"247 375 LINE",
"244 466 LINE",
"323 418 LINE"
);
}
);
width = 394;
}
);
unicode = 002A;
},
{
glyphname = bullet;
layers = (
{
layerId = "37E353DF-6BB3-462E-BD25-B39B9A501818";
paths = (
{
closed = 1;
nodes = (
"92 417 OFFCURVE",
"34 361 OFFCURVE",
"34 282 CURVE SMOOTH",
"34 201 OFFCURVE",
"92 145 OFFCURVE",
"174 145 CURVE SMOOTH",
"258 145 OFFCURVE",
"316 201 OFFCURVE",
"316 282 CURVE SMOOTH",
"316 361 OFFCURVE",
"258 417 OFFCURVE",
"174 417 CURVE SMOOTH"
);
}
);
width = 348;
}
);
leftMetricsKey = period;
rightMetricsKey = period;
unicode = 2022;
},
{
glyphname = comma;
layers = (
{
layerId = "37E353DF-6BB3-462E-BD25-B39B9A501818";
paths = (
{
closed = 1;
nodes = (
"22 -104 LINE",
"117 -104 LINE",
"197 13 LINE SMOOTH",
"212 35 OFFCURVE",
"222 59 OFFCURVE",
"222 87 CURVE SMOOTH",
"222 147 OFFCURVE",
"178 180 OFFCURVE",
"129 180 CURVE SMOOTH",
"74 180 OFFCURVE",
"35 141 OFFCURVE",
"35 86 CURVE SMOOTH",
"35 35 OFFCURVE",
"72 -9 OFFCURVE",
"156 -6 CURVE",
"100 86 LINE"
);
}
);
width = 254;
}
);
unicode = 002C;
},
{
glyphname = exclam;
layers = (
{
components = (
{
name = period;
transform = "{1, 0, 0, 1, 10, 0}";
}
);
layerId = "37E353DF-6BB3-462E-BD25-B39B9A501818";
paths = (
{
closed = 1;
nodes = (
"46 699 LINE",
"46 518 LINE",
"82 247 LINE",
"202 247 LINE",
"238 518 LINE",
"238 699 LINE"
);
}
);
width = 282;
}
);
unicode = 0021;
},
